P2
128 48
255
0 0 0 0 0 0 0 1 1 1 1 2 3 3 3 4 4 5 6 6 7 9 9 9 10 11 11 13 14 15 16 16 16 18 20 22 22 23 23 25 26 28 29 30 32 34 35 36 37 40 43 43 44 47 48 49 51 53 55 57 59 62 64 66 69 70 73 76 79 82 84 87 91 94 99 102 106 110 115 118 123 129 134 139 143 149 156 161 168 173 180 187 193 197 198 199 202 205 211 219 227 234 237 238 239 239 239 239 239 239 239 239 239 239 239 239 239 239 239 239 239 239 239 239 239 239 239 235 
0 0 0 0 0 0 1 1 1 1 2 2 3 3 3 4 5 5 6 6 8 9 10 10 10 11 12 13 15 16 17 17 18 20 22 23 24 24 25 27 28 31 31 33 34 37 38 39 40 43 45 46 47 49 52 53 54 57 59 61 64 66 68 71 73 76 79 81 85 88 90 93 96 100 104 109 112 117 122 125 130 136 141 146 151 157 164 170 176 182 189 196 202 208 210 211 213 216 219 225 233 241 248 252 254 255 255 255 255 255 255 255 255 255 255 255 255 255 255 255 255 255 255 255 255 255 255 251 
0 0 0 0 0 0 1 1 1 1 2 2 3 3 3 4 5 5 6 6 8 9 10 10 10 11 12 13 15 16 17 17 18 20 22 23 24 24 25 27 29 31 31 33 34 36 38 38 40 43 45 46 47 49 52 53 54 57 59 61 64 66 68 71 73 75 78 80 84 87 89 93 95 99 102 106 111 115 119 123 128 133 138 143 148 154 160 166 171 177 184 191 197 204 208 209 211 213 215 217 223 231 239 246 251 254 255 255 255 255 255 255 255 255 255 255 255 255 255 255 255 255 255 255 255 255 255 250 
0 0 0 0 0 0 1 1 1 1 2 2 3 3 3 4 5 5 6 6 8 9 10 10 10 11 12 13 15 16 17 17 18 20 22 23 24 24 25 27 29 30 31 32 34 36 38 39 41 43 45 46 47 50 52 53 55 57 59 61 64 67 68 70 73 75 78 80 83 86 89 91 95 99 102 105 109 113 117 121 126 131 135 139 145 150 156 161 167 173 179 185 192 199 205 208 209 211 212 214 217 221 228 236 244 250 253 255 255 255 255 255 255 255 255 255 255 255 255 255 255 255 255 255 255 255 255 250 
0 0 0 0 0 0 1 1 1 1 2 3 3 3 3 4 5 5 6 6 8 9 10 10 10 11 12 14 16 16 17 17 18 20 22 23 24 24 26 27 29 31 31 32 33 36 38 38 40 43 45 46 47 49 52 53 55 57 59 60 62 66 67 69 72 74 77 79 81 85 87 90 93 97 101 104 107 111 114 118 123 128 132 136 141 147 152 157 163 169 175 180 186 193 200 206 208 209 210 211 214 215 219 225 232 240 247 252 254 255 255 255 255 255 255 255 255 255 255 255 255 255 255 255 255 255 255 250 
0 0 0 0 0 0 1 1 1 1 2 3 3 3 3 3 4 5 6 6 8 9 10 10 10 11 12 14 15 16 17 17 18 19 21 23 24 24 25 27 28 30 31 32 33 35 37 38 40 42 44 46 47 49 51 53 54 56 58 60 62 66 67 69 72 74 77 79 81 83 87 89 92 95 99 102 105 109 112 116 121 125 129 133 138 143 148 153 159 165 170 175 181 187 194 200 206 208 208 210 211 212 214 217 222 229 236 244 250 252 254 255 255 255 255 255 255 255 255 255 255 255 255 255 255 255 255 250 
0 0 0 0 0 0 1 1 1 1 2 2 3 3 3 3 4 5 6 6 8 9 10 10 10 11 12 13 15 16 16 17 18 18 21 22 24 24 25 27 27 30 31 32 33 34 37 38 39 41 43 46 47 49 50 52 54 55 58 59 61 65 67 68 71 73 75 78 81 82 85 88 91 94 97 100 103 107 110 113 118 122 127 131 135 139 144 149 154 160 165 170 175 181 188 193 200 205 208 208 209 210 212 213 215 219 225 232 240 246 250 253 255 255 255 255 255 255 255 255 255 255 255 255 255 255 255 250 
0 0 0 0 0 0 1 1 1 1 2 2 3 3 3 3 4 5 6 6 8 8 9 10 10 10 12 12 14 16 16 17 18 18 20 22 23 24 25 26 27 29 31 31 33 34 37 38 39 41 43 45 46 47 50 52 53 54 57 59 60 64 66 67 70 73 74 76 80 81 84 87 90 93 95 98 101 104 108 111 115 119 123 127 131 136 140 144 150 155 160 165 170 176 181 187 192 199 205 207 208 209 209 210 212 214 217 221 227 234 242 248 252 253 254 255 255 255 255 255 255 255 255 255 255 255 255 250 
0 0 0 0 0 0 0 1 1 1 2 2 3 3 3 3 4 5 6 6 7 8 9 10 10 10 12 12 14 16 16 16 17 18 20 22 23 24 24 25 27 28 30 31 33 33 36 37 38 40 43 45 46 46 49 51 53 54 56 59 60 62 65 67 70 72 74 75 79 81 83 86 88 91 94 96 99 102 106 109 112 116 119 123 128 132 136 140 145 149 154 160 165 169 175 180 186 192 198 204 206 207 208 208 209 211 213 215 218 222 229 236 242 248 252 253 254 255 255 255 255 255 255 255 255 255 255 250 
0 0 0 0 0 0 0 1 1 1 1 2 2 3 3 3 4 5 5 6 6 8 9 10 10 10 11 12 13 15 16 16 17 18 19 21 22 23 24 25 26 28 30 31 32 33 35 37 38 39 42 44 45 46 48 50 52 53 55 57 59 61 63 66 68 71 73 74 76 79 81 84 87 89 92 95 97 101 103 106 110 113 117 121 124 128 132 136 140 145 149 154 159 163 168 173 178 184 190 196 201 205 207 208 208 209 210 211 213 215 218 223 229 237 243 248 252 254 255 255 255 255 255 255 255 255 255 250 
0 0 0 0 0 0 0 1 1 1 1 2 2 3 3 3 4 4 5 5 6 7 9 10 10 10 11 12 12 14 16 16 17 17 18 20 22 23 24 24 26 27 28 31 31 32 34 36 38 39 41 43 45 46 47 50 52 53 54 56 59 61 62 65 67 69 71 74 75 77 80 82 85 87 90 93 96 98 101 104 106 110 114 117 121 124 128 132 136 140 144 149 152 157 162 167 172 176 182 187 193 199 203 206 207 208 208 209 210 211 213 216 219 224 230 236 243 248 251 254 255 255 255 255 255 255 255 250 
0 0 0 0 0 0 0 0 1 1 1 2 2 2 3 3 3 4 5 5 6 6 8 9 10 10 10 11 12 13 15 16 16 17 18 19 21 22 23 24 25 26 28 30 31 32 33 35 37 38 39 42 44 45 46 48 51 52 54 56 58 60 61 64 66 67 70 73 74 76 79 81 83 86 88 91 94 96 99 101 104 107 110 114 117 121 124 127 131 135 139 143 147 151 156 160 165 170 174 179 184 189 195 200 204 206 207 208 208 209 210 212 214 216 219 223 229 235 241 246 250 252 254 255 255 255 255 250 
0 0 0 0 0 0 0 0 1 1 1 1 2 2 3 3 3 4 5 5 6 6 7 8 10 10 10 10 12 12 14 15 16 17 17 19 21 22 23 24 25 26 27 29 31 32 33 34 37 38 39 40 43 44 46 47 50 52 53 54 57 59 60 62 65 66 68 70 73 74 77 80 82 84 86 89 91 94 97 98 101 104 107 110 113 117 119 123 127 130 134 138 141 145 149 154 158 162 167 171 176 181 185 190 195 200 204 206 208 208 208 209 211 213 214 216 218 222 227 233 239 244 248 251 253 254 255 250 
0 0 0 0 0 0 0 0 1 1 1 1 1 2 3 3 3 3 4 5 5 6 7 8 9 10 10 10 11 12 13 15 16 16 17 18 20 21 23 24 24 25 27 27 29 31 32 33 36 37 38 40 42 44 45 47 48 51 53 53 55 57 59 61 63 64 67 68 70 73 74 77 79 81 84 87 88 90 94 96 98 101 104 106 109 113 115 118 122 125 129 132 136 139 143 147 151 154 159 163 168 172 176 181 185 190 195 200 203 206 207 208 208 209 211 212 214 214 217 220 225 230 235 240 245 249 252 248 
0 0 0 0 0 0 0 0 1 1 1 1 1 2 2 3 3 3 3 4 5 6 6 7 8 9 10 10 11 12 12 14 15 16 17 18 18 20 22 23 24 24 26 27 29 31 32 33 34 36 38 39 40 43 44 46 47 49 51 53 54 56 58 60 60 63 65 67 68 70 73 75 77 80 81 83 86 89 91 93 96 98 101 103 105 108 111 114 117 121 124 127 130 133 137 140 144 147 151 156 160 164 168 172 175 179 184 189 193 197 202 205 207 208 208 209 210 211 212 214 216 218 221 226 231 236 242 241 
0 0 0 0 0 0 0 0 0 1 1 1 1 2 2 2 3 3 3 4 5 5 6 6 7 9 10 10 10 11 12 13 14 16 17 17 18 19 21 22 23 24 25 26 28 30 31 32 33 34 36 38 39 41 43 45 46 47 49 52 53 54 56 58 59 61 63 66 67 69 72 73 75 78 80 81 83 87 88 90 94 96 99 101 103 106 109 111 114 117 119 122 125 127 131 134 137 141 145 149 152 156 160 163 166 170 174 179 182 187 191 195 199 202 206 207 208 209 209 210 212 213 214 216 219 222 226 226 
0 0 0 0 0 0 0 0 0 0 1 1 1 1 2 2 3 3 3 3 4 5 5 6 6 8 10 10 10 10 12 12 14 15 16 14 14 17 20 22 23 24 24 26 27 29 30 31 32 33 35 37 38 39 42 44 45 46 47 49 52 53 54 56 58 59 61 64 66 67 69 71 73 75 78 80 81 84 87 88 91 93 96 98 101 103 105 107 109 112 115 117 120 123 126 128 131 134 138 141 144 148 151 155 158 161 165 169 172 176 180 183 187 190 195 199 202 205 207 208 209 210 211 212 214 215 217 215 
0 0 0 0 0 0 0 0 0 0 1 1 1 1 2 2 3 3 3 3 4 5 5 6 6 8 9 10 10 10 11 12 13 13 26 64 103 85 37 21 22 23 24 25 27 27 29 31 31 31 32 35 37 39 40 42 44 46 46 47 50 52 53 54 56 58 60 61 64 66 67 69 71 73 76 79 81 81 83 86 88 89 92 94 96 99 101 102 104 107 110 112 115 118 120 122 126 129 132 134 137 140 143 146 149 152 156 159 162 165 169 173 176 180 184 187 189 194 197 200 203 205 207 208 210 211 212 208 
0 0 0 0 0 0 0 0 0 0 0 1 1 1 1 1 2 3 3 3 3 4 5 5 6 7 8 9 10 10 11 12 13 95 196 236 246 199 101 26 21 23 24 24 25 26 26 26 34 54 60 41 35 37 39 40 42 44 46 46 48 50 52 53 54 56 58 60 61 64 66 67 69 71 73 75 78 81 82 84 85 87 88 90 93 95 97 98 100 103 105 107 110 112 115 117 120 123 125 127 130 132 136 138 141 143 147 150 153 156 159 162 165 168 171 175 178 181 185 187 189 193 196 198 201 203 205 202 
0 0 0 0 0 0 0 0 0 0 0 1 1 1 1 1 2 2 3 3 3 4 5 5 6 6 7 9 10 10 10 9 40 219 255 255 255 234 149 44 19 22 23 24 23 25 59 121 178 217 171 64 33 36 37 38 40 42 44 46 46 48 50 52 53 54 55 58 60 61 63 66 67 69 72 73 75 77 80 81 82 83 85 87 89 91 93 95 96 98 101 103 105 107 109 111 114 116 119 121 124 126 129 131 134 136 139 142 144 147 150 153 155 158 161 163 167 170 172 174 177 180 182 184 187 190 192 190 
0 0 0 0 0 0 0 0 0 0 0 0 0 1 1 1 1 2 3 3 3 3 4 5 6 6 6 8 9 10 10 7 75 246 255 255 255 247 179 63 18 22 22 21 44 136 224 255 255 237 122 37 33 34 36 38 38 39 42 44 45 46 48 50 52 53 53 55 58 59 61 63 65 67 69 71 73 74 75 77 79 81 82 83 85 87 89 91 93 95 97 99 101 103 105 106 109 111 113 115 117 120 121 124 126 129 131 133 136 138 141 143 145 148 151 153 156 158 160 163 165 168 170 172 174 176 178 177 
0 0 0 0 0 0 0 0 0 0 0 0 0 1 1 1 1 2 3 3 3 3 3 5 6 7 8 9 10 10 11 7 103 254 255 255 255 250 182 62 18 22 20 75 199 255 255 255 241 139 42 30 32 33 34 36 37 38 40 42 44 45 46 47 49 51 52 54 55 58 59 60 62 64 66 68 69 71 73 74 75 77 79 81 82 83 86 88 89 91 93 94 96 98 100 101 104 106 108 109 111 113 115 117 119 122 123 125 127 129 132 134 136 139 141 144 146 148 150 152 154 156 158 160 162 164 166 165 
0 0 0 0 0 0 0 0 0 0 0 0 0 0 1 1 1 2 3 3 3 4 5 6 6 8 9 10 10 10 11 9 127 255 255 255 255 248 170 49 18 19 93 226 255 255 255 244 145 42 28 31 31 31 32 32 33 36 38 40 41 43 45 46 46 49 51 53 54 56 57 58 60 61 63 65 67 68 69 71 72 74 75 77 79 81 82 84 85 87 88 90 91 93 95 97 99 100 102 104 105 107 109 111 113 115 116 118 120 122 124 125 128 130 132 134 136 138 140 142 143 145 147 149 150 152 154 154 
0 0 0 0 0 0 0 0 0 0 0 0 0 0 1 1 2 2 3 3 4 5 6 6 7 9 9 10 10 10 11 11 149 255 255 255 255 241 150 36 18 99 232 255 255 255 249 161 46 26 28 29 27 29 45 76 97 77 42 38 39 41 42 44 45 46 49 50 52 53 54 55 57 58 59 61 63 65 66 68 69 71 72 74 75 77 79 80 81 83 85 86 87 89 91 93 94 95 97 98 100 101 103 105 107 108 109 111 113 115 116 117 120 122 123 125 127 128 131 132 134 135 137 139 140 141 143 141 
0 0 0 0 0 0 0 0 0 0 0 0 0 0 1 1 2 3 3 3 4 5 6 6 7 8 9 10 10 10 10 13 168 255 255 255 255 233 132 30 105 239 255 255 255 253 184 57 24 25 26 47 96 154 206 241 227 117 40 36 37 39 40 41 43 45 46 47 48 51 52 53 54 56 58 59 60 61 63 65 67 68 69 71 72 74 76 76 78 79 81 82 84 85 87 88 89 91 92 94 95 96 98 99 101 102 103 105 107 108 109 111 112 114 115 117 118 120 121 123 124 125 126 128 129 130 132 130 
0 0 0 0 0 0 0 0 0 0 0 0 0 0 1 2 3 3 3 4 4 5 5 6 6 7 8 9 9 10 9 24 201 255 255 255 255 230 131 117 237 255 255 255 255 206 77 21 23 54 135 211 248 255 255 221 114 40 33 34 36 37 38 39 41 43 44 45 46 47 49 51 52 53 54 55 57 59 60 62 63 65 66 68 69 71 72 73 74 76 77 79 80 81 82 84 85 87 88 89 91 92 94 94 95 97 97 99 101 102 103 104 105 107 108 109 110 112 113 114 115 117 117 119 119 120 121 120 
0 0 0 0 0 0 0 0 0 0 0 0 1 1 2 3 3 3 4 4 4 4 5 5 6 6 7 8 9 10 7 58 236 255 255 255 255 232 191 241 255 255 255 255 229 106 24 51 134 220 255 255 255 238 163 68 31 30 32 32 34 36 37 38 39 40 41 43 45 46 46 48 50 51 52 53 54 55 57 59 60 61 63 64 66 67 69 70 71 72 74 74 76 77 78 80 81 82 84 85 86 88 89 89 90 91 92 94 95 96 97 98 99 100 101 102 103 105 105 106 107 108 109 111 111 112 113 111 
0 0 0 0 0 0 0 0 0 0 1 1 1 2 3 3 3 3 3 3 4 4 5 5 6 6 6 6 6 10 7 120 255 255 255 255 255 249 250 255 255 255 255 244 145 62 132 219 255 255 255 243 173 81 32 28 31 31 31 31 32 33 34 36 37 38 39 40 42 44 45 46 46 48 50 51 52 53 54 56 58 59 60 61 62 63 65 66 68 69 70 71 72 73 74 76 77 77 79 80 81 83 84 84 85 87 88 88 89 90 91 92 93 94 95 96 97 97 98 99 99 100 101 103 103 103 104 103 
0 0 0 0 0 0 0 0 0 0 1 1 2 3 3 3 3 3 3 3 3 4 4 5 6 4 14 48 104 133 122 207 255 255 255 255 255 255 255 255 255 255 252 198 146 211 255 255 255 254 201 95 32 22 24 25 26 28 29 29 29 30 32 33 35 37 38 38 40 41 42 44 45 46 47 48 49 51 52 53 54 55 57 58 59 60 61 62 64 65 66 68 68 69 71 71 72 74 75 76 77 77 79 79 80 82 82 83 85 85 86 87 87 88 89 89 90 91 92 92 93 94 94 95 96 96 96 96 
0 0 0 0 0 0 0 0 0 0 1 2 2 3 3 3 3 3 3 3 3 4 4 5 4 65 180 230 253 253 245 253 255 255 255 255 255 255 255 255 255 255 245 229 250 255 255 255 247 166 50 21 33 50 72 98 121 132 140 142 131 85 37 31 32 34 35 36 37 38 40 41 43 44 45 46 47 47 48 50 52 53 53 54 55 57 58 59 61 61 62 64 65 66 67 67 68 70 71 72 73 74 75 75 76 76 78 79 80 80 80 81 82 82 83 84 85 86 86 87 88 88 88 88 89 90 90 88 
0 0 0 0 0 0 0 0 1 1 1 2 3 3 3 3 3 3 3 3 3 3 4 5 4 150 255 255 255 255 255 255 255 255 255 255 255 255 255 255 255 255 254 255 255 255 255 243 168 94 118 163 197 222 241 253 255 255 252 224 162 77 33 30 31 32 33 34 36 37 37 39 40 41 42 43 45 45 46 47 49 50 51 51 53 54 55 56 56 58 59 60 61 62 63 64 65 66 66 67 68 69 70 71 72 73 73 74 75 75 76 76 77 78 79 79 80 80 81 81 81 82 82 82 82 83 83 82 
0 0 0 0 0 0 0 0 1 1 1 2 3 3 3 3 3 3 3 3 3 3 4 6 2 99 252 255 255 255 255 255 255 255 255 255 255 255 255 255 255 255 255 255 255 255 255 241 226 242 255 255 255 255 240 218 190 151 100 53 29 26 27 28 29 30 31 32 32 34 35 36 38 38 39 40 41 43 44 45 46 47 47 48 50 51 52 53 53 54 55 56 57 58 59 60 61 61 62 63 64 65 66 67 68 68 69 70 71 71 71 72 72 73 73 74 74 75 75 76 75 76 76 77 77 77 77 77 
0 0 0 0 0 0 0 0 1 1 2 3 3 3 3 3 3 3 3 3 3 4 4 6 5 25 195 255 255 255 255 255 255 255 255 255 255 255 255 255 255 255 255 255 255 255 255 255 255 255 231 187 142 101 66 43 30 22 21 23 25 26 26 26 27 27 29 30 31 32 33 34 35 36 37 38 39 40 41 42 43 44 45 46 47 47 48 49 51 52 53 53 54 54 55 56 57 58 58 59 60 61 62 63 63 63 64 65 66 66 67 67 68 68 68 68 69 70 70 71 71 71 71 71 72 72 73 72 
0 0 0 0 0 0 0 1 1 2 3 3 3 3 3 3 3 3 3 3 3 4 5 5 6 4 85 243 255 255 255 255 255 255 255 255 255 255 255 255 255 255 255 255 255 255 255 244 190 115 55 25 16 15 17 20 22 23 23 24 24 24 24 24 25 26 27 27 29 30 31 32 32 33 35 36 37 38 38 39 40 41 42 44 45 46 46 46 47 48 50 51 51 52 52 53 53 54 55 55 56 57 57 58 59 60 60 61 61 62 62 63 63 64 65 65 65 65 66 65 66 66 66 66 67 67 67 66 
0 0 0 0 0 0 0 1 1 2 3 3 3 3 3 3 3 3 3 3 3 4 5 6 6 6 17 188 255 255 255 255 255 255 255 255 255 255 255 255 255 255 255 255 255 255 242 149 33 12 14 16 17 17 18 19 20 21 22 23 23 23 23 23 24 24 25 25 27 28 28 30 31 31 32 32 34 35 36 37 38 38 39 40 41 42 43 44 45 46 46 47 47 48 49 50 51 52 52 53 53 54 54 55 55 56 56 57 57 57 58 58 59 60 60 60 60 61 61 61 61 61 61 61 62 62 62 61 
0 0 0 0 0 0 0 1 1 2 3 3 3 3 3 3 3 3 3 3 3 4 5 6 6 3 65 230 255 255 255 255 255 255 255 255 255 255 255 255 255 255 255 255 255 255 215 90 16 15 16 16 16 17 17 18 18 19 19 21 21 21 21 21 22 23 23 24 24 25 26 28 28 29 30 31 31 32 33 34 35 36 37 38 38 39 40 40 42 43 43 44 45 46 46 46 47 48 49 49 50 51 51 52 52 52 53 53 53 54 54 54 54 55 56 56 56 56 57 57 57 57 57 57 57 57 57 57 
0 0 0 0 0 0 0 0 1 1 2 3 3 3 3 3 3 3 3 3 3 4 4 5 5 19 183 255 255 255 255 255 255 255 255 255 255 255 255 255 255 255 255 255 255 250 171 46 12 13 14 15 16 16 16 17 17 17 18 18 18 19 19 19 20 21 22 23 23 24 24 25 25 26 27 28 29 30 31 31 32 33 33 34 36 37 37 38 38 39 40 41 42 43 43 43 44 45 45 46 46 47 47 47 48 49 49 49 50 51 51 52 52 52 52 52 53 53 53 53 53 53 53 53 53 54 53 53 
0 0 0 0 0 0 0 0 0 1 2 2 3 3 3 3 3 3 3 3 3 3 4 4 1 85 248 255 255 255 255 255 255 255 255 255 255 255 255 255 255 255 255 255 255 226 105 17 12 12 12 12 14 15 16 16 16 17 17 17 17 17 17 17 18 18 19 21 22 22 23 23 24 24 25 26 26 27 28 29 30 31 31 32 32 33 34 34 36 36 37 38 38 39 39 40 41 41 42 43 43 44 45 45 45 46 46 46 46 47 47 47 47 48 48 48 49 49 48 49 49 49 50 50 49 49 49 49 
0 0 0 0 0 0 0 0 0 1 1 2 3 3 3 3 3 3 3 2 2 1 1 1 7 168 255 255 255 255 255 255 255 255 255 255 255 255 255 255 255 255 255 255 247 154 34 9 10 11 11 12 12 12 13 15 15 16 16 16 16 16 16 16 16 17 18 18 19 20 21 22 23 23 23 24 25 25 26 27 27 28 29 30 31 31 32 32 33 33 34 35 36 36 36 37 37 38 38 39 39 41 41 41 41 42 43 43 44 44 45 45 45 45 45 45 45 46 46 46 46 46 46 46 46 46 46 45 
0 0 0 0 0 0 0 0 0 0 1 2 2 3 3 3 0 0 3 14 24 31 36 37 76 231 255 255 255 255 255 255 255 255 255 255 255 255 255 255 255 255 255 250 166 45 9 10 10 10 10 10 11 12 12 12 13 14 14 14 14 13 14 14 15 16 16 16 17 17 18 19 20 21 22 22 23 24 24 24 25 26 26 27 28 28 30 30 30 31 31 32 33 33 33 33 34 35 36 36 36 37 37 38 38 38 39 39 39 40 40 41 41 41 41 42 42 42 42 43 43 43 43 42 42 42 42 41 
0 0 0 0 0 0 0 0 0 0 1 1 2 2 0 10 44 100 154 189 205 214 216 222 239 255 255 255 255 255 255 255 255 255 255 255 255 255 255 255 255 255 235 136 31 7 8 9 9 10 10 10 10 10 11 11 12 12 11 12 12 11 12 12 13 14 15 15 16 16 17 17 18 18 19 20 20 21 22 23 23 24 24 25 25 25 26 27 28 28 29 29 30 31 31 31 32 32 32 33 33 34 34 35 35 36 36 36 37 37 37 37 38 38 38 38 38 38 38 39 39 39 39 39 38 38 39 38 
0 0 0 0 0 0 0 0 0 0 0 0 0 12 93 180 231 254 255 255 255 255 255 255 255 255 255 255 255 255 255 255 255 255 255 255 255 255 255 255 250 196 80 10 4 6 6 7 8 8 9 10 10 10 10 10 10 10 10 10 10 10 10 11 11 12 12 13 14 15 16 16 16 17 17 17 18 19 20 21 21 22 23 23 23 24 24 24 25 25 26 27 27 27 28 29 29 30 30 31 31 31 32 32 32 33 33 33 33 34 34 33 34 34 34 35 35 35 36 35 35 35 35 35 35 35 35 35 
0 0 0 0 0 0 0 0 0 0 0 1 60 171 249 255 255 255 255 255 255 255 255 255 255 255 255 255 255 255 255 255 255 255 255 255 255 255 255 254 216 116 36 7 3 5 5 6 6 7 7 9 9 9 9 9 9 8 8 8 9 9 10 10 10 10 11 11 12 12 13 14 14 15 16 16 17 17 17 18 19 19 19 20 22 22 22 23 23 23 24 24 24 25 25 26 26 27 27 28 28 29 29 29 29 30 31 31 31 31 31 31 32 32 32 32 32 32 32 33 33 33 32 32 32 32 32 32 
0 0 0 0 0 0 0 0 0 0 30 134 234 255 255 255 255 255 255 255 255 255 255 255 255 255 255 255 255 255 255 255 255 255 255 255 255 255 255 255 248 227 177 104 38 7 3 5 5 6 6 7 6 6 7 6 6 6 6 6 6 7 8 9 9 10 10 10 11 11 12 11 12 13 14 14 15 16 16 16 17 17 17 18 19 19 19 20 21 21 22 23 23 23 23 24 24 25 25 25 25 26 26 26 27 27 27 28 28 28 28 28 29 29 29 29 30 30 30 30 30 30 30 30 30 30 30 29 
0 0 0 0 0 0 0 0 9 92 209 255 255 255 255 255 255 255 255 255 255 255 255 255 255 255 255 255 255 255 255 255 255 255 255 255 255 255 255 255 255 255 252 228 171 91 25 3 3 4 5 4 4 4 4 4 4 4 5 5 5 6 6 7 8 9 9 10 10 10 10 10 11 11 12 12 12 14 15 15 15 16 16 16 17 17 18 18 18 18 19 20 20 21 22 22 22 22 23 23 24 24 24 24 24 25 25 25 25 25 26 26 26 26 26 26 27 27 27 27 27 27 27 27 27 27 27 26 
0 0 0 0 0 0 0 48 166 248 255 255 255 255 255 255 255 255 255 255 255 255 255 255 255 255 255 255 255 255 255 255 255 255 255 255 255 255 255 255 255 255 255 255 248 213 140 54 7 2 3 3 3 3 3 3 3 3 3 4 4 4 5 6 6 6 7 7 8 9 10 10 10 10 10 11 11 12 12 12 13 14 14 14 15 16 16 16 17 17 17 17 17 18 19 19 19 20 21 21 21 22 22 22 23 23 23 23 23 23 23 24 24 24 24 24 24 24 24 24 24 25 24 24 24 24 24 24 
0 0 0 0 0 20 117 227 255 255 255 255 255 255 255 255 255 255 255 255 255 255 255 255 255 255 255 255 255 255 255 255 255 255 255 255 255 255 255 255 255 255 255 255 255 255 233 172 80 14 2 2 2 2 2 3 3 3 3 3 3 3 4 4 5 5 6 6 6 7 7 8 9 10 10 10 10 10 10 11 11 12 12 12 13 14 14 15 15 15 16 16 16 16 16 17 17 18 18 18 18 19 19 19 20 20 20 21 21 21 22 22 22 22 22 22 22 22 23 23 23 23 22 22 22 22 23 23 
1 0 0 0 29 159 238 242 240 240 240 240 240 240 240 240 240 240 240 240 240 240 240 240 240 240 240 240 240 240 240 240 240 240 240 240 240 240 240 240 240 240 240 240 240 240 239 223 165 73 8 0 1 1 1 2 2 2 3 3 3 3 3 3 4 4 4 5 5 5 6 6 7 7 8 8 9 9 10 10 10 10 10 11 11 11 11 11 12 12 12 13 13 14 15 15 15 15 15 16 16 16 16 16 16 16 16 17 17 18 18 18 18 18 18 18 18 18 19 19 19 18 18 18 18 18 18 19 
