P2
128 48
255
236 240 240 240 240 240 240 240 240 240 240 240 240 240 240 240 240 240 240 240 240 240 240 240 240 240 240 240 240 240 240 240 240 240 240 240 240 240 240 240 240 240 240 240 240 240 240 240 240 240 240 240 240 240 240 240 240 240 240 240 240 240 240 240 240 240 240 240 240 240 240 240 240 240 240 240 240 240 240 240 240 240 240 240 240 240 240 240 240 240 240 240 240 240 240 240 240 240 240 240 240 240 240 240 240 240 240 240 240 240 240 240 240 240 240 240 240 240 240 240 240 240 240 240 240 240 240 236 
252 255 255 255 255 255 255 255 255 255 255 255 255 255 255 255 255 255 255 255 255 255 255 255 255 255 255 255 255 255 255 255 255 255 255 255 255 255 255 255 255 255 255 255 255 255 255 255 255 255 255 255 255 255 255 255 255 255 255 255 255 255 255 255 255 255 255 255 255 255 255 255 255 255 255 255 255 255 255 255 255 255 255 255 255 255 255 255 255 255 255 255 255 255 255 255 255 255 255 255 255 255 255 255 255 255 255 255 255 255 255 255 255 255 255 255 255 255 255 255 255 255 255 255 255 255 255 252 
251 255 255 255 255 255 255 255 255 255 255 255 255 255 255 255 255 255 255 255 255 255 255 255 255 255 255 255 255 255 255 255 255 255 255 255 255 255 255 255 255 255 255 255 255 255 255 255 255 255 255 255 255 255 255 255 255 255 255 255 255 255 255 255 255 255 255 255 255 255 255 255 255 255 255 255 255 255 255 255 255 255 255 255 255 255 255 255 255 255 255 255 255 255 255 255 255 255 255 255 255 255 255 255 255 255 255 255 255 255 255 255 255 255 255 255 255 255 255 255 255 255 255 255 255 255 255 251 
251 255 255 255 255 255 255 255 255 255 255 255 255 255 255 255 255 255 255 255 255 255 255 255 255 255 255 255 255 255 255 255 255 255 255 255 255 255 255 255 255 255 255 255 255 255 255 255 255 255 255 255 255 255 255 255 255 255 255 255 255 255 255 255 255 255 255 255 255 255 255 255 255 255 255 255 255 255 255 255 255 255 255 255 255 255 255 255 255 255 255 255 255 255 255 255 255 255 255 255 255 255 255 255 255 255 255 255 255 255 255 255 255 255 255 255 255 255 255 255 255 255 255 255 255 255 255 251 
251 255 255 255 255 255 255 255 255 255 255 255 255 255 255 255 255 255 255 255 255 255 255 255 255 255 255 255 255 255 255 255 255 255 255 255 255 255 255 255 255 255 255 255 255 255 255 255 255 255 255 255 255 255 255 255 255 255 255 255 255 255 255 255 255 255 255 240 183 160 210 254 255 255 255 255 255 255 255 255 255 255 255 255 255 255 255 255 255 255 255 255 255 255 255 255 255 255 255 255 255 255 255 255 255 255 255 255 255 255 254 255 255 255 255 255 255 255 255 255 255 255 255 255 255 255 255 251 
251 255 255 255 255 255 255 255 255 255 255 255 255 255 255 255 255 255 255 255 255 255 255 255 255 255 255 255 247 240 255 255 255 255 255 255 255 255 255 255 255 255 255 255 255 255 255 255 255 255 255 255 255 255 255 255 255 255 255 255 255 255 255 255 255 255 255 201 55 19 153 251 255 255 255 255 255 255 255 255 255 255 255 255 255 255 255 255 255 255 255 255 255 255 255 255 255 255 255 255 255 255 255 255 255 255 255 255 255 255 205 185 255 255 255 255 255 255 255 255 255 255 255 255 255 255 255 251 
251 255 255 255 255 255 255 255 255 255 255 255 255 255 255 255 255 255 255 255 255 255 255 255 255 255 255 249 125 88 216 255 255 255 255 255 255 255 255 255 255 255 255 255 255 255 255 255 255 255 255 255 255 255 255 255 255 255 255 255 255 255 255 252 247 228 137 40 1 0 29 115 216 240 249 255 255 255 255 255 255 255 255 255 255 255 255 255 255 255 255 255 255 255 255 255 255 255 255 255 255 255 255 255 255 255 255 255 255 255 187 83 189 232 255 255 255 255 255 255 255 255 255 255 255 255 255 251 
251 255 255 255 255 255 255 255 255 255 255 255 255 255 255 255 255 255 255 255 255 255 255 255 255 255 255 210 55 0 34 161 255 255 255 255 255 255 255 255 255 255 255 255 255 255 255 255 255 255 255 255 255 255 255 255 255 255 255 255 255 255 255 239 140 47 1 0 0 0 0 0 36 104 216 255 255 255 255 255 255 255 255 255 255 255 255 255 255 255 255 255 255 255 255 255 255 255 255 255 255 255 255 255 255 255 255 255 255 176 41 1 11 45 104 173 209 210 235 255 255 255 255 255 255 255 255 251 
251 255 255 255 255 255 255 255 255 255 255 255 255 255 255 255 255 255 255 255 255 255 255 242 228 210 118 30 1 0 0 50 192 235 251 255 255 255 255 255 255 255 255 255 255 255 255 255 255 255 255 255 255 255 255 255 255 255 255 255 255 255 255 255 216 35 0 0 0 0 0 0 7 163 254 255 255 255 255 255 255 255 255 255 255 255 255 255 255 255 255 255 255 255 255 255 255 255 255 255 255 255 255 255 255 255 247 239 159 19 0 0 0 0 0 6 19 113 242 255 255 255 255 255 255 255 255 252 
251 255 255 255 255 255 255 255 255 255 255 255 255 255 255 255 255 255 255 255 255 255 255 172 50 25 0 0 0 0 0 0 15 46 135 244 255 255 255 255 255 255 255 255 255 255 255 255 255 255 255 255 255 255 255 255 255 255 255 255 255 255 255 255 239 55 0 0 0 0 0 0 0 108 250 255 255 255 255 255 255 255 255 255 255 255 255 255 255 255 255 255 255 255 255 255 255 255 255 255 255 255 255 255 255 254 195 90 15 0 0 0 0 0 0 0 0 100 244 255 255 255 255 255 255 239 173 210 
251 255 255 255 255 255 255 255 255 255 255 255 255 255 255 255 255 255 255 255 255 255 255 248 124 0 0 0 0 0 0 0 0 9 166 255 255 255 255 255 255 255 255 255 255 255 255 255 255 255 255 255 255 255 255 255 255 255 255 255 255 255 255 255 255 130 0 0 0 0 0 0 6 62 226 255 255 255 255 255 255 255 255 255 255 255 255 255 255 255 255 255 255 255 255 255 255 255 255 255 255 255 255 255 255 255 254 187 16 0 0 0 0 0 0 0 3 63 231 255 255 255 255 250 190 133 173 235 
251 255 255 255 255 255 255 255 255 255 255 255 255 255 255 255 255 255 255 255 255 255 255 255 144 9 0 0 0 0 0 0 0 0 72 231 255 255 255 255 255 255 255 255 255 255 255 255 255 255 255 255 255 255 255 255 255 255 255 255 255 255 244 209 168 93 5 0 0 0 0 0 47 147 207 253 255 255 255 255 255 255 255 255 255 255 255 255 255 255 255 255 255 255 255 255 255 255 255 255 255 255 255 255 255 255 255 225 32 0 0 0 0 0 0 0 88 220 255 255 255 255 205 139 154 229 255 251 
251 255 255 255 255 255 255 255 255 255 255 255 255 255 255 255 255 255 255 255 255 255 255 255 240 187 76 0 0 0 0 0 0 0 0 168 255 255 255 255 255 255 255 255 255 255 255 255 255 255 255 255 255 255 255 255 255 255 255 255 255 255 224 75 1 0 0 0 0 0 0 0 5 13 88 247 255 255 255 255 255 255 255 255 255 255 255 255 255 255 255 255 255 255 255 255 255 255 255 255 255 255 255 255 255 255 255 241 56 0 1 0 0 0 0 22 162 215 212 248 223 147 144 215 255 255 255 250 
251 255 255 255 255 255 255 255 255 255 255 255 255 255 255 255 255 255 255 255 255 255 255 255 255 255 206 52 0 0 0 0 18 49 86 221 255 255 255 255 255 255 255 255 255 255 255 255 255 255 255 255 255 255 255 255 255 255 255 255 255 255 255 125 0 0 0 0 0 0 0 0 0 0 46 190 248 255 255 255 255 255 255 255 255 255 255 255 255 255 255 255 255 255 255 255 255 255 255 255 255 255 255 255 255 255 253 224 118 37 9 0 0 0 0 6 19 22 27 81 56 98 182 216 234 244 251 252 
251 255 255 255 255 255 255 255 255 255 255 255 255 255 255 255 255 255 255 255 255 255 255 255 255 227 79 16 0 0 0 0 32 146 238 255 255 255 255 255 255 255 255 255 255 255 255 255 255 255 255 255 255 255 255 255 255 255 255 255 255 255 255 207 23 0 0 0 0 0 0 0 0 0 0 16 100 200 247 255 255 255 255 255 255 255 255 255 255 255 255 255 255 255 255 255 255 255 255 255 255 255 255 255 255 255 215 47 20 6 1 0 0 0 0 0 0 0 0 0 0 4 10 25 46 65 88 124 
251 255 255 255 255 255 255 255 255 255 255 255 255 255 255 255 255 255 255 255 255 255 255 255 255 220 29 0 0 0 0 0 0 11 81 207 255 255 255 255 255 255 255 255 255 255 255 255 255 255 255 255 255 255 255 255 255 255 255 255 255 255 255 169 6 0 0 0 0 0 7 56 29 3 0 15 71 158 232 255 255 255 255 255 255 255 255 255 255 255 255 255 255 255 255 255 255 255 255 255 255 255 255 255 255 255 218 55 0 0 0 0 0 0 0 0 0 44 107 98 56 19 1 0 0 0 0 0 
251 255 255 255 255 255 255 255 255 255 255 255 255 255 255 255 255 255 255 255 255 255 255 255 255 234 45 0 0 0 0 0 0 0 7 167 255 255 255 255 255 255 255 255 255 255 255 255 255 255 255 255 255 255 255 255 255 255 255 255 255 255 255 139 1 0 0 0 0 0 69 225 220 163 111 148 204 236 253 255 255 255 255 255 255 255 255 255 255 255 255 255 255 255 255 255 255 255 255 255 255 255 255 255 255 255 255 225 80 0 0 0 0 0 0 0 0 31 213 255 240 207 159 106 66 57 68 67 
251 255 255 255 255 255 255 255 255 254 247 244 250 255 255 255 255 255 255 255 255 255 251 234 194 115 6 0 0 0 0 0 0 0 53 231 255 255 255 255 255 255 255 255 255 255 255 255 255 255 255 255 255 255 255 255 255 255 255 255 255 255 255 191 16 0 0 0 0 0 36 157 251 255 255 255 255 255 255 255 255 255 255 255 255 255 255 255 255 255 255 255 255 255 255 255 255 255 255 255 255 255 255 255 255 255 255 255 179 6 0 0 0 0 0 0 0 53 228 255 255 255 255 255 246 242 247 243 
251 251 240 226 210 189 166 142 118 92 70 59 84 201 250 255 251 236 229 222 205 146 77 41 17 26 67 63 3 0 0 0 0 0 90 251 255 255 255 255 255 255 255 255 255 255 255 255 255 255 255 255 255 255 255 255 255 255 255 255 255 255 255 119 0 0 0 0 0 0 0 8 123 245 255 255 255 255 255 255 255 255 255 255 255 255 255 255 255 255 255 255 255 255 255 255 255 255 255 255 255 255 255 255 255 255 255 215 74 1 0 0 0 0 0 0 45 198 255 255 255 255 255 255 255 255 255 251 
249 139 48 32 20 9 2 0 0 0 0 0 0 27 76 125 92 84 108 81 34 32 57 103 173 219 238 180 23 0 0 0 0 0 56 237 255 255 255 255 255 255 255 255 255 255 255 255 255 255 255 255 255 255 255 255 255 255 255 255 255 255 252 86 0 0 0 0 0 0 0 0 4 106 233 255 255 255 255 255 255 255 255 255 255 255 255 255 255 255 255 255 255 255 255 255 255 255 255 255 255 255 255 255 255 255 255 189 26 0 0 0 0 0 0 53 207 255 255 255 255 255 255 255 255 255 255 251 
252 187 66 22 1 0 0 0 0 0 0 0 0 0 0 0 0 16 52 59 69 122 152 168 159 123 69 25 3 0 0 0 0 0 8 84 201 255 255 255 255 255 255 255 255 255 255 255 255 255 255 255 255 255 255 255 255 255 255 255 255 255 255 102 0 0 0 0 0 0 0 0 0 0 65 192 254 255 255 255 255 255 255 255 255 255 255 255 255 255 255 255 255 255 255 255 255 255 255 255 255 255 255 255 255 254 166 47 2 0 0 0 0 0 0 52 219 255 255 255 255 255 255 255 255 255 255 250 
251 255 246 214 166 107 55 20 1 0 0 0 0 0 0 0 0 0 0 0 3 3 3 3 13 46 53 74 43 0 0 0 0 0 0 0 30 169 255 255 255 255 255 255 255 255 255 255 255 255 255 255 255 255 255 255 255 255 255 255 255 255 255 118 0 0 0 0 0 0 0 0 0 0 0 21 129 241 255 255 255 255 255 255 255 255 255 255 255 255 255 255 255 255 255 255 255 255 255 255 255 255 255 255 255 180 19 0 0 0 0 0 0 0 0 0 120 255 255 255 255 255 255 255 255 255 255 250 
251 255 255 255 255 255 240 207 155 96 46 14 0 0 0 0 0 0 0 0 0 0 0 0 1 8 24 57 41 0 0 0 0 0 0 0 0 18 150 251 255 255 255 255 255 255 255 255 255 255 255 255 255 255 255 255 255 255 255 255 255 255 255 144 0 0 0 0 0 0 0 0 0 0 0 0 1 108 247 255 255 255 255 255 255 255 255 255 255 255 255 255 255 255 255 255 255 255 255 255 255 255 255 255 218 48 0 0 0 0 0 0 0 0 0 0 46 231 255 255 255 255 255 255 255 255 255 250 
251 255 255 255 255 255 255 255 255 254 235 198 144 85 38 10 0 0 0 0 0 0 0 0 0 0 0 0 0 0 0 0 0 0 0 0 0 0 9 118 239 255 255 255 255 255 255 255 255 255 255 255 255 255 255 255 255 255 255 255 255 255 255 172 4 0 0 0 0 0 0 0 0 0 0 0 0 15 205 255 255 255 255 255 255 255 255 255 255 255 255 255 255 255 255 255 255 255 255 255 255 255 255 224 72 0 0 0 0 0 0 0 0 0 0 0 6 170 255 255 255 255 255 255 255 255 255 250 
251 255 255 255 255 255 255 255 255 255 255 255 255 251 229 189 134 74 30 6 0 0 0 0 0 0 0 0 0 0 0 0 0 0 0 0 0 0 0 1 84 220 255 255 255 255 255 255 255 255 255 255 255 255 255 255 255 255 255 255 255 255 255 206 19 0 0 0 0 0 0 0 0 1 8 18 49 107 228 255 255 255 255 255 255 255 255 255 255 255 255 255 255 255 255 255 255 255 255 255 255 255 211 65 0 0 0 0 0 0 0 0 0 0 0 0 0 96 253 255 255 255 255 255 255 255 255 250 
251 255 255 255 255 255 255 255 255 255 255 255 255 255 255 255 255 248 221 178 122 65 25 3 0 0 0 0 0 0 0 0 0 0 0 0 0 0 0 0 0 49 202 255 255 255 255 255 255 255 255 255 255 255 255 255 255 255 255 255 255 255 255 228 37 0 10 40 49 50 56 36 1 4 119 206 236 253 255 255 255 255 255 255 255 255 255 255 255 255 255 255 255 255 255 255 255 255 255 255 255 179 41 0 0 0 0 0 0 0 0 0 0 0 0 0 0 41 227 255 255 255 255 255 255 255 255 250 
251 255 255 255 255 255 255 255 255 255 255 255 255 255 255 255 255 255 255 255 255 244 214 168 112 58 35 26 3 0 0 0 0 0 0 0 1 8 25 37 75 127 211 255 255 255 255 255 255 255 255 255 255 255 255 255 255 255 255 255 255 255 255 181 11 0 88 229 238 238 242 215 48 0 58 232 255 255 255 255 255 255 255 255 255 255 255 255 255 255 255 255 255 255 255 255 255 255 255 255 245 84 0 0 0 0 0 0 0 0 0 0 0 0 0 0 0 29 210 255 255 255 255 255 255 255 255 250 
251 255 255 255 255 255 255 255 255 255 255 255 255 255 255 255 255 255 255 255 255 255 255 255 255 241 230 185 24 0 0 0 0 0 0 60 160 184 214 228 247 255 255 255 255 255 255 255 255 255 255 255 255 255 255 255 255 255 255 255 255 255 255 178 9 0 145 255 255 255 255 255 142 0 8 188 255 255 255 255 255 255 255 255 255 255 255 255 255 255 255 255 255 255 255 255 255 255 255 255 255 226 152 71 45 27 3 0 0 1 6 0 0 0 15 52 111 195 250 255 255 255 255 255 255 255 255 250 
251 255 255 255 255 255 255 255 255 255 255 255 255 255 255 255 255 255 255 255 255 255 255 255 255 255 255 168 2 0 4 3 0 0 25 195 255 255 255 255 255 255 255 255 255 255 255 255 255 255 255 255 255 255 255 255 255 255 255 255 255 255 255 230 43 4 171 255 255 255 255 255 227 46 1 168 255 255 255 255 255 255 255 255 255 255 255 255 255 255 255 255 255 255 255 255 255 255 255 255 255 255 255 247 236 211 45 0 0 59 156 19 0 12 164 241 255 255 255 255 255 255 255 255 255 255 255 250 
251 255 255 255 255 255 255 255 255 255 255 255 255 255 255 255 255 255 255 255 255 255 255 255 255 255 255 214 67 2 0 0 0 2 133 255 255 255 255 255 255 255 255 255 255 255 255 255 255 255 255 255 255 255 255 255 255 255 255 255 255 255 255 232 53 1 158 255 255 255 255 255 252 90 0 111 253 255 255 255 255 255 255 255 255 255 255 255 255 255 255 255 255 255 255 255 255 255 255 255 255 255 255 255 253 192 36 0 0 148 216 23 0 31 225 255 255 255 255 255 255 255 255 255 255 255 255 250 
251 255 255 255 255 255 255 255 255 255 255 255 255 255 255 255 255 255 255 255 255 255 255 255 255 255 255 255 236 153 50 1 0 2 57 164 247 255 255 255 255 255 255 255 255 255 255 255 255 255 255 255 255 255 255 255 255 255 255 255 255 255 255 225 40 0 109 240 241 241 241 241 242 126 0 94 251 255 255 255 255 255 255 255 255 255 255 255 255 255 255 255 255 255 255 255 255 255 255 255 255 255 255 244 121 17 0 24 127 242 136 0 0 85 247 255 255 255 255 255 255 255 255 255 255 255 255 250 
251 255 255 255 255 255 255 255 255 255 255 255 255 255 255 255 255 255 255 255 255 255 255 255 255 255 255 255 255 255 231 140 21 0 0 7 99 230 255 255 255 255 255 255 255 255 255 255 255 255 255 255 255 255 255 255 255 255 255 255 255 255 255 194 16 0 17 95 111 111 111 111 102 27 0 22 134 177 230 255 255 255 255 255 255 255 255 255 255 255 255 255 255 255 255 255 255 255 255 255 255 255 253 141 3 3 78 199 255 244 60 0 36 204 255 255 255 255 255 255 255 255 255 255 255 255 255 250 
251 255 255 255 255 255 255 255 255 255 255 255 255 255 255 255 255 255 255 255 255 255 255 255 255 255 255 255 255 255 255 255 174 51 0 0 0 86 242 255 255 255 255 255 255 255 255 255 255 255 255 255 255 255 255 255 255 255 255 255 255 255 255 218 80 44 48 66 72 72 72 73 58 23 18 33 69 90 183 253 255 255 255 255 255 255 255 255 255 255 255 255 255 255 255 255 255 255 255 255 255 253 135 12 3 128 243 255 255 176 14 4 162 255 255 255 255 255 255 255 255 255 255 255 255 255 255 250 
251 255 255 255 255 255 255 255 255 255 255 255 255 255 255 255 255 255 255 255 255 255 255 255 255 255 255 255 255 255 234 176 101 35 0 8 2 3 105 227 255 255 255 255 255 255 255 255 255 255 255 255 255 255 255 255 255 255 255 255 255 255 255 238 130 75 75 74 74 74 74 74 76 88 115 156 185 213 243 255 255 255 255 255 255 255 255 255 255 255 255 255 255 255 255 255 255 255 255 255 254 147 14 2 119 245 255 255 252 90 0 55 221 255 255 255 255 255 255 255 255 255 255 255 255 255 255 250 
251 255 255 255 255 255 255 255 255 255 255 255 255 255 255 255 255 255 255 255 255 255 255 255 255 255 255 255 251 190 58 11 3 15 39 79 26 0 0 144 255 255 255 255 255 255 255 255 255 255 255 255 255 255 255 255 255 255 255 255 255 255 255 232 132 75 74 74 74 74 74 74 75 82 104 182 252 255 255 255 255 255 255 255 255 255 255 255 255 255 255 255 255 255 255 255 255 255 255 255 246 64 0 3 142 245 235 231 159 21 0 121 216 222 236 249 255 255 255 255 255 255 255 255 255 255 255 250 
250 254 255 255 255 255 255 255 255 255 255 251 240 226 224 244 255 255 255 255 255 255 255 255 255 255 255 243 177 92 59 57 64 70 72 66 48 10 0 30 127 192 239 255 255 255 255 255 255 255 255 255 255 255 255 255 255 255 255 255 255 255 255 248 206 113 73 72 73 74 74 74 74 73 74 124 231 255 255 255 255 255 255 255 255 255 255 255 255 255 255 255 255 255 255 255 255 255 255 255 246 80 0 0 22 104 104 98 49 0 0 13 68 93 105 133 180 233 254 255 255 255 255 255 255 255 255 250 
250 254 255 255 255 255 250 238 219 194 166 137 111 94 93 124 177 223 250 255 255 255 255 254 246 231 202 135 84 73 75 75 55 29 17 6 3 1 3 7 45 81 129 224 255 255 255 255 255 255 255 255 255 255 255 255 255 255 255 255 255 255 255 255 254 216 161 123 91 76 73 74 72 75 108 193 247 255 255 255 255 255 255 255 255 255 255 255 255 255 255 255 255 255 255 255 255 255 255 255 250 162 62 35 36 63 72 73 60 21 12 12 50 74 72 72 75 131 236 255 255 255 255 255 255 255 255 250 
250 254 255 244 198 162 134 109 90 78 73 72 72 73 73 72 76 96 139 192 220 210 193 166 143 139 155 169 110 73 74 74 48 25 24 29 37 46 55 63 71 72 87 186 253 255 255 255 255 255 255 255 255 255 255 255 255 255 255 255 255 255 255 255 255 255 255 245 218 185 161 137 107 96 144 216 254 255 255 255 255 255 255 255 255 255 255 255 255 255 255 255 255 255 255 255 255 255 255 255 255 249 219 171 134 101 80 75 74 72 68 69 73 74 74 75 88 153 244 255 255 255 255 255 251 229 242 250 
250 254 255 239 167 104 75 70 72 74 74 74 74 74 74 74 74 73 72 80 90 85 105 174 219 239 253 245 160 82 74 74 75 74 73 74 74 80 93 107 125 157 204 244 254 255 255 255 255 255 255 255 255 255 255 255 255 255 255 255 255 255 255 255 255 255 255 255 255 255 255 249 207 116 103 155 190 236 255 255 255 255 255 255 255 255 255 255 255 255 255 255 255 255 255 255 255 255 255 255 255 255 255 255 250 227 153 83 74 74 74 74 74 74 74 78 119 174 224 247 255 255 255 238 207 209 245 250 
250 254 255 255 253 230 180 123 84 72 73 74 74 74 74 74 74 74 74 74 73 73 83 119 170 218 218 144 95 77 74 74 74 73 73 72 82 149 221 237 247 254 255 255 255 255 255 255 255 255 255 255 255 255 255 255 255 255 255 255 255 255 255 255 255 255 255 255 255 255 255 254 220 177 169 174 197 239 255 255 255 255 255 255 255 255 255 255 255 255 255 255 255 255 255 255 255 255 255 255 255 255 255 255 255 254 188 90 73 74 74 74 74 74 74 74 74 77 97 125 165 203 199 190 228 255 255 251 
250 254 255 255 255 255 255 242 201 142 93 74 72 74 74 74 74 74 74 74 74 74 73 72 75 91 98 75 73 74 75 75 76 82 105 144 191 241 255 255 255 255 255 255 255 255 255 255 255 255 255 255 255 255 255 255 255 255 255 255 255 255 255 255 255 255 255 255 255 255 255 255 255 255 255 255 255 255 255 255 255 255 255 255 255 255 255 255 255 255 255 255 255 255 255 255 255 255 255 255 255 255 255 255 255 255 238 127 73 74 82 82 78 77 75 72 72 71 70 73 92 92 90 112 143 175 215 236 
251 255 255 255 255 255 255 255 255 249 218 163 108 78 72 73 74 74 74 74 74 74 74 74 74 73 73 74 74 75 107 157 183 207 230 251 255 255 255 255 255 255 255 255 255 255 255 255 255 255 255 255 255 255 255 255 255 255 255 255 255 255 255 255 255 255 255 255 255 255 255 255 255 255 255 255 255 255 255 255 255 255 255 255 255 255 255 255 255 255 255 255 255 255 255 255 255 255 255 255 255 255 255 255 255 255 233 124 76 78 119 136 130 148 155 148 139 132 123 99 88 77 72 70 70 73 88 127 
251 255 255 255 255 255 255 255 255 255 255 254 233 183 124 85 72 73 74 74 74 74 74 74 74 74 74 74 74 74 82 112 159 210 244 255 255 255 255 255 255 255 255 255 255 255 255 255 255 255 255 255 255 255 255 255 255 255 255 255 255 255 255 255 255 255 255 255 255 255 255 255 255 255 255 255 255 255 255 255 255 255 255 255 255 255 255 255 255 255 255 255 255 255 255 255 255 255 255 255 255 255 255 255 255 255 250 219 192 178 166 150 134 133 130 132 147 161 171 213 210 181 144 114 102 106 126 152 
250 255 255 255 255 255 255 255 255 255 255 255 255 255 243 204 144 96 74 72 74 74 74 74 74 74 74 74 74 74 74 72 73 86 122 172 220 248 255 255 255 255 255 255 255 255 255 255 255 255 255 255 255 255 255 255 255 255 255 255 255 255 255 255 255 255 255 255 255 255 255 255 255 255 255 255 255 255 255 255 255 255 255 255 255 255 255 255 255 255 255 255 255 255 255 255 255 255 255 255 255 255 255 255 255 255 255 255 255 255 255 252 247 241 223 191 162 157 203 252 255 255 252 242 234 237 247 245 
251 255 255 255 255 255 255 255 255 255 255 255 255 255 255 255 250 220 164 110 79 72 73 74 74 74 74 74 74 74 74 74 74 73 72 75 93 131 185 242 255 255 255 255 255 255 255 255 255 255 255 255 255 255 255 255 255 255 255 255 255 255 255 255 255 255 255 255 255 255 255 255 255 255 255 255 255 255 255 255 255 255 255 255 255 255 255 255 255 255 255 255 255 255 255 255 255 255 255 255 255 255 255 255 255 255 255 255 255 255 255 255 255 255 255 255 255 255 255 255 255 255 255 255 255 255 255 251 
251 255 255 255 255 255 255 255 255 255 255 255 255 255 255 255 255 255 254 234 186 126 86 73 73 74 74 74 74 74 74 74 73 72 72 76 90 118 170 239 255 255 255 255 255 255 255 255 255 255 255 255 255 255 255 255 255 255 255 255 255 255 255 255 255 255 255 255 255 255 255 255 255 255 255 255 255 255 255 255 255 255 255 255 255 255 255 255 255 255 255 255 255 255 255 255 255 255 255 255 255 255 255 255 255 255 255 255 255 255 255 255 255 255 255 255 255 255 255 255 255 255 255 255 255 255 255 251 
251 255 255 255 255 255 255 255 255 255 255 255 255 255 255 255 255 255 255 255 255 245 206 148 99 77 74 74 74 74 74 76 86 110 144 186 221 244 255 255 255 255 255 255 255 255 255 255 255 255 255 255 255 255 255 255 255 255 255 255 255 255 255 255 255 255 255 255 255 255 255 255 255 255 255 255 255 255 255 255 255 255 255 255 255 255 255 255 255 255 255 255 255 255 255 255 255 255 255 255 255 255 255 255 255 255 255 255 255 255 255 255 255 255 255 255 255 255 255 255 255 255 255 255 255 255 255 251 
235 240 240 240 240 240 240 240 240 240 240 240 240 240 240 240 240 240 240 240 240 240 242 235 201 141 86 72 72 76 101 143 185 218 236 242 242 241 240 240 240 240 240 240 240 240 240 240 240 240 240 240 240 239 239 240 240 240 240 240 240 240 240 240 240 240 240 240 240 240 240 240 240 240 240 240 240 240 240 240 240 240 240 240 240 240 240 240 240 240 240 240 240 240 240 240 240 240 240 240 240 240 240 240 240 240 240 240 240 240 240 240 240 240 240 240 240 240 240 240 240 240 240 240 240 240 240 236 
