P2
128 48
255
0 0 0 0 0 0 0 0 0 0 0 0 0 0 0 0 0 0 0 0 0 0 0 0 0 0 8 35 64 82 87 89 92 97 103 110 118 130 144 164 190 215 231 238 240 240 240 239 239 239 239 239 240 240 239 239 240 240 239 239 239 240 239 240 239 239 239 239 239 239 239 239 239 239 239 239 239 239 239 239 239 239 239 239 239 239 239 239 236 208 141 66 16 0 0 0 0 0 0 0 0 0 0 0 0 0 0 0 0 0 0 0 0 0 0 0 0 0 0 0 0 0 0 0 0 0 0 0 
0 0 0 0 0 0 0 0 0 0 0 0 0 0 0 0 0 0 0 0 0 0 0 0 0 2 12 24 28 28 29 32 35 41 49 60 80 114 158 202 233 249 255 255 255 255 255 255 255 255 255 255 255 255 255 255 255 255 255 255 255 255 255 255 255 255 255 255 255 255 255 255 255 255 255 255 255 255 255 255 255 255 255 255 255 255 255 255 255 255 253 233 184 113 46 8 0 0 0 2 2 1 0 0 0 0 0 0 0 0 0 0 0 0 0 0 0 0 0 0 0 0 0 0 0 0 0 0 
0 0 0 0 0 0 0 0 0 0 0 0 0 0 0 0 0 0 0 0 0 0 0 0 0 1 1 1 0 0 0 1 0 3 25 78 148 206 240 253 255 255 255 255 255 255 255 255 255 255 255 255 255 255 255 255 255 255 255 255 255 255 255 255 255 255 255 255 255 255 255 255 255 255 255 255 255 255 255 255 255 255 255 255 255 255 255 255 255 255 255 255 255 254 228 170 98 40 16 18 27 33 29 13 0 0 0 0 0 0 0 0 0 0 0 0 0 0 0 0 0 0 0 0 0 0 0 0 
0 0 0 0 0 0 0 0 0 0 0 0 0 0 0 0 0 0 0 0 0 0 0 0 0 0 0 0 0 0 0 1 30 95 174 230 253 255 255 255 255 255 255 255 255 255 255 255 255 255 255 255 255 255 255 255 255 255 255 255 255 255 255 255 255 255 255 255 255 255 255 255 255 255 255 255 255 255 255 255 255 255 255 255 255 255 255 255 255 255 255 255 255 255 255 255 250 216 159 107 85 87 97 98 71 25 0 0 0 0 0 0 0 0 0 0 0 1 3 4 3 2 0 0 0 0 0 0 
0 0 0 0 0 0 0 0 0 0 0 0 0 0 0 0 0 0 0 0 0 0 0 0 0 0 0 0 0 11 61 138 210 249 255 255 255 255 255 255 255 255 255 255 255 255 255 255 255 255 255 255 255 255 255 255 255 255 255 255 255 255 255 255 255 255 255 255 255 255 255 255 255 255 255 255 255 255 255 255 255 255 255 255 255 255 255 255 255 255 255 255 255 255 255 255 255 255 255 242 210 176 159 163 172 159 97 24 0 0 0 0 0 0 0 0 2 10 21 30 33 30 24 12 0 0 0 0 
0 0 0 0 0 0 0 0 0 0 0 0 0 0 0 0 0 0 0 0 0 0 0 0 0 0 0 26 92 177 236 255 255 255 255 255 255 255 255 255 255 255 255 255 255 255 255 255 255 255 255 255 255 255 255 255 255 255 255 255 255 255 255 255 255 255 255 255 255 255 255 255 255 255 255 255 255 255 255 255 255 255 255 255 255 255 255 255 255 255 255 255 255 255 255 255 255 255 255 255 255 252 239 226 223 230 233 190 88 11 0 0 0 0 0 1 9 25 45 64 77 82 78 69 40 5 0 0 
0 0 0 0 0 0 0 0 0 0 0 0 0 0 0 0 0 0 0 0 0 0 0 0 2 37 115 200 247 255 255 255 255 255 255 255 255 255 255 255 255 255 255 255 255 255 255 255 255 255 255 255 255 255 255 255 255 255 255 255 255 255 255 255 255 255 255 255 255 255 255 255 255 255 255 255 255 255 255 255 255 255 255 255 255 255 255 255 255 255 255 255 255 255 255 255 255 255 255 255 255 255 255 255 253 252 253 255 244 163 45 0 1 2 2 7 20 43 68 91 111 126 132 129 119 66 8 0 
0 0 0 0 0 0 0 0 0 0 0 0 0 0 0 0 0 0 0 0 0 0 2 40 126 211 251 255 255 255 255 255 255 255 255 255 255 255 255 255 255 255 255 255 255 255 255 255 255 255 255 255 255 255 255 255 255 255 255 255 255 255 255 255 255 255 255 255 255 255 255 255 255 255 255 255 255 255 255 255 255 255 255 255 255 255 255 255 255 255 255 255 255 255 255 255 255 255 255 255 255 255 255 255 255 255 255 255 255 255 214 97 29 27 28 31 41 61 88 114 139 159 175 182 177 151 76 11 
0 0 0 0 0 0 0 0 0 0 0 0 0 0 0 0 0 0 0 0 0 32 119 210 252 255 255 255 255 255 255 255 255 255 255 255 255 255 255 255 255 255 255 255 255 255 255 255 255 255 255 255 255 255 255 255 255 255 255 255 255 255 255 255 255 255 255 255 255 255 255 255 255 255 255 255 255 255 255 255 255 255 255 255 255 255 255 255 255 255 255 255 255 255 255 255 255 255 255 255 255 255 255 255 255 255 255 255 255 255 255 242 158 87 81 81 83 92 111 137 163 187 207 222 225 208 157 84 
0 0 0 0 0 0 0 0 0 0 0 0 0 0 0 0 0 0 0 18 95 196 250 255 255 255 255 255 255 255 255 255 255 255 255 255 255 255 255 255 255 255 255 255 255 255 255 255 255 255 255 255 255 255 255 255 255 255 255 255 255 255 255 255 255 255 255 255 255 255 255 255 255 255 255 255 255 255 255 255 255 255 255 255 255 255 255 255 255 255 255 255 255 255 255 255 255 255 255 255 255 255 255 255 255 255 255 255 255 255 255 255 253 203 143 138 137 138 145 162 186 213 233 244 245 230 194 144 
0 0 0 0 0 0 0 0 0 0 0 0 0 0 0 0 0 4 57 165 240 255 255 255 255 255 255 255 255 255 255 255 255 255 255 255 255 255 255 255 255 255 255 255 255 255 255 255 255 255 255 255 255 255 255 255 255 255 255 255 255 255 255 255 255 255 255 255 255 255 255 255 255 255 255 255 255 255 255 255 255 255 255 255 255 255 255 255 255 255 255 255 255 255 255 255 255 255 255 255 255 255 255 255 255 255 255 255 255 255 255 255 255 255 226 190 194 192 192 198 213 234 248 252 244 221 188 150 
0 0 0 0 0 0 0 0 0 0 0 0 0 0 0 0 19 108 213 254 255 255 255 255 255 255 255 255 255 255 255 255 255 255 255 255 255 255 255 255 255 255 255 255 255 255 255 255 255 255 255 255 253 249 245 241 239 239 241 244 248 252 255 255 255 255 255 255 255 255 255 255 255 255 255 255 255 255 255 255 255 255 255 255 255 255 255 255 255 255 255 255 255 255 255 255 255 255 255 255 255 255 255 255 255 255 255 255 255 255 255 255 255 255 255 239 233 239 237 237 241 249 253 250 233 203 170 137 
0 0 0 0 0 0 0 0 0 0 0 0 0 0 0 41 152 239 255 255 255 255 255 255 255 255 255 255 255 255 255 255 255 255 255 255 255 255 255 255 255 255 255 255 255 255 251 236 215 187 160 132 110 93 79 71 67 66 69 76 87 104 127 154 185 214 238 252 255 255 255 255 255 255 255 255 255 255 255 255 255 255 255 255 255 255 255 255 255 255 255 255 255 255 255 255 255 255 255 255 255 255 255 255 255 255 255 255 255 255 255 255 255 255 255 255 251 254 254 254 254 255 253 243 217 182 149 117 
0 0 0 0 0 0 0 0 0 0 0 0 0 4 63 183 250 255 255 255 255 255 255 255 255 255 255 255 255 255 255 255 255 255 255 255 255 255 255 255 255 255 254 238 203 156 107 66 35 16 5 0 0 0 0 0 0 0 0 0 0 0 0 4 15 35 69 119 177 226 252 255 255 255 255 255 255 255 255 255 255 255 255 255 255 255 255 255 255 255 255 255 255 255 255 255 255 255 255 255 255 255 255 255 255 255 255 255 255 255 255 255 255 255 255 255 255 255 255 255 255 255 250 230 196 160 125 94 
0 0 0 0 0 0 0 0 0 0 0 0 8 80 200 253 255 255 255 255 255 255 255 255 255 255 255 255 255 255 255 255 255 255 255 255 255 255 255 255 242 200 138 75 29 6 0 0 0 3 13 26 39 51 59 62 60 55 44 30 16 4 0 0 0 0 0 0 15 57 128 204 248 255 255 255 255 255 255 255 255 255 255 255 255 255 255 255 255 255 255 255 255 255 255 255 255 255 255 255 255 255 255 255 255 255 255 255 255 255 255 255 255 255 255 255 255 255 255 255 255 254 242 211 173 136 101 70 
0 0 0 0 0 0 0 0 0 0 0 9 87 208 254 255 255 255 255 255 255 255 255 255 255 255 255 255 255 255 255 255 255 255 255 255 255 255 231 170 90 30 4 0 0 5 27 63 105 145 177 201 217 227 232 233 233 229 219 200 173 133 83 35 6 0 0 0 0 0 3 38 120 214 253 255 255 255 255 255 255 255 255 255 255 255 255 255 255 255 255 255 253 253 255 255 255 255 255 255 255 255 255 255 255 255 255 255 255 255 255 255 255 255 255 255 255 255 255 255 254 249 227 188 148 110 75 44 
0 0 0 0 0 0 0 0 0 0 7 84 207 254 255 255 255 255 255 255 255 255 255 255 255 255 255 255 255 255 255 255 255 255 255 255 237 168 75 16 0 0 2 28 82 145 198 233 249 255 255 255 255 255 255 255 255 255 255 255 254 242 218 174 100 29 2 0 0 0 0 0 4 59 175 248 255 255 255 255 255 255 255 255 255 255 255 255 255 255 255 255 254 249 251 255 255 255 255 255 255 255 255 255 255 255 255 255 255 255 255 255 255 255 255 255 255 255 255 255 253 239 205 162 120 82 46 19 
0 0 0 0 0 0 0 0 0 4 69 195 253 255 255 255 255 255 255 255 255 255 255 255 255 255 255 255 255 255 255 255 255 255 250 197 94 19 0 0 3 41 118 194 239 255 255 255 255 255 255 255 255 255 255 255 255 255 255 255 251 224 196 203 198 110 21 0 0 0 0 0 0 0 38 165 249 255 255 255 255 255 255 255 255 255 255 255 255 255 255 255 255 249 239 253 255 255 255 255 255 255 255 255 255 255 255 255 255 255 255 255 255 255 255 255 255 255 255 255 250 220 176 133 91 52 21 5 
0 0 0 0 0 0 0 0 1 47 173 249 255 255 255 255 255 255 255 255 255 255 255 255 255 255 255 255 255 255 255 255 255 237 152 45 1 0 0 27 111 203 249 255 255 255 255 255 255 255 255 255 255 255 255 255 255 255 255 255 255 253 227 201 180 98 18 0 0 0 0 0 0 0 0 51 199 255 255 255 255 255 255 255 255 255 255 255 255 255 255 255 255 254 228 239 255 255 255 255 255 255 255 255 255 255 255 255 255 255 255 255 255 255 255 255 255 255 255 255 249 199 145 101 59 23 4 0 
0 0 0 0 0 0 0 0 25 137 239 255 255 255 255 255 255 255 255 255 255 255 255 255 255 255 255 255 255 255 255 255 228 120 22 0 0 5 65 174 244 255 255 255 255 255 255 255 255 255 255 255 255 255 255 255 255 255 255 255 255 227 154 91 45 11 0 0 0 0 0 0 0 0 0 8 129 247 255 255 255 255 255 255 255 255 255 255 255 255 255 255 255 255 226 210 252 255 255 255 255 255 255 255 255 255 255 255 255 255 255 255 255 255 255 255 255 255 255 255 249 179 110 67 28 5 0 0 
0 0 0 0 0 0 0 8 90 214 255 255 255 255 255 255 255 255 255 255 255 255 255 255 255 255 255 255 255 255 255 225 112 15 0 0 10 91 209 254 255 255 255 255 255 255 255 255 255 255 255 255 255 255 255 255 255 255 246 206 135 54 7 0 0 0 0 0 0 0 0 0 0 0 0 0 88 235 255 255 255 255 255 255 255 255 255 255 255 255 255 255 255 255 226 173 240 255 255 255 255 255 255 255 255 255 255 255 255 255 255 255 255 255 255 255 255 255 255 255 245 158 74 32 7 0 0 0 
0 0 0 0 0 0 0 44 168 248 255 255 255 255 255 255 255 255 255 255 255 255 255 255 255 255 255 255 255 255 235 123 17 0 0 8 95 218 255 255 255 255 255 255 255 255 255 255 255 255 255 255 255 255 255 255 222 150 75 22 0 0 0 0 0 0 0 0 0 0 0 0 0 0 0 1 92 226 255 255 255 255 255 255 255 255 255 255 255 255 255 255 255 255 221 133 217 254 255 255 255 255 255 255 255 255 255 255 255 255 255 255 255 255 255 255 255 255 255 255 237 133 39 8 0 0 0 0 
0 0 0 0 0 0 12 103 221 255 255 255 255 255 255 255 255 255 255 255 255 255 255 255 255 255 255 255 255 248 157 30 0 0 2 72 209 255 255 255 255 255 255 255 255 255 255 255 255 255 255 255 255 255 217 132 43 2 0 0 0 0 0 0 0 0 0 0 0 0 0 0 0 0 0 19 137 217 254 255 255 255 255 255 255 255 255 255 255 255 255 255 255 255 203 95 200 253 255 255 255 255 255 255 255 255 255 255 255 255 255 255 255 255 255 255 255 255 255 255 220 102 13 0 0 0 0 0 
0 0 0 0 0 0 40 161 247 255 255 255 255 255 255 255 255 255 255 255 255 255 255 255 255 255 255 255 255 207 68 1 0 0 31 168 252 255 255 255 255 255 255 255 255 255 255 255 255 255 255 255 247 170 50 1 0 0 0 0 0 0 0 0 0 0 0 0 0 0 0 0 0 0 5 89 159 225 255 255 255 255 255 255 255 255 255 255 255 255 255 255 255 253 160 73 206 254 255 255 255 255 255 255 255 255 255 255 255 255 255 255 255 255 255 255 255 255 255 253 189 64 2 0 0 0 0 0 
0 0 0 0 0 6 81 205 255 255 255 255 255 255 255 255 255 255 255 255 255 255 255 255 255 255 255 255 246 144 19 0 0 3 90 229 255 255 255 255 255 255 255 255 255 255 255 255 255 255 255 249 155 26 0 0 0 0 0 0 0 0 0 0 0 0 0 0 0 0 0 0 0 11 86 157 197 251 255 255 255 255 255 255 255 255 255 255 255 255 255 255 255 233 93 102 233 255 255 255 255 255 255 255 255 255 255 255 255 255 255 255 255 255 255 255 255 255 255 242 142 28 0 0 0 0 0 0 
0 0 0 0 0 20 121 231 255 255 255 255 255 255 255 255 255 255 255 255 255 255 255 255 255 255 255 255 225 90 3 0 0 15 145 250 255 255 255 255 255 255 255 255 255 255 255 255 255 255 255 200 45 0 0 0 0 0 0 0 0 0 0 0 0 0 0 0 0 0 0 2 50 139 199 230 253 255 255 255 255 255 255 255 255 255 255 255 255 255 255 255 252 161 66 182 253 255 255 255 255 255 255 255 255 255 255 255 255 255 255 255 255 255 255 255 255 255 255 209 83 6 0 0 0 0 0 0 
0 0 0 0 7 45 153 243 255 255 255 255 255 255 255 255 255 255 255 255 255 255 255 255 255 255 255 255 202 57 0 0 0 27 176 255 255 255 255 255 255 255 255 255 255 255 255 255 255 255 252 145 10 0 0 0 0 0 0 0 0 0 0 0 0 0 0 1 9 26 62 143 223 247 253 255 255 255 255 255 255 255 255 255 255 255 255 255 255 255 255 255 202 83 149 244 255 255 255 255 255 255 255 255 255 255 255 255 255 255 255 255 255 255 255 255 255 255 244 148 31 0 0 0 0 0 0 0 
0 0 0 7 31 78 175 249 255 255 255 255 255 255 255 255 255 255 255 255 255 255 255 255 255 255 255 255 192 42 0 0 0 31 184 255 255 255 255 255 255 255 255 255 255 255 255 255 255 255 250 145 57 62 18 0 0 0 0 0 0 2 15 36 65 96 126 155 184 213 239 255 255 255 255 255 255 255 255 255 255 255 255 255 255 255 255 255 255 255 255 219 111 144 239 255 255 255 255 255 255 255 255 255 255 255 255 255 255 255 255 255 255 255 255 255 255 255 203 72 4 0 0 0 0 0 0 0 
0 0 5 27 67 113 191 251 255 255 255 255 255 255 255 255 255 255 255 255 255 255 255 255 255 255 255 255 198 44 0 0 0 26 173 254 255 255 255 255 255 255 255 255 255 255 255 255 255 255 254 210 175 219 183 87 20 0 0 3 37 110 182 223 243 253 255 255 255 255 255 255 255 255 255 255 255 255 255 255 255 255 255 255 255 255 255 255 255 255 223 145 167 242 255 255 255 255 255 255 255 255 255 255 255 255 255 255 255 255 255 255 255 255 255 255 255 234 121 16 0 0 0 0 0 0 0 0 
0 5 24 59 102 145 204 251 255 255 255 255 255 255 255 255 255 255 255 255 255 255 255 255 255 255 255 255 220 66 0 0 0 11 137 248 255 255 255 255 255 255 255 255 255 255 255 255 255 255 255 253 243 252 255 247 193 89 16 19 117 225 255 255 255 255 255 255 255 255 255 255 255 255 255 255 255 255 255 255 255 255 255 255 255 255 255 255 252 224 182 206 250 255 255 255 255 255 255 255 255 255 255 255 255 255 255 255 255 255 255 255 255 255 255 255 246 160 37 0 0 0 0 0 0 0 0 0 
5 21 53 92 133 176 221 251 255 255 255 255 255 255 255 255 255 255 255 255 255 255 255 255 255 255 255 255 243 116 6 0 0 1 81 226 255 255 255 255 255 255 255 255 255 255 255 255 255 255 255 255 255 255 255 255 255 243 179 102 123 209 251 255 255 255 255 255 255 255 255 255 255 255 255 255 255 255 255 255 255 255 255 255 255 255 255 251 232 222 241 255 255 255 255 255 255 255 255 255 255 255 255 255 255 255 255 255 255 255 255 255 255 255 255 251 183 56 2 0 0 0 0 0 0 0 0 0 
20 46 82 121 163 204 239 253 255 255 255 255 255 255 255 255 255 255 255 255 255 255 255 255 255 255 255 255 255 185 35 0 0 0 26 165 252 255 255 255 255 255 255 255 255 255 255 255 255 255 255 255 255 255 255 255 255 255 255 242 214 215 240 253 255 255 255 255 255 255 255 255 255 255 255 255 255 255 255 255 255 255 255 255 255 255 252 246 247 254 255 255 255 255 255 255 255 255 255 255 255 255 255 255 255 255 255 255 255 255 255 255 255 255 249 192 70 4 0 0 0 0 0 0 0 0 0 0 
43 74 110 148 189 226 249 255 255 255 255 255 255 255 255 255 255 255 255 255 255 255 255 255 255 255 255 255 255 239 112 6 0 0 1 68 211 255 255 255 255 255 255 255 255 255 255 255 255 255 255 255 255 255 255 255 255 255 255 255 255 255 254 255 255 255 255 255 255 255 255 255 255 255 255 255 255 255 255 255 255 255 255 255 255 254 254 255 255 255 255 255 255 255 255 255 255 255 255 255 255 255 255 255 255 255 255 255 255 255 255 255 255 241 183 72 6 0 0 0 0 0 0 0 0 0 0 0 
68 101 136 173 211 242 253 255 255 255 255 255 255 255 255 255 255 255 255 255 255 255 255 255 255 255 255 255 255 255 208 64 0 0 0 7 99 227 255 255 255 255 255 255 255 255 255 255 255 255 255 255 255 255 255 255 255 255 255 255 255 255 255 255 255 255 255 255 255 255 255 255 255 255 255 255 255 255 255 255 255 255 255 255 255 255 255 255 255 255 255 255 255 255 255 255 255 255 255 255 255 255 255 255 255 255 255 255 255 253 254 252 225 156 62 5 0 0 0 0 0 0 0 0 0 0 0 0 
84 121 159 196 230 249 254 255 255 255 255 255 255 255 255 255 255 255 255 255 255 255 255 255 255 255 255 255 255 255 252 179 42 0 0 0 11 109 228 255 255 255 255 255 255 255 255 255 255 255 255 255 255 255 255 255 255 255 255 255 255 255 255 255 255 255 255 255 255 255 255 255 255 255 255 255 255 255 255 255 255 255 255 255 255 255 255 255 255 255 255 255 255 255 255 255 255 255 255 255 255 255 255 255 255 255 255 250 240 246 239 194 116 40 3 0 0 0 0 0 0 0 0 0 0 0 0 0 
64 111 160 203 235 251 255 255 255 255 255 255 255 255 255 255 255 255 255 255 255 255 255 255 255 255 255 255 255 255 255 249 166 38 0 0 0 10 97 214 255 255 255 255 255 255 255 255 255 255 255 255 255 255 255 255 255 255 255 255 255 255 255 255 255 255 255 255 255 255 255 255 255 255 255 255 255 255 255 255 255 255 255 255 255 255 255 255 255 255 255 255 255 255 255 255 255 255 255 255 255 255 255 255 255 253 231 203 213 201 141 67 17 0 0 0 0 0 0 0 0 0 0 0 0 0 0 0 
29 72 125 172 203 223 240 251 255 255 255 255 255 255 255 255 255 255 255 255 255 255 255 255 255 255 255 255 255 255 255 255 247 169 47 0 0 0 4 66 181 247 255 255 255 255 255 255 255 255 255 255 255 255 255 255 255 255 255 255 255 255 255 255 255 255 255 255 255 255 255 255 255 255 255 255 255 255 255 255 255 255 255 255 255 255 255 255 255 255 255 255 255 255 255 255 255 255 255 255 255 255 255 253 233 183 144 155 139 79 26 2 0 0 0 0 0 0 0 0 0 0 0 0 0 0 0 0 
5 33 81 121 147 162 181 209 234 249 255 255 255 255 255 255 255 255 255 255 255 255 255 255 255 255 255 255 255 255 255 255 253 247 188 71 6 0 0 0 29 123 217 254 255 255 255 255 255 255 255 255 255 255 255 255 255 255 255 255 255 255 255 255 255 255 255 255 255 255 255 255 255 255 255 255 255 255 255 255 255 255 255 255 255 255 255 255 255 255 255 255 255 255 255 255 255 255 255 255 255 251 226 172 106 78 89 68 28 4 0 0 0 0 0 0 0 0 0 0 0 0 0 0 0 0 0 0 
0 7 33 64 86 101 113 131 161 194 224 244 253 255 255 253 250 249 252 255 255 255 255 255 255 255 255 255 255 255 255 255 255 250 242 210 115 25 0 0 0 5 54 146 224 254 255 255 255 255 255 255 255 255 255 255 255 255 255 255 255 255 255 255 255 255 255 255 255 255 255 255 255 255 255 255 255 255 255 255 255 255 255 255 255 255 255 255 255 255 255 255 255 255 255 255 255 255 255 242 207 147 80 33 26 32 18 3 0 0 0 0 0 0 0 0 0 0 0 0 0 0 0 0 0 0 0 0 
0 0 4 16 27 39 51 62 78 106 139 174 208 234 245 241 227 216 214 226 245 255 255 255 255 255 255 255 255 255 255 255 255 255 249 234 218 163 71 11 0 0 0 8 57 139 212 249 255 255 255 255 255 255 255 255 255 255 255 255 255 255 255 255 255 255 255 255 255 255 255 255 255 255 255 255 255 255 255 255 255 255 255 255 255 255 255 255 255 255 255 255 255 255 255 255 245 218 168 107 50 15 1 3 4 1 0 0 0 0 0 0 0 0 0 0 0 0 0 0 0 0 0 0 0 0 0 0 
0 0 0 0 1 4 8 13 19 29 49 77 111 147 182 203 196 176 159 153 167 204 240 255 255 255 255 255 255 255 255 255 255 255 255 252 232 211 191 135 56 9 0 0 0 5 39 104 175 226 251 255 255 255 255 255 255 255 255 255 255 255 255 255 255 255 255 255 255 255 255 255 255 255 255 255 255 255 255 255 255 255 255 255 255 255 255 255 255 255 255 255 255 242 213 165 107 56 21 3 0 0 0 0 0 0 0 0 0 0 0 0 0 0 0 0 0 0 0 0 0 0 0 0 0 0 0 0 
0 0 0 0 0 0 0 0 0 1 3 10 24 48 77 111 137 141 123 103 88 91 123 185 239 255 255 255 255 255 255 255 255 255 255 255 255 243 212 187 171 126 60 14 0 0 0 0 13 51 108 168 214 242 254 255 255 255 255 255 255 255 255 255 255 255 255 255 255 255 255 255 255 255 255 255 255 255 255 255 255 255 255 255 255 255 255 255 255 248 228 192 143 88 43 14 2 0 0 0 0 0 0 0 0 0 0 0 0 0 0 0 0 0 0 0 0 0 0 0 0 0 0 0 0 0 0 0 
0 0 0 0 0 0 0 0 0 0 0 0 0 1 8 21 42 66 79 70 49 32 25 37 88 173 239 255 255 255 255 255 255 255 255 255 255 255 253 233 193 165 156 131 82 33 6 0 0 0 0 10 36 76 124 169 206 230 245 253 255 255 255 255 255 255 255 255 255 255 255 255 255 255 255 255 255 255 255 255 255 255 255 254 247 234 213 182 140 96 54 22 5 0 0 0 0 0 0 0 0 0 0 0 0 0 0 0 0 0 0 0 0 0 0 0 0 0 0 0 0 0 0 0 0 0 0 0 
0 0 0 0 0 0 0 0 0 0 0 0 0 0 0 0 0 4 13 22 21 10 3 0 0 14 71 164 235 255 255 255 255 255 255 255 255 255 255 255 252 227 183 148 139 137 113 70 31 8 0 0 0 0 0 9 27 52 82 114 144 172 193 210 222 232 239 243 246 248 249 250 250 249 247 244 240 234 225 214 197 178 153 123 92 61 35 15 3 0 0 0 0 0 0 0 0 0 0 0 0 0 0 0 0 0 0 0 0 0 0 0 0 0 0 0 0 0 0 0 0 0 0 0 0 0 0 0 
0 0 0 0 0 0 0 0 0 0 0 0 0 0 0 0 0 0 0 0 1 1 0 0 0 0 0 8 62 153 228 255 255 255 255 255 255 255 255 255 255 255 253 232 188 142 121 124 126 112 80 45 19 4 0 0 0 0 0 0 2 9 18 29 41 54 67 77 85 91 95 97 96 94 88 80 70 58 46 34 22 12 4 0 0 0 0 0 0 0 0 0 0 0 0 0 0 0 0 0 0 0 0 0 0 0 0 0 0 0 0 0 0 0 0 0 0 0 0 0 0 0 0 0 0 0 0 0 
0 0 0 0 0 0 0 0 0 0 0 0 0 0 0 0 0 0 0 0 0 0 0 0 0 0 0 0 0 5 51 134 212 251 255 255 255 255 255 255 255 255 255 255 255 242 207 160 118 99 103 113 116 103 78 51 29 14 4 0 0 0 0 0 0 0 0 0 0 0 0 0 0 0 0 0 0 0 0 0 0 0 0 0 0 0 0 0 0 3 9 14 15 10 3 0 0 0 0 0 0 0 0 0 0 0 0 0 0 0 0 0 0 0 0 0 0 0 0 0 0 0 0 0 0 0 0 0 
0 0 0 0 0 0 0 0 0 0 0 0 0 0 0 0 0 0 0 0 0 0 0 0 0 0 0 0 0 0 0 2 34 104 183 235 254 255 255 255 255 255 255 255 255 255 255 252 234 198 151 107 82 77 87 100 109 108 98 82 66 50 36 25 18 12 7 5 3 2 1 1 1 1 1 1 1 2 2 3 5 7 10 15 21 29 38 49 57 58 49 33 15 4 1 0 0 0 0 0 0 0 0 0 0 0 0 0 0 0 0 0 0 0 0 0 0 0 0 0 0 0 0 0 0 0 0 0 
0 0 0 0 0 0 0 0 0 0 0 0 0 0 0 0 0 0 0 0 0 0 0 0 0 0 0 0 0 0 0 0 0 0 19 77 157 218 239 240 240 240 240 240 240 240 240 240 241 241 234 215 180 135 92 58 40 40 53 71 90 104 112 114 111 104 94 85 76 69 63 58 55 53 53 54 56 58 62 68 74 82 89 95 98 98 89 71 46 22 7 1 0 0 0 0 0 0 0 0 0 0 0 0 0 0 0 0 0 0 0 0 0 0 0 0 0 0 0 0 0 0 0 0 0 0 0 0 
