P2
128 48
255
0 0 0 0 0 0 0 0 0 0 0 0 0 0 0 0 0 0 0 0 0 0 0 0 0 0 0 0 0 0 0 0 0 0 0 0 0 0 0 0 0 0 0 0 0 0 0 0 0 0 0 0 0 0 0 0 0 0 0 0 0 0 0 0 0 0 0 0 0 0 0 0 0 0 0 0 0 0 0 0 0 0 0 0 0 0 0 0 0 0 0 0 0 0 0 2 7 12 16 17 17 17 17 17 17 17 17 15 13 9 6 3 0 0 0 0 0 0 0 0 0 0 0 0 0 0 0 0 
0 0 0 0 0 0 0 0 0 0 0 0 0 0 0 0 0 0 0 0 0 0 0 0 0 0 0 0 0 0 0 0 0 0 0 0 0 0 0 0 0 0 0 0 0 0 0 0 0 0 0 0 0 0 0 0 0 0 0 0 0 0 0 0 0 0 0 0 0 0 0 0 0 0 0 0 0 0 0 0 0 0 0 0 0 0 0 0 0 0 18 46 79 111 140 162 179 190 196 197 197 197 197 197 197 197 196 193 186 177 166 150 126 96 61 30 9 0 0 0 0 0 0 0 0 0 0 0 
0 0 0 0 0 0 0 0 0 0 0 0 0 0 0 0 0 0 0 0 0 0 0 0 0 0 0 0 0 0 0 0 0 0 0 0 0 0 0 0 0 0 0 0 0 0 0 0 0 0 0 0 0 0 0 0 0 0 0 0 0 0 0 0 0 0 0 0 0 0 0 0 0 0 0 0 0 0 0 0 0 0 0 0 0 0 0 18 81 151 206 234 250 255 255 255 255 255 255 255 255 255 255 255 255 255 255 255 255 255 255 255 255 247 225 181 116 54 13 0 0 0 0 0 0 0 0 0 
0 0 0 0 0 0 0 0 0 0 0 0 0 0 0 0 0 0 0 0 0 0 0 0 0 0 0 0 0 0 0 0 0 0 0 0 0 0 0 0 0 0 0 0 0 0 0 0 0 0 0 0 0 0 0 0 0 0 0 0 0 0 0 0 0 0 0 0 0 0 0 0 0 0 0 0 15 59 108 130 131 96 45 9 0 18 100 197 249 255 255 255 255 255 255 255 255 255 255 255 255 255 255 255 255 255 255 255 255 255 255 255 255 255 255 254 230 168 88 25 1 0 0 0 0 0 0 0 
0 0 0 0 0 0 0 0 0 0 0 0 0 0 0 0 0 0 0 0 0 0 0 0 0 0 0 0 0 0 0 0 0 0 0 0 0 0 0 0 0 0 0 0 0 0 0 0 0 0 0 0 0 0 0 0 0 0 0 0 0 0 0 0 0 0 0 0 0 0 0 0 0 0 28 107 195 241 255 255 255 238 169 71 67 191 252 255 255 255 255 255 255 255 255 255 255 255 255 255 255 255 255 255 255 255 255 255 255 255 255 255 255 255 255 255 255 239 173 90 22 0 0 0 0 0 0 0 
0 0 0 0 0 0 0 0 0 0 0 0 0 0 0 0 0 0 0 0 0 0 0 0 0 0 0 0 0 0 0 0 0 0 0 0 0 0 0 0 0 0 0 0 0 0 0 0 0 0 0 0 0 0 0 0 0 0 0 0 0 0 0 0 0 0 0 0 0 0 0 0 2 77 207 255 255 255 255 255 255 255 229 178 230 255 255 255 255 255 255 255 255 255 255 255 255 255 255 255 255 255 255 255 255 255 255 255 255 255 255 255 255 255 255 255 255 255 228 150 66 9 0 0 0 0 0 0 
0 0 0 0 0 0 0 0 0 0 0 0 0 0 0 0 0 0 0 0 0 0 0 0 0 0 0 0 0 0 0 0 0 0 0 0 0 0 0 0 0 0 0 0 0 0 0 0 0 0 0 0 0 0 0 0 0 0 0 0 0 0 0 0 0 0 0 0 0 0 0 0 74 236 255 255 255 255 255 255 255 255 250 249 255 255 255 255 255 255 255 255 255 255 255 255 255 255 255 255 255 255 255 255 255 255 255 255 255 255 255 255 255 255 255 255 255 255 250 193 103 26 0 0 0 0 0 0 
0 0 0 0 0 0 0 0 0 0 0 0 0 0 0 0 0 0 0 0 0 0 0 0 0 0 0 0 0 0 0 0 0 0 0 0 0 0 0 0 0 0 0 0 0 0 0 0 0 0 0 0 0 0 0 0 0 0 0 0 0 0 0 0 0 0 0 0 0 0 0 0 138 255 254 255 255 255 255 255 255 255 255 255 255 255 255 255 255 255 255 255 255 255 255 255 255 255 255 255 255 255 255 255 255 255 255 255 255 255 255 255 255 255 255 255 255 255 255 216 128 41 1 0 0 0 0 0 
0 0 0 0 0 0 0 0 0 0 0 0 0 0 0 0 0 0 0 0 0 0 0 0 0 0 0 0 0 0 0 0 0 0 0 0 0 0 0 0 0 0 0 0 0 0 0 0 0 0 0 0 0 0 0 0 0 0 0 0 0 0 0 0 0 0 0 0 0 0 0 0 151 255 255 255 255 255 255 255 255 255 255 255 255 255 255 255 255 255 255 255 255 255 255 255 255 255 255 255 255 255 255 255 255 255 255 255 255 255 255 255 255 255 255 255 255 255 255 216 125 37 0 0 0 0 0 0 
0 0 0 0 0 0 0 0 0 0 0 0 0 0 0 0 0 0 0 0 0 0 0 0 0 0 0 0 0 0 0 0 0 0 0 0 0 0 0 0 0 0 0 0 0 0 0 0 0 0 0 0 0 0 0 0 0 0 0 0 0 0 0 0 0 0 0 0 0 0 0 7 177 255 255 255 255 255 255 255 255 255 255 255 255 255 255 255 255 255 255 255 255 255 255 255 255 255 255 255 255 255 255 255 255 255 255 255 255 255 255 255 255 255 255 255 255 255 249 186 91 17 0 0 0 0 0 0 
0 0 0 0 0 0 0 0 0 0 0 0 0 0 0 0 0 0 0 0 0 0 0 0 0 0 0 0 0 0 0 0 0 0 0 0 0 0 0 0 0 0 0 0 0 0 0 0 0 0 0 0 0 0 0 0 0 0 0 0 0 0 0 0 0 0 0 0 0 0 0 32 211 255 255 255 255 255 255 255 255 255 255 255 255 255 255 255 255 255 255 255 255 255 255 255 255 255 255 255 255 255 255 255 255 255 255 255 255 255 255 255 255 255 255 255 255 255 251 217 161 104 61 35 18 5 0 0 
0 0 0 0 0 0 0 0 0 0 0 0 0 0 0 0 0 0 0 0 0 0 0 0 0 0 0 0 0 0 0 0 0 0 0 0 0 0 0 0 0 0 0 0 0 0 0 0 0 0 0 0 0 0 0 0 0 0 0 0 0 0 0 0 0 0 0 0 0 0 0 4 51 109 154 186 225 254 255 255 255 255 255 255 255 255 255 255 255 255 255 255 255 255 255 255 255 255 255 255 255 255 255 255 255 255 255 255 255 255 255 255 255 255 255 255 255 255 255 255 252 246 232 193 127 62 12 0 
0 0 0 0 0 0 0 0 0 0 0 0 0 0 0 0 0 0 0 0 0 0 0 0 0 0 0 0 0 0 0 0 0 0 0 0 0 0 0 0 0 0 0 0 0 0 0 0 0 0 0 0 0 0 0 0 0 0 0 0 0 0 0 0 0 0 0 0 0 0 0 0 0 0 12 97 200 254 255 255 255 255 255 255 255 255 255 255 255 255 255 255 255 255 255 255 255 255 255 255 255 255 255 255 255 255 255 255 255 255 255 255 255 255 255 255 255 255 255 255 255 255 255 234 157 76 13 0 
0 0 0 0 0 0 0 0 0 0 0 0 0 0 0 0 0 0 0 0 0 0 0 0 0 0 0 0 0 0 0 0 0 0 0 0 0 0 0 0 0 0 0 0 0 0 0 0 0 0 0 0 0 0 0 0 0 0 0 0 0 0 0 0 0 0 0 0 0 0 0 0 0 29 165 249 255 255 255 255 254 238 246 255 255 255 255 255 255 255 255 255 255 255 255 255 255 255 255 255 255 255 255 255 255 255 255 255 255 255 255 255 255 255 255 255 255 255 255 255 255 255 245 182 92 22 0 0 
0 0 0 0 0 0 0 0 0 0 0 0 0 0 0 0 0 0 0 0 0 0 0 0 0 0 0 0 0 0 0 0 0 0 0 0 0 0 0 0 0 0 0 0 0 0 0 0 0 0 0 0 0 0 0 0 0 0 0 0 0 0 0 0 0 0 0 0 0 0 0 0 23 180 255 255 255 255 255 255 241 155 211 255 255 255 255 255 255 255 255 255 255 255 255 255 255 255 255 255 255 255 255 255 255 255 255 255 255 255 255 255 255 255 255 255 255 255 255 255 255 252 200 109 31 0 0 0 
0 0 0 0 0 0 0 0 0 0 0 0 0 0 0 0 0 0 0 0 0 0 0 0 0 0 0 0 0 0 0 0 0 0 0 0 0 0 0 0 0 0 0 0 0 0 0 0 0 0 0 0 0 0 0 0 0 0 0 0 0 0 0 0 0 0 0 0 0 0 1 47 163 255 255 255 255 255 255 255 229 120 157 254 255 255 255 255 255 255 255 255 255 255 255 255 255 255 255 255 255 255 255 255 255 255 255 255 255 255 255 255 255 255 255 255 255 255 255 255 239 173 78 16 1 0 0 0 
0 0 0 0 0 0 0 0 0 0 0 0 0 0 0 0 0 0 0 0 0 0 0 0 0 0 0 0 0 0 0 0 0 0 0 0 0 0 0 0 0 0 0 0 0 0 0 0 0 0 0 0 0 0 0 0 0 0 0 0 0 0 0 0 0 0 0 0 0 26 133 232 255 255 255 255 255 255 255 255 228 119 73 218 255 255 255 255 255 255 255 255 255 255 255 255 255 255 255 255 255 255 255 255 255 255 255 255 255 255 255 255 255 255 251 254 255 255 255 254 206 113 28 0 0 0 0 0 
0 0 0 0 0 0 0 0 0 0 0 0 0 0 0 0 0 0 0 0 0 0 0 0 0 0 0 0 0 0 0 0 0 0 0 0 0 0 0 0 0 0 0 0 0 0 0 0 0 0 0 0 0 0 0 0 0 0 0 0 0 0 0 0 0 0 0 0 57 142 178 235 255 255 255 255 255 255 255 255 238 141 63 203 232 249 255 255 255 255 255 255 255 255 255 255 255 255 255 255 255 255 255 255 255 255 255 255 255 255 255 255 255 254 224 246 254 219 218 242 170 104 31 0 0 0 0 0 
0 0 0 0 0 0 0 0 0 0 0 0 0 0 0 0 0 0 0 0 0 0 0 0 0 0 0 0 0 0 0 0 0 0 14 36 48 41 17 0 0 0 0 0 0 0 0 0 0 0 0 0 0 0 0 0 0 0 0 0 0 0 0 0 0 0 0 0 13 12 48 229 255 255 255 255 255 255 255 255 248 164 71 87 53 94 143 209 255 255 255 255 255 255 255 255 255 255 255 255 255 255 255 255 255 255 255 255 255 255 255 255 251 239 177 194 221 135 94 98 51 29 11 0 0 0 0 0 
0 0 0 0 0 0 0 0 0 0 0 0 0 0 0 0 0 0 0 0 0 0 0 0 0 0 0 0 0 0 10 43 93 148 198 228 237 224 168 83 24 1 0 0 0 0 0 0 0 0 0 0 0 0 0 0 0 0 0 0 0 0 0 0 0 0 0 0 0 0 108 255 255 255 255 255 255 255 255 254 246 164 54 0 0 0 0 73 245 255 255 255 255 255 255 255 255 255 255 255 255 255 255 255 255 255 255 255 255 255 248 240 201 141 80 104 120 64 33 0 0 0 0 0 0 0 0 0 
0 0 0 0 0 0 0 0 0 0 0 0 0 0 0 0 0 0 0 0 0 0 0 0 0 0 6 30 72 133 189 232 254 255 255 255 255 255 255 235 180 104 40 6 0 0 0 0 0 0 0 0 0 0 0 0 0 0 0 0 0 0 0 0 0 0 0 0 0 8 164 255 255 255 255 255 255 255 255 253 240 151 41 0 0 0 0 24 209 241 252 253 239 230 253 255 255 255 255 255 255 255 255 255 255 255 255 255 255 255 210 149 81 33 18 29 18 11 3 0 0 0 0 0 0 0 0 0 
0 0 0 0 0 0 0 0 0 0 0 0 0 0 0 0 0 0 0 0 0 0 11 35 72 124 178 221 247 255 255 255 248 216 160 123 187 249 255 255 255 245 206 138 66 18 0 0 0 0 0 0 0 0 0 0 0 0 0 0 0 0 0 0 0 0 0 0 0 0 103 254 255 255 255 255 255 255 255 255 214 101 14 0 0 0 0 31 121 131 226 230 199 116 110 174 227 252 255 255 255 255 255 255 255 255 255 255 255 246 174 77 14 0 1 0 0 0 0 0 0 0 0 0 0 0 0 0 
0 0 0 0 0 0 0 0 0 0 0 0 0 0 0 0 0 11 32 62 102 148 192 226 248 255 255 255 255 249 218 156 87 33 4 0 14 88 189 246 255 255 255 253 229 173 98 35 4 0 0 0 0 0 0 0 0 0 0 0 0 0 0 0 0 0 0 0 0 0 36 219 254 251 255 255 255 255 255 236 139 33 0 0 0 0 0 19 15 43 157 168 129 57 5 1 36 108 232 255 255 255 255 255 255 255 255 255 255 225 140 53 4 0 0 0 0 0 0 0 0 0 0 0 0 0 0 0 
0 0 0 0 0 0 0 0 0 0 1 10 27 52 79 114 152 192 224 244 255 255 255 255 255 255 255 255 255 240 152 38 0 0 0 0 0 0 15 74 164 232 254 255 255 255 243 199 127 52 10 0 0 0 0 0 0 0 0 0 0 0 0 0 0 0 0 0 0 0 0 115 225 228 255 255 255 253 251 185 75 5 0 0 0 0 0 0 0 9 45 64 60 55 67 101 141 186 245 255 255 255 255 255 255 255 255 255 255 249 226 184 131 82 44 18 4 0 0 0 0 0 0 0 0 0 0 0 
0 0 2 8 17 31 52 77 104 132 163 192 219 239 250 255 255 255 255 255 255 255 247 222 179 154 224 255 255 251 190 78 14 1 0 0 0 0 0 0 4 45 167 254 255 255 255 255 251 216 147 65 14 0 0 0 0 0 0 0 0 0 0 0 0 0 0 0 0 0 0 16 138 213 255 255 255 241 217 111 39 0 0 0 0 0 0 0 8 46 99 156 199 228 245 255 255 255 255 255 255 255 255 255 255 255 255 255 255 255 255 255 254 244 225 194 152 107 61 24 5 0 0 0 0 0 0 0 
117 143 168 188 206 223 239 250 255 255 255 255 255 255 255 255 255 248 230 203 165 119 73 32 86 205 247 255 255 255 250 222 139 39 0 0 0 0 0 0 0 35 195 255 255 255 246 243 253 255 254 222 152 68 15 0 0 0 0 0 0 0 0 0 0 0 0 0 0 0 0 0 34 97 205 230 231 174 102 27 8 0 0 0 0 0 13 84 179 233 254 255 255 255 255 255 255 255 255 255 255 255 255 255 255 255 255 255 255 255 255 255 255 255 255 255 255 251 230 183 116 51 12 0 0 0 0 0 
255 255 255 255 255 254 249 254 255 255 255 253 231 199 172 142 107 72 41 17 3 0 0 39 215 255 255 255 255 255 255 255 229 122 23 0 0 0 0 0 103 220 253 255 255 255 250 225 181 192 239 255 253 222 150 62 11 0 0 0 0 0 0 0 0 0 0 0 0 0 0 0 0 7 74 82 70 35 9 0 0 0 0 0 2 76 186 248 255 255 255 255 255 255 255 255 255 255 255 255 255 255 255 255 255 255 255 255 255 255 255 255 255 255 255 255 255 255 255 255 240 176 89 22 0 0 0 0 
184 168 146 124 104 83 74 195 255 255 255 232 119 22 2 0 0 0 0 0 0 0 13 166 255 255 255 255 255 255 255 255 254 207 91 11 0 0 0 64 233 255 255 255 255 255 255 252 196 93 69 166 244 255 252 217 142 60 11 0 0 0 0 0 0 0 0 0 0 0 0 0 0 0 0 1 0 0 0 0 0 0 0 13 128 241 255 255 255 255 255 255 255 255 255 255 255 255 255 255 255 255 255 255 255 255 255 255 255 255 255 255 255 255 255 255 255 255 255 255 255 241 177 89 20 0 0 0 
8 2 0 0 0 23 135 226 255 255 255 247 206 121 31 0 0 0 0 0 0 0 39 227 255 255 255 255 255 255 255 255 255 234 126 20 0 0 23 191 255 255 255 255 255 255 255 255 246 169 55 12 74 189 254 255 251 217 146 65 15 0 0 0 0 0 0 0 0 0 0 0 0 0 0 0 0 0 0 0 0 0 30 166 253 255 255 255 255 255 255 255 255 255 255 255 255 255 255 255 255 255 255 255 255 255 255 255 254 255 255 255 255 255 255 255 255 255 255 255 255 255 238 170 81 16 0 0 
0 0 0 0 11 163 255 255 255 255 255 255 255 238 131 23 0 0 0 0 0 0 3 155 255 255 255 255 255 255 255 255 254 197 74 4 0 0 49 235 255 255 255 255 255 255 255 255 254 192 76 5 0 18 118 225 255 255 253 227 170 97 39 9 0 0 0 0 0 0 0 0 0 0 0 0 0 0 0 0 0 35 188 255 255 255 255 255 255 255 255 255 255 255 255 255 255 255 255 255 255 255 255 255 255 255 255 255 255 255 255 255 255 255 255 255 255 255 255 255 255 255 255 233 158 68 9 0 
0 0 0 1 116 251 255 255 255 255 255 255 255 255 221 100 11 0 0 0 0 0 0 59 237 255 255 255 255 255 255 255 241 143 30 0 0 0 7 170 255 255 255 255 255 255 255 255 239 143 35 0 0 0 0 91 247 255 255 255 255 249 220 175 126 83 53 33 20 12 8 5 5 7 10 16 25 25 20 15 16 169 255 255 255 255 255 255 255 255 255 255 255 255 255 255 255 255 255 255 255 255 255 255 255 255 255 255 255 255 255 255 255 255 255 255 255 255 255 255 255 255 255 255 224 157 93 61 
0 0 0 45 230 255 255 255 255 255 255 255 255 255 253 176 42 0 0 0 0 0 0 4 160 255 255 255 255 255 255 255 208 86 6 0 0 0 0 72 242 255 255 255 255 255 255 255 204 89 9 0 0 0 33 143 253 255 255 254 246 231 230 238 245 246 240 228 213 196 186 178 177 185 192 204 216 216 211 202 196 244 255 255 255 255 255 255 255 255 255 255 255 255 255 255 255 255 255 255 255 255 255 255 255 255 255 255 255 255 255 255 255 255 255 255 255 255 255 255 255 255 255 255 255 251 248 242 
0 0 0 28 209 255 255 255 255 255 255 255 255 255 241 135 21 0 0 0 0 0 0 0 61 238 255 255 255 255 255 246 156 39 0 0 0 0 0 9 176 255 255 255 255 255 255 243 154 43 0 0 0 69 218 253 255 255 255 255 237 158 73 46 60 82 111 139 177 246 255 255 255 255 255 255 255 255 255 255 251 247 254 255 255 255 255 255 255 255 255 255 255 255 255 255 255 255 255 255 255 255 255 255 255 255 255 255 255 255 255 255 255 255 255 255 255 255 255 255 255 255 255 255 255 251 228 203 
0 0 0 0 106 252 255 255 255 255 255 255 255 255 203 72 2 0 0 0 0 0 0 0 5 161 255 255 255 255 255 218 99 10 0 0 0 0 0 0 81 246 255 255 255 255 255 214 101 14 0 0 27 199 255 255 255 255 255 255 254 216 111 19 0 0 0 0 59 205 255 255 249 217 169 122 101 93 88 80 95 195 255 255 255 255 255 255 255 255 255 255 255 255 255 255 255 255 255 255 255 255 255 255 255 255 255 255 255 255 255 255 255 255 255 255 255 255 255 255 255 255 255 255 255 250 210 142 
0 0 0 0 21 200 255 255 255 255 255 255 255 245 146 27 0 0 0 0 0 0 0 0 0 61 238 255 255 255 249 169 48 0 0 0 0 0 0 0 12 183 255 255 255 255 248 167 54 1 0 4 146 255 255 255 255 255 255 255 255 251 187 76 7 0 0 101 233 253 255 255 255 250 215 121 30 0 0 0 16 129 190 247 255 255 255 255 255 255 255 255 255 255 255 255 255 255 255 255 255 255 255 255 255 255 255 255 255 255 255 255 255 255 255 255 255 255 255 255 255 255 255 255 255 255 254 226 
0 0 0 0 0 102 252 255 255 255 255 255 255 212 82 4 0 0 0 0 0 0 0 0 0 5 163 255 255 255 226 112 15 0 0 0 0 0 0 0 0 88 249 255 255 255 224 113 19 0 0 6 168 255 255 255 255 255 255 255 255 253 195 86 10 0 57 227 255 255 255 255 255 255 254 205 101 19 0 0 0 0 64 240 255 255 255 255 255 255 255 255 255 255 255 255 255 255 255 255 255 255 255 255 255 255 255 255 255 255 255 255 255 255 255 255 255 255 255 255 255 255 255 255 255 255 255 249 
0 0 0 0 0 21 200 255 255 255 255 255 248 158 33 0 0 0 0 0 0 0 0 0 0 0 68 242 255 252 181 59 2 0 0 0 0 0 0 0 0 17 192 255 255 251 180 64 3 0 0 0 74 245 255 255 255 255 255 255 255 238 146 42 0 15 184 255 255 255 255 255 255 255 255 246 172 68 6 0 0 0 131 255 255 255 255 255 255 255 255 255 255 255 255 255 255 255 255 255 255 255 255 255 255 255 255 255 255 255 255 255 255 255 255 255 255 255 255 255 255 255 255 255 255 255 255 250 
0 0 0 0 0 0 100 251 255 255 255 255 221 94 7 0 0 0 0 0 0 0 0 0 0 0 8 172 255 234 125 21 0 0 0 0 0 0 0 0 0 0 94 251 255 230 127 26 0 0 0 0 13 188 255 255 255 255 255 255 254 203 95 14 0 13 187 255 255 255 255 255 255 255 255 246 172 68 6 0 0 15 196 255 255 255 255 255 255 255 255 255 255 255 255 255 255 255 255 255 255 255 255 255 255 255 255 255 255 255 255 255 255 255 255 255 255 255 255 255 255 255 255 255 255 255 255 250 
0 0 0 0 0 0 17 193 255 255 255 251 170 41 0 0 0 0 0 0 0 0 0 0 0 0 0 59 190 144 59 3 0 0 0 0 0 0 0 0 0 0 21 199 254 188 75 5 0 0 0 0 0 93 251 255 255 255 255 255 242 155 50 1 0 0 94 251 255 255 255 255 255 255 255 220 121 30 0 0 0 51 236 255 255 255 255 255 255 255 255 255 255 255 255 255 255 255 255 255 255 255 255 255 255 255 255 255 255 255 255 255 255 255 255 255 255 255 255 255 255 255 255 255 255 255 255 250 
0 0 0 0 0 0 0 92 250 255 255 228 106 10 0 0 0 0 0 0 0 0 0 0 0 0 0 0 15 9 4 0 0 0 0 0 0 0 0 0 0 0 0 66 119 72 23 0 0 0 0 0 0 21 202 255 255 255 255 255 211 105 17 0 0 0 22 202 255 255 255 255 255 255 248 176 73 8 0 0 0 101 255 255 255 255 255 255 255 255 255 255 255 255 255 255 255 255 255 255 255 255 255 255 255 255 255 255 255 255 255 255 255 255 255 255 255 255 255 255 255 255 255 255 255 255 255 244 
0 0 0 0 0 0 0 17 193 255 253 181 50 0 0 0 0 0 0 0 0 0 0 0 0 0 0 0 0 0 0 0 0 0 0 0 0 0 0 0 0 0 0 0 0 0 0 0 0 0 0 0 0 0 111 254 255 255 255 245 164 57 2 0 0 0 0 113 255 255 255 255 255 255 224 127 33 0 0 0 0 150 255 255 255 255 255 255 255 255 255 255 255 255 255 255 255 255 255 255 255 255 255 255 255 255 255 255 255 255 255 255 255 255 255 255 255 255 255 255 255 255 255 255 255 255 254 221 
0 0 0 0 0 0 0 0 91 248 232 117 14 0 0 0 0 0 0 0 0 0 0 0 0 0 0 0 0 0 0 0 0 0 0 0 0 0 0 0 0 0 0 0 0 0 0 0 0 0 0 0 0 0 30 214 255 255 255 218 113 22 0 0 0 0 0 34 218 255 255 255 255 249 182 79 9 0 0 0 14 198 255 255 255 255 255 255 255 255 255 255 255 255 255 255 255 255 255 255 255 255 255 255 255 255 255 255 255 255 255 255 255 255 255 255 255 255 255 255 255 255 255 255 255 255 243 184 
0 0 0 0 0 0 0 0 10 92 89 34 1 0 0 0 0 0 0 0 0 0 0 0 0 0 0 0 0 0 0 0 0 0 0 0 0 0 0 0 0 0 0 0 0 0 0 0 0 0 0 0 0 0 0 126 255 255 247 174 66 4 0 0 0 0 0 0 138 255 255 255 255 227 132 36 0 0 0 0 60 239 255 255 255 255 255 255 255 255 255 255 255 255 255 255 255 255 255 255 255 255 255 255 255 255 255 255 255 255 255 255 255 255 255 255 255 255 255 255 255 255 255 255 255 254 217 144 
0 0 0 0 0 0 0 0 0 0 0 0 0 0 0 0 0 0 0 0 0 0 0 0 0 0 0 0 0 0 0 0 0 0 0 0 0 0 0 0 0 0 0 0 0 0 0 0 0 0 0 0 0 0 0 42 227 255 224 122 28 0 0 0 0 0 0 0 50 232 255 255 250 187 84 11 0 0 0 7 161 255 255 255 255 255 255 255 255 255 255 255 255 255 255 255 255 255 255 255 255 255 255 255 255 255 255 255 255 255 255 255 255 255 255 255 255 255 255 255 255 255 255 255 255 245 180 104 
0 0 0 0 0 0 0 0 0 0 0 0 0 0 0 0 0 0 0 0 0 0 0 0 0 0 0 0 0 0 0 0 0 0 0 0 0 0 0 0 0 0 0 0 0 0 0 0 0 0 0 0 0 0 0 2 136 225 159 71 6 0 0 0 0 0 0 0 4 158 255 255 230 138 42 1 0 0 0 67 242 255 255 255 255 255 255 255 255 255 255 255 255 255 255 255 255 255 255 255 255 255 255 255 255 255 255 255 255 255 255 255 255 255 255 255 255 255 255 255 255 255 255 255 255 219 139 65 
0 0 0 0 0 0 0 0 0 0 0 0 0 0 0 0 0 0 0 0 0 0 0 0 0 0 0 0 0 0 0 0 0 0 0 0 0 0 0 0 0 0 0 0 0 0 0 0 0 0 0 0 0 0 0 0 16 43 30 14 0 0 0 0 0 0 0 0 0 65 243 253 191 89 13 0 0 0 0 133 255 255 255 255 255 255 255 255 255 255 255 255 255 255 255 255 255 255 255 255 255 255 255 255 255 255 255 255 255 255 255 255 255 255 255 255 255 255 255 255 255 255 255 255 245 181 99 31 
0 0 0 0 0 0 0 0 0 0 0 0 0 0 0 0 0 0 0 0 0 0 0 0 0 0 0 0 0 0 0 0 0 0 0 0 0 0 0 0 0 0 0 0 0 0 0 0 0 0 0 0 0 0 0 0 0 0 0 0 0 0 0 0 0 0 0 0 0 9 147 169 111 41 1 0 0 0 7 180 255 255 255 255 255 255 255 248 254 255 255 255 255 255 255 255 255 255 255 255 255 255 255 255 255 255 255 255 255 255 255 255 255 255 255 255 255 255 255 255 255 255 255 255 237 159 70 10 
0 0 0 0 0 0 0 0 0 0 0 0 0 0 0 0 0 0 0 0 0 0 0 0 0 0 0 0 0 0 0 0 0 0 0 0 0 0 0 0 0 0 0 0 0 0 0 0 0 0 0 0 0 0 0 0 0 0 0 0 0 0 0 0 0 0 0 0 0 0 10 15 13 4 0 0 0 0 20 197 243 240 240 240 240 241 228 193 231 240 240 240 240 240 240 240 240 240 240 240 240 240 240 240 240 240 240 240 240 240 240 240 240 240 240 240 240 240 240 240 240 240 240 241 226 155 67 9 
