P2
128 48
255
236 240 240 240 240 240 240 240 240 240 240 240 240 240 240 240 240 240 240 240 240 240 240 240 240 240 240 240 240 240 240 240 240 240 240 240 240 240 240 240 240 240 240 240 240 240 240 240 240 240 240 240 240 240 240 240 240 240 240 240 240 240 240 240 240 240 240 240 240 240 240 240 240 240 240 240 240 240 240 240 240 240 240 240 240 240 240 240 240 240 240 240 240 240 240 240 240 240 240 240 240 240 240 240 240 240 240 240 240 240 240 240 240 240 240 240 240 240 240 240 240 240 240 240 240 240 240 236 
252 255 255 255 255 255 255 255 255 255 255 255 255 255 255 255 255 255 255 255 255 255 255 255 255 255 255 255 255 255 255 255 255 255 255 255 255 255 255 255 255 255 255 255 255 255 255 255 255 255 255 255 255 255 255 255 255 255 255 255 255 255 255 255 255 255 255 255 255 255 255 255 255 255 255 255 255 255 255 255 255 255 255 255 255 255 255 255 255 255 255 255 255 255 255 255 255 255 255 255 255 255 255 255 255 255 255 255 255 255 255 255 255 255 255 255 255 255 255 255 255 255 255 255 255 255 255 252 
251 255 255 255 255 255 255 255 255 255 255 255 255 255 255 255 255 255 255 255 255 255 255 255 255 255 255 255 255 255 255 255 255 255 255 255 255 255 255 255 255 255 255 255 255 255 255 255 255 255 255 255 255 255 255 255 255 255 255 255 255 255 255 255 255 255 255 255 255 255 255 255 255 255 255 255 255 255 255 255 255 255 255 255 255 255 255 255 255 255 255 255 255 255 255 255 255 255 255 255 255 255 255 255 255 255 255 255 255 255 255 255 255 255 255 255 255 255 255 255 255 255 255 255 255 255 255 251 
251 255 255 255 255 255 255 255 255 255 255 255 255 255 255 255 255 255 255 255 255 255 255 255 255 255 255 255 255 255 255 255 255 255 255 255 255 255 255 255 255 255 255 255 255 255 255 255 255 255 255 255 255 255 255 255 255 255 255 255 255 255 255 255 255 255 255 255 255 255 255 255 255 255 255 255 255 255 255 255 255 255 255 255 255 255 255 255 255 255 255 255 255 255 255 255 255 255 255 255 255 255 255 255 255 255 255 255 255 255 255 255 255 255 255 255 255 255 255 255 255 255 255 255 255 255 255 251 
251 255 255 255 255 255 255 255 255 255 255 255 255 255 255 255 255 255 255 255 255 255 255 255 255 255 255 255 255 255 255 255 255 255 255 255 255 255 255 255 255 255 255 255 255 255 255 255 255 255 255 255 255 255 255 255 255 255 255 255 255 255 255 255 255 255 255 255 255 255 255 255 255 255 255 255 255 255 255 255 255 255 255 255 255 255 255 255 255 255 255 255 255 255 255 255 255 255 255 255 255 255 255 255 255 255 255 255 255 255 255 255 255 255 255 255 255 255 255 255 255 255 255 255 255 255 255 251 
251 255 255 255 255 255 255 255 255 255 255 255 255 255 255 255 255 255 255 255 255 255 255 255 255 255 255 255 255 255 255 255 255 255 255 255 255 255 255 255 255 255 255 255 255 255 255 255 255 255 255 255 255 255 255 255 255 255 255 255 255 255 255 255 255 255 255 255 255 255 255 255 255 255 255 255 255 255 255 255 255 255 255 255 255 255 255 255 255 255 255 255 255 255 255 255 255 255 255 255 255 255 255 255 255 255 255 255 255 255 255 255 255 255 255 255 255 255 255 255 255 255 255 255 255 255 255 251 
251 255 255 255 255 255 255 255 255 255 255 255 255 255 255 255 255 255 255 255 255 255 255 255 255 255 255 255 255 255 255 255 255 255 255 255 255 255 255 255 255 255 255 255 255 255 255 255 255 255 255 255 255 255 255 255 255 255 255 255 255 255 255 255 255 255 255 255 255 255 255 255 255 255 255 255 255 255 255 255 255 255 255 255 255 255 255 255 255 255 255 255 255 255 255 255 255 255 255 255 255 255 255 255 255 255 255 255 255 255 255 255 255 255 255 255 255 255 255 255 255 255 255 255 255 255 255 251 
251 255 255 255 255 255 255 255 255 255 255 255 255 255 255 255 255 255 255 255 255 255 255 255 255 255 255 255 255 255 255 255 255 255 255 255 255 255 255 255 255 255 255 255 255 255 255 255 255 255 255 255 255 255 255 255 255 255 255 255 255 255 255 255 255 255 255 255 255 255 255 255 255 255 255 255 255 255 255 255 255 255 255 255 255 255 255 255 255 255 255 255 255 255 255 255 255 255 255 255 255 255 255 255 255 255 255 255 255 255 255 255 255 255 255 255 255 255 255 255 255 255 255 255 255 255 255 251 
251 255 255 255 255 255 255 255 255 255 255 255 255 255 255 255 255 255 255 255 255 255 255 255 255 255 255 255 255 255 255 255 255 255 255 255 255 255 255 255 255 255 255 255 255 255 255 255 255 255 255 255 255 255 255 255 255 255 255 255 255 255 255 255 255 255 255 255 255 255 255 255 255 255 255 255 255 255 255 255 255 255 255 255 255 255 255 255 255 255 255 255 255 255 255 255 255 255 255 255 255 255 255 255 255 255 255 255 255 255 255 255 255 255 255 255 255 255 255 255 255 255 255 255 255 255 255 251 
251 255 255 255 255 255 255 255 255 255 255 255 255 255 255 255 255 255 255 255 255 255 255 255 255 255 255 255 255 255 255 255 255 255 255 255 255 255 255 255 255 255 255 255 255 255 255 255 255 255 255 255 255 255 255 255 255 255 255 255 255 255 255 255 255 255 255 255 255 255 255 255 255 255 255 255 255 255 255 255 255 255 255 255 255 255 255 255 255 255 255 255 255 255 255 255 255 255 255 255 255 255 255 255 255 255 255 255 255 255 255 255 255 255 255 255 255 255 255 255 255 255 255 255 255 255 255 251 
251 255 255 255 255 255 255 255 255 255 255 255 255 255 255 255 255 255 255 255 255 255 255 255 255 255 255 255 255 255 255 255 255 255 255 255 255 255 255 255 255 255 255 255 255 255 255 255 255 255 255 255 255 255 255 255 255 255 255 255 255 255 255 255 255 255 255 255 255 255 255 255 255 255 255 255 255 255 255 255 255 255 255 255 255 255 255 255 255 255 255 255 255 255 255 255 255 255 255 255 255 255 255 255 255 255 255 255 255 255 255 255 255 255 255 255 255 255 255 255 255 255 255 255 255 255 255 251 
251 255 255 255 255 255 255 255 255 255 255 255 255 255 255 255 255 255 255 255 255 255 255 255 255 255 255 255 255 255 255 255 255 255 255 255 255 255 255 255 255 255 255 255 255 255 255 255 255 255 255 255 255 255 255 255 255 255 255 255 255 255 255 255 255 255 255 255 255 255 255 255 255 255 255 255 255 255 255 255 255 255 255 255 255 255 255 255 255 255 255 255 255 255 255 255 255 255 255 255 255 255 255 255 255 255 255 255 255 255 255 255 255 255 255 255 255 255 255 255 255 255 255 255 255 255 255 251 
251 255 255 255 255 255 255 255 255 255 255 255 255 255 255 255 255 255 255 255 255 255 255 255 255 255 255 255 255 255 255 255 255 255 255 255 255 255 255 255 255 255 255 255 255 255 255 255 255 255 255 255 255 255 255 255 255 255 255 255 255 255 255 255 255 255 255 255 255 255 255 255 255 255 255 255 255 255 255 255 255 255 255 255 255 255 255 255 255 255 255 255 255 255 255 255 255 255 255 255 255 255 255 255 255 255 255 255 255 255 255 255 255 255 255 255 255 255 255 255 255 255 255 255 255 255 255 251 
251 255 255 255 255 255 255 255 255 255 255 255 255 255 255 255 255 255 255 255 255 255 255 255 255 255 255 255 255 255 255 255 255 255 255 255 255 255 255 255 255 255 255 255 255 255 255 255 255 255 255 255 255 255 255 255 255 255 255 255 255 255 255 255 255 255 255 255 255 255 255 255 255 255 255 255 255 255 255 255 255 255 255 255 255 255 255 255 255 255 255 255 255 255 255 255 255 255 255 255 255 255 255 255 255 255 255 255 255 255 255 255 255 255 255 255 255 255 255 255 255 255 255 255 255 255 255 251 
251 255 255 255 255 255 255 255 255 255 255 255 255 255 255 255 255 255 255 255 255 255 255 255 255 255 255 255 255 255 255 255 255 255 255 255 255 255 255 255 255 255 255 255 255 255 255 255 255 255 255 255 255 255 255 255 255 255 255 255 255 255 255 255 255 255 255 255 255 255 255 255 255 255 255 255 255 255 255 255 255 255 255 255 255 255 255 255 255 255 255 255 255 255 255 255 255 255 255 255 255 255 255 255 255 244 245 255 255 255 255 255 255 255 255 255 255 255 255 255 255 255 255 255 255 255 255 251 
251 255 255 255 255 255 255 255 255 255 255 255 255 255 255 255 255 255 255 255 255 255 255 255 255 255 255 255 255 255 255 255 255 255 255 255 255 255 255 255 255 255 255 255 255 255 255 255 255 255 255 255 255 255 255 255 255 255 255 255 255 255 255 255 255 255 255 255 255 255 255 255 255 255 255 255 255 255 255 255 255 255 255 255 255 255 255 255 255 255 255 255 255 255 255 255 255 255 255 255 255 255 255 255 249 213 136 234 255 255 255 255 255 255 255 255 255 255 255 255 255 255 255 255 255 255 255 251 
251 255 255 255 255 255 255 255 255 255 255 255 255 255 255 255 255 255 255 255 255 255 255 255 255 255 255 255 255 255 255 255 255 255 255 255 255 255 255 255 255 255 255 255 255 255 255 255 255 255 255 255 255 255 255 255 255 255 255 255 255 255 255 255 235 192 229 255 255 255 255 255 255 255 255 255 255 255 255 255 255 255 255 255 255 255 255 255 255 255 255 255 255 255 255 255 255 255 255 255 255 255 244 207 110 64 99 236 255 255 255 255 255 255 255 255 255 255 255 255 255 255 255 255 255 255 255 251 
251 255 255 255 255 255 255 255 255 255 255 255 255 255 255 255 255 255 255 255 255 255 255 255 255 255 235 150 209 255 255 255 255 255 255 255 255 255 255 255 255 255 255 255 255 255 255 255 255 255 255 255 255 255 255 255 255 255 255 255 255 255 255 247 139 28 152 255 255 255 255 255 255 255 255 255 255 255 255 255 255 255 255 255 255 255 255 255 255 255 255 255 255 255 255 255 255 255 252 193 163 112 62 22 0 0 14 92 201 244 250 255 255 255 255 255 255 255 255 255 255 255 255 255 255 255 255 251 
251 255 255 255 255 255 255 255 255 255 255 255 255 255 255 255 255 255 255 255 255 255 255 255 255 251 151 7 57 192 255 255 255 255 255 255 255 255 255 255 255 255 255 255 255 255 255 255 255 255 255 255 255 255 255 255 255 255 255 254 240 241 184 81 14 0 33 138 228 252 253 255 255 255 255 255 255 255 255 255 255 255 255 255 255 255 255 255 255 255 255 255 255 255 255 255 255 255 250 129 10 0 0 0 0 0 0 0 20 84 204 255 255 255 255 255 255 255 255 255 255 255 255 255 255 255 255 251 
251 255 255 255 255 255 255 255 255 255 255 255 255 255 255 255 255 255 255 255 255 247 248 231 165 82 19 0 0 110 252 255 255 255 255 255 255 255 255 255 255 255 255 255 255 255 255 255 255 255 255 255 255 255 255 255 255 255 255 253 157 67 14 0 0 0 0 1 42 117 225 255 255 255 255 255 255 255 255 255 255 255 255 255 255 255 255 255 255 255 255 255 255 255 255 255 255 255 255 214 29 0 0 0 0 0 0 0 3 128 246 255 255 255 255 255 255 255 255 255 255 255 255 255 255 255 255 251 
251 255 255 255 255 255 255 255 255 255 255 255 255 255 255 255 255 255 255 255 253 160 75 47 4 0 0 0 0 15 111 193 229 254 255 255 255 255 255 255 255 255 255 255 255 255 255 255 255 255 255 255 255 255 255 255 255 255 255 255 229 46 0 0 0 0 0 0 0 101 250 255 255 255 255 255 255 255 255 255 255 255 255 255 255 255 255 255 255 255 255 255 255 255 255 255 255 255 255 202 15 0 0 0 0 0 0 0 0 96 255 255 255 254 248 240 233 251 255 255 255 255 255 255 255 255 255 251 
251 255 255 255 255 255 255 255 255 255 255 255 255 255 255 255 255 255 255 255 255 226 46 0 0 0 0 0 0 0 0 57 205 255 255 255 255 255 255 255 255 255 255 255 255 255 255 255 255 255 255 255 255 255 255 255 255 255 255 255 238 85 12 0 0 0 0 0 0 33 210 255 255 255 255 255 255 255 255 255 255 255 255 255 255 255 255 255 255 255 255 255 255 255 255 255 255 244 183 157 24 0 0 0 0 0 0 0 0 78 185 179 171 165 165 146 109 207 255 255 255 255 255 255 255 255 255 251 
251 255 255 255 255 255 255 255 255 255 255 255 255 255 255 255 255 255 255 255 255 214 35 0 0 0 0 0 0 0 0 63 237 255 255 255 255 255 255 255 255 255 255 255 255 255 255 255 255 255 255 255 255 255 255 255 255 255 255 255 255 247 154 16 0 0 0 0 0 3 111 244 255 255 255 255 255 255 255 255 255 255 255 255 255 255 255 245 219 196 211 252 249 243 236 232 209 128 15 7 4 0 0 0 0 0 3 20 104 176 189 200 211 221 231 235 237 250 255 255 255 255 255 255 255 255 255 251 
251 255 255 255 255 255 255 255 255 255 255 255 255 255 255 255 255 255 255 255 255 249 197 83 0 0 0 0 0 0 0 2 151 255 255 255 255 255 255 255 255 255 255 255 255 255 255 255 255 255 255 255 255 255 255 242 196 188 229 235 197 173 108 21 0 0 0 0 3 17 140 244 255 255 255 255 255 255 255 255 255 255 255 255 255 255 244 131 32 10 27 103 147 153 134 82 37 2 0 0 0 0 0 0 0 0 3 41 139 236 255 255 255 255 255 255 255 255 255 255 255 255 255 255 255 255 255 251 
251 255 255 255 255 255 255 255 255 255 255 255 255 255 255 255 255 255 255 255 255 255 255 219 58 6 1 0 0 0 2 15 141 255 255 255 255 255 255 255 255 255 255 255 255 255 255 255 255 255 248 240 252 255 254 174 22 10 54 49 13 4 0 0 0 0 0 0 1 10 46 133 251 255 255 255 255 255 255 255 255 255 255 255 255 255 247 216 113 11 0 4 138 205 84 2 0 0 1 0 0 0 0 0 0 0 0 0 7 190 255 255 255 255 255 255 255 255 255 255 255 255 255 255 255 255 255 251 
251 255 255 255 255 255 255 255 255 255 255 255 255 255 255 255 255 255 255 255 255 255 255 209 73 15 1 0 0 46 144 199 243 255 255 255 255 255 255 255 255 255 255 255 255 255 255 255 255 255 182 55 85 98 92 60 8 0 0 0 0 0 0 0 0 0 0 0 0 0 58 195 255 255 255 255 255 255 255 255 255 255 255 255 255 255 255 255 249 162 31 0 19 31 0 9 67 103 24 0 0 0 0 0 0 0 5 34 95 230 255 255 255 255 255 255 255 255 255 255 255 255 255 255 255 255 255 251 
251 255 255 255 255 255 255 255 255 255 255 255 255 255 255 255 255 255 255 255 255 255 234 80 0 0 0 0 0 15 125 244 255 255 255 255 255 255 255 255 255 255 255 255 255 255 255 255 255 255 230 84 0 6 134 78 0 4 44 112 97 24 0 0 0 0 0 0 4 117 231 255 255 255 255 255 255 255 255 255 255 255 255 255 255 255 255 255 255 255 187 43 16 32 90 177 244 179 10 0 0 0 0 0 0 0 79 224 248 255 255 255 255 255 255 255 255 255 255 255 255 255 255 255 255 255 255 251 
251 255 255 255 255 255 255 255 255 255 255 255 255 255 255 255 255 255 255 254 243 221 105 0 0 0 0 0 0 0 41 231 255 255 255 255 255 255 255 255 255 255 255 255 255 255 255 255 255 255 255 241 163 156 242 136 97 166 230 255 255 152 4 0 0 0 0 0 6 167 255 255 255 255 255 255 255 255 255 255 255 255 255 255 255 255 255 255 255 255 255 224 207 224 251 255 255 109 0 0 0 0 0 0 0 6 168 255 255 255 255 255 255 255 255 255 255 255 255 255 255 255 255 255 255 255 255 251 
247 245 239 231 220 209 196 180 176 216 255 255 253 252 249 237 194 152 124 89 56 28 7 5 0 0 0 0 0 0 26 216 255 255 255 255 255 255 255 255 255 255 255 255 255 255 255 255 255 255 255 255 255 255 255 255 255 255 255 255 255 244 101 1 0 0 0 0 0 60 227 255 255 255 255 255 255 255 255 255 255 255 255 255 255 255 255 255 255 255 255 255 255 255 255 255 247 76 0 0 0 0 0 0 0 44 224 255 255 255 255 255 255 255 255 255 255 255 255 255 255 255 255 255 255 255 255 251 
79 64 51 39 28 19 12 6 3 40 129 106 98 93 78 55 32 16 36 68 104 141 178 122 4 0 0 0 0 0 6 156 255 255 255 255 255 255 255 255 255 255 255 255 255 255 255 255 255 255 255 255 255 255 255 255 255 255 255 255 255 250 133 6 0 0 0 0 0 98 245 255 255 255 255 255 255 255 255 255 255 255 255 255 255 255 255 255 255 255 255 255 255 255 255 255 255 132 2 0 0 0 0 0 1 114 248 255 255 255 255 255 255 255 255 255 255 255 255 255 255 255 255 255 255 255 255 251 
0 0 0 0 0 0 0 0 0 0 0 0 1 5 1 23 80 114 160 188 190 161 113 86 9 0 0 0 0 1 0 28 185 255 255 255 255 255 255 255 255 255 255 255 255 255 255 255 255 255 255 255 255 255 255 255 255 255 255 255 251 130 8 0 0 0 0 0 0 20 185 255 255 255 255 255 255 255 255 255 255 255 255 255 255 255 255 255 255 255 255 255 255 255 255 255 185 29 0 0 0 0 0 0 0 12 133 252 255 255 255 255 255 255 255 255 255 255 255 255 255 255 255 255 255 255 255 250 
100 64 31 10 0 0 0 0 0 0 0 0 0 0 0 0 2 7 11 12 9 2 0 0 0 10 12 0 0 0 0 0 83 239 255 255 255 255 255 255 255 255 255 255 255 255 255 255 255 255 255 255 255 255 255 255 255 255 255 255 160 11 0 0 0 0 0 0 0 0 92 252 255 255 255 255 255 255 255 255 255 255 255 255 255 255 255 255 255 255 255 255 255 255 255 231 57 0 0 0 0 0 0 0 0 0 13 176 255 255 255 255 255 255 255 255 255 255 255 255 255 255 255 255 255 255 255 251 
250 243 221 188 146 102 61 30 9 0 0 0 0 0 0 0 0 0 0 0 0 0 0 0 0 11 16 0 0 0 0 0 5 82 223 255 255 255 255 255 255 255 255 255 255 255 255 255 255 255 255 255 255 255 255 255 255 255 255 201 32 0 0 0 0 0 0 0 0 0 31 218 255 255 255 255 255 255 255 255 255 255 255 255 255 255 255 255 255 255 255 255 255 255 251 115 0 0 0 0 0 0 0 0 0 0 0 51 224 255 255 255 255 255 255 255 255 255 255 255 255 255 255 255 255 255 255 251 
251 255 255 255 255 255 242 219 186 144 98 59 28 8 0 0 0 0 0 0 0 0 0 0 0 0 0 0 0 0 0 0 0 0 83 239 255 255 255 255 255 255 255 255 255 255 255 255 255 255 255 255 255 255 255 255 255 255 229 64 0 0 0 0 0 0 0 0 0 0 0 134 255 255 255 255 255 255 255 255 255 255 255 255 255 255 255 255 255 255 255 255 255 253 147 10 0 0 0 0 0 0 0 0 0 0 0 0 95 244 255 255 255 255 255 255 255 255 255 255 255 255 255 255 255 255 255 251 
250 255 255 255 255 255 255 255 255 255 254 241 217 183 141 96 56 26 7 0 0 0 0 0 0 0 0 0 0 0 0 0 0 0 2 123 250 255 255 255 255 255 255 255 255 255 255 255 255 255 255 255 255 255 255 255 255 239 93 0 0 0 0 0 0 0 0 0 0 0 0 32 210 255 255 255 255 255 255 255 255 255 255 255 255 255 255 255 255 255 255 255 244 133 14 0 0 0 0 0 0 0 0 0 0 0 0 0 4 117 243 255 255 255 255 255 255 255 255 255 255 255 255 255 255 255 255 251 
250 254 255 255 255 255 255 255 255 255 255 255 255 255 255 253 240 216 180 138 93 64 61 33 0 0 0 0 0 0 0 0 0 0 0 8 141 253 255 255 255 255 255 255 255 255 255 255 255 255 255 255 255 255 255 255 247 111 1 0 0 0 0 0 0 0 0 0 0 0 0 0 95 248 255 255 255 255 255 255 255 255 255 255 255 255 255 255 255 255 255 242 105 4 0 0 0 0 0 0 0 0 0 0 0 0 0 0 0 2 103 242 255 255 255 255 255 255 255 255 255 255 255 255 255 255 255 251 
250 254 255 255 255 255 255 255 255 255 255 255 255 255 255 255 255 255 255 255 253 246 183 38 0 0 0 0 0 0 0 0 0 0 0 0 13 148 253 255 255 255 255 255 255 255 255 255 255 255 255 255 255 255 255 255 194 14 0 0 0 0 0 0 0 0 0 0 0 0 0 0 18 203 255 255 255 255 255 255 255 255 255 255 255 255 255 255 255 255 255 222 43 0 0 0 0 0 0 0 0 0 0 0 0 0 0 0 0 0 0 129 251 255 255 255 255 255 255 255 255 255 255 255 255 255 255 251 
250 254 255 255 255 255 255 255 255 255 255 255 255 255 255 255 255 255 255 255 255 205 37 0 0 0 0 0 0 0 0 0 0 0 0 0 0 11 136 250 255 255 255 255 255 255 255 255 255 255 255 255 255 255 255 255 236 151 85 42 17 5 0 0 0 0 0 0 0 0 0 0 37 217 255 255 255 255 255 255 255 255 255 255 255 255 255 255 255 255 255 255 195 90 31 7 0 0 0 0 0 0 0 0 0 0 0 0 0 15 56 143 249 255 255 255 255 255 255 255 255 255 255 255 255 255 255 251 
250 254 255 255 255 255 255 255 255 255 255 255 255 255 255 255 255 255 255 255 255 198 55 9 0 0 0 0 0 0 0 0 0 0 0 0 2 17 85 237 255 255 255 255 255 255 255 255 255 255 255 255 255 255 255 255 255 255 250 231 205 97 0 0 52 92 53 0 0 26 79 123 202 253 255 255 255 255 255 255 255 255 255 255 255 255 255 255 255 255 255 255 255 251 220 182 152 100 9 0 0 29 62 75 107 130 42 0 0 68 234 255 255 255 255 255 255 255 255 255 255 255 255 255 255 255 255 250 
250 254 255 255 255 255 255 255 255 255 255 255 255 255 255 255 255 255 255 255 255 255 177 32 0 0 0 10 21 15 14 23 44 53 67 106 159 207 241 255 255 255 255 255 255 255 255 255 255 255 255 255 255 255 255 255 255 255 255 255 255 112 0 10 183 255 207 31 0 44 228 255 255 255 255 255 255 255 255 255 255 255 255 255 255 255 255 255 255 255 255 255 255 255 255 255 255 223 29 0 4 157 246 248 255 255 189 28 0 18 183 255 255 255 255 255 255 255 255 255 255 255 255 255 255 255 255 250 
250 254 255 255 255 255 255 255 255 255 255 255 255 255 255 255 255 255 255 255 255 179 30 0 0 0 7 128 213 203 200 213 234 240 246 255 255 255 255 255 255 255 255 255 255 255 255 255 255 255 255 255 255 255 255 255 255 255 255 255 255 143 0 50 234 255 255 127 0 38 222 255 255 255 255 255 255 255 255 255 255 255 255 255 255 255 255 255 255 255 255 255 255 255 255 255 255 181 10 0 31 219 255 255 255 255 255 147 2 0 56 232 255 255 255 255 255 255 255 255 255 255 255 255 255 255 255 250 
250 254 255 255 255 255 255 255 255 255 255 255 255 255 255 255 255 255 255 255 255 112 0 0 0 0 0 34 155 254 255 255 255 255 255 255 255 255 255 255 255 255 255 255 255 255 255 255 255 255 255 255 255 255 255 255 255 255 255 255 255 113 0 60 240 255 255 171 4 10 184 255 255 255 255 255 255 255 255 255 255 255 255 255 255 255 255 255 255 255 255 255 255 255 255 255 255 129 0 0 62 243 255 255 255 255 255 230 47 0 3 168 255 255 255 255 255 255 255 255 255 255 255 255 255 255 255 250 
250 254 255 255 255 255 255 255 255 255 255 255 255 255 255 255 255 255 255 255 255 226 127 45 5 0 0 0 9 139 240 255 255 255 255 255 255 255 255 255 255 255 255 255 255 255 255 255 255 255 255 255 255 255 255 255 255 252 240 229 221 105 0 74 220 228 236 164 5 0 137 255 255 255 255 255 255 255 255 255 255 255 255 255 255 255 255 255 255 255 255 255 255 255 255 255 255 155 1 0 90 252 255 255 255 255 255 255 144 2 0 122 255 255 255 255 255 255 255 255 255 255 255 255 255 255 255 250 
250 254 255 255 255 255 255 255 255 255 255 255 255 255 255 255 255 255 255 255 255 255 255 229 166 88 27 0 0 7 64 165 242 255 255 255 255 255 255 255 255 255 255 255 255 255 255 255 255 255 255 255 255 255 255 255 246 169 108 95 87 27 0 8 70 96 102 57 0 0 34 138 171 218 253 255 255 255 255 255 255 255 255 255 255 255 255 255 255 255 255 255 255 255 255 255 255 218 34 0 126 255 255 255 255 255 255 255 236 63 0 77 244 255 255 255 255 255 255 255 255 255 255 255 255 255 255 250 
250 254 255 255 255 255 255 255 255 255 255 255 255 255 255 255 255 255 255 255 255 255 255 255 255 251 216 144 45 0 0 6 121 227 254 255 255 255 255 255 255 255 255 255 255 255 255 255 255 255 255 255 255 255 255 255 246 181 125 96 81 39 12 9 31 72 73 52 24 21 34 74 107 190 252 255 255 255 255 255 255 255 255 255 255 255 255 255 255 255 255 255 255 255 255 255 255 222 36 0 93 250 255 255 255 255 255 255 255 118 0 9 164 255 255 255 255 255 255 255 255 255 255 255 255 255 255 250 
250 255 255 255 255 255 255 255 255 255 255 255 255 255 255 255 255 255 255 255 255 255 255 255 255 241 199 135 56 0 0 0 2 36 118 230 252 255 255 255 255 255 255 255 255 255 255 255 255 255 255 255 255 255 255 254 250 245 236 212 183 155 107 70 70 74 74 74 73 72 80 150 224 252 255 255 255 255 255 255 255 255 255 255 255 255 255 255 255 255 255 255 255 255 255 255 255 238 67 0 93 253 255 255 255 255 255 255 255 207 31 0 148 255 255 255 255 255 255 255 255 255 255 255 255 255 255 250 
251 255 255 255 255 255 255 255 255 255 255 255 255 255 255 255 255 255 255 255 255 255 255 235 155 57 16 0 3 3 0 0 0 0 28 102 140 189 238 254 255 255 255 255 255 255 255 255 255 255 255 255 255 255 255 243 167 119 120 146 146 122 87 75 74 74 74 74 74 74 77 105 157 229 255 255 255 255 255 255 255 255 255 255 255 255 255 255 255 255 255 255 253 237 221 207 204 188 43 0 54 187 216 222 229 236 243 249 255 168 7 0 60 221 255 255 255 255 255 255 255 255 255 255 255 255 255 251 
236 240 240 240 240 240 238 230 231 239 240 240 240 240 240 240 240 240 238 234 224 211 200 137 55 28 32 27 13 3 0 0 12 43 67 70 69 79 135 220 241 240 240 240 240 240 240 240 240 240 240 240 240 240 240 237 181 89 71 120 193 154 78 71 72 72 72 72 71 72 75 108 187 230 240 240 240 240 240 240 240 240 240 240 240 240 240 240 240 240 240 241 223 135 91 81 79 73 17 0 0 18 66 92 98 107 120 141 159 113 3 0 0 80 229 240 240 240 240 240 240 240 240 240 240 240 240 235 
