P2
128 48
255
236 240 240 240 240 240 240 240 240 240 240 240 240 240 240 240 240 240 240 240 240 240 240 240 240 240 240 240 240 240 240 240 240 240 240 240 240 241 244 240 208 104 11 0 0 0 0 0 0 0 0 0 0 0 0 0 0 0 0 0 0 0 0 0 0 0 0 0 0 0 0 0 0 0 0 0 0 0 0 0 0 0 0 0 0 0 0 0 0 0 0 0 0 17 155 241 203 32 0 0 0 0 0 0 0 0 0 0 0 140 243 240 240 240 240 240 240 240 240 240 240 240 240 240 240 240 240 236 
251 255 255 255 255 255 255 255 255 255 255 255 255 255 255 255 255 255 255 255 255 255 255 255 255 255 255 255 255 255 255 255 255 255 255 255 255 238 185 108 41 6 1 0 0 0 0 0 0 0 0 0 0 0 0 0 0 0 0 0 0 0 0 0 0 0 0 0 0 0 0 0 0 0 0 0 0 0 0 0 0 0 0 0 0 0 0 0 0 0 0 0 29 163 252 255 210 25 0 0 0 0 0 0 0 0 0 0 1 153 255 255 255 255 255 255 255 255 255 255 255 255 255 255 255 255 255 251 
250 255 255 255 255 255 255 255 255 255 255 255 255 255 255 255 255 255 255 255 255 255 255 255 255 255 255 255 255 255 255 255 255 255 255 255 255 209 133 118 128 127 22 0 0 0 0 0 0 0 0 0 0 0 0 8 7 0 0 0 0 0 0 0 0 0 0 0 0 0 0 0 0 0 0 0 0 0 0 0 0 0 0 0 0 0 0 0 0 0 0 54 195 255 255 255 185 11 0 0 0 0 0 0 0 0 0 0 0 67 237 255 255 255 255 255 255 255 255 255 255 255 255 255 255 255 255 250 
250 255 255 255 255 255 255 255 255 255 255 255 255 255 255 255 255 255 255 255 255 255 255 255 255 255 255 255 255 255 255 255 255 255 255 255 255 255 255 255 255 186 8 6 1 0 0 0 0 0 0 0 0 0 0 18 67 51 18 1 0 0 0 0 0 0 0 0 0 0 0 0 0 0 0 0 0 0 0 0 0 0 0 0 0 0 0 0 0 0 19 199 255 255 255 255 136 0 0 0 0 0 0 0 0 0 0 0 0 18 204 255 255 255 255 255 255 255 255 255 255 255 255 255 255 255 255 250 
250 255 255 255 255 255 255 255 255 255 255 255 255 255 255 255 255 255 255 255 255 255 255 255 255 255 255 255 255 255 255 255 255 255 255 255 255 255 255 255 255 122 49 152 49 0 0 0 0 0 0 0 0 0 0 1 27 92 127 93 54 23 6 0 0 0 0 0 0 0 0 0 0 0 0 0 0 0 0 0 0 0 0 0 0 0 0 0 0 54 72 194 255 255 255 250 86 0 0 0 0 0 0 0 0 0 0 0 0 0 144 255 255 255 255 255 255 255 255 255 255 255 255 255 255 255 255 251 
250 255 255 255 255 255 255 255 255 255 255 255 255 255 255 255 255 255 255 255 255 255 255 255 255 255 255 255 255 255 255 255 255 255 255 255 255 255 255 255 252 190 218 255 147 1 0 0 0 0 0 0 0 0 0 0 0 8 46 86 110 122 106 81 57 37 20 10 6 2 2 0 0 0 0 0 0 0 0 0 0 0 0 0 0 0 0 0 0 27 97 178 234 251 255 231 46 0 0 0 0 0 0 0 0 0 0 0 0 0 80 249 255 255 255 255 255 255 255 255 255 255 255 255 255 255 255 251 
250 255 255 255 255 255 255 255 255 255 255 255 255 255 255 255 255 255 255 255 255 255 255 255 255 255 255 255 255 255 255 255 255 255 255 255 255 255 255 255 255 255 255 255 230 63 38 0 0 8 0 0 0 0 0 0 0 0 0 0 7 24 42 58 72 69 51 35 18 6 5 1 0 0 0 0 0 0 0 0 0 0 0 0 0 0 0 0 60 119 104 112 157 227 255 201 19 0 0 0 0 0 0 0 0 0 0 0 0 0 35 224 255 255 255 255 255 255 255 255 255 255 255 255 255 255 255 251 
254 255 255 255 255 255 255 255 255 255 255 255 255 255 255 255 255 255 255 255 255 255 255 255 255 255 255 255 255 255 255 255 255 255 255 255 255 255 255 255 255 255 255 255 255 211 154 54 16 74 28 3 3 0 1 0 0 0 0 0 0 0 0 0 0 0 0 0 0 0 0 0 0 0 0 0 0 0 0 0 0 0 0 0 0 0 7 0 128 255 255 252 251 254 255 179 11 0 0 0 0 0 0 0 0 0 0 0 0 0 8 184 255 255 255 255 255 255 255 255 255 255 255 255 255 255 255 239 
154 199 232 253 255 255 255 255 255 255 255 255 255 255 255 255 255 255 255 255 255 255 255 255 255 255 255 255 255 255 255 255 255 255 255 255 255 255 255 255 255 255 255 255 255 255 239 212 108 160 108 45 41 31 18 0 0 17 4 0 0 0 0 0 0 0 0 0 0 0 0 0 4 1 0 0 0 0 0 7 5 0 1 8 0 68 157 36 94 254 255 255 255 255 255 174 9 0 0 0 0 0 0 0 0 0 0 0 0 0 0 140 255 255 255 255 255 255 255 255 255 255 255 245 211 165 109 61 
1 14 43 94 155 209 244 255 255 255 255 255 255 255 255 255 255 255 255 255 255 255 255 255 255 255 255 255 255 255 255 255 255 255 255 255 255 255 255 255 255 255 255 255 255 255 255 255 230 232 194 113 145 150 28 15 14 68 13 0 0 0 0 0 0 0 0 0 0 37 40 12 41 0 0 16 72 4 0 50 14 0 21 111 88 224 255 193 133 248 255 255 255 255 255 191 17 0 0 0 0 0 0 0 0 0 0 0 0 0 16 108 253 255 255 255 255 255 255 255 236 192 130 67 21 0 0 0 
0 2 0 0 0 19 64 126 192 236 255 255 255 255 255 255 255 255 255 255 255 255 255 255 255 255 255 255 255 255 255 255 255 255 255 255 255 255 255 255 255 255 255 255 255 255 255 255 255 255 248 223 249 213 47 136 103 101 10 0 0 0 0 0 0 0 0 0 8 131 85 69 59 0 14 151 193 12 6 88 37 71 140 226 241 255 255 255 250 255 255 255 255 255 255 234 58 0 0 0 0 0 0 0 0 0 0 0 0 0 71 148 245 255 255 255 250 224 173 109 49 9 0 0 15 40 67 46 
6 96 145 113 71 31 2 0 9 49 108 167 219 246 255 255 255 255 255 255 255 255 255 255 255 255 255 255 255 255 255 255 255 255 255 255 255 255 255 255 255 255 255 255 255 255 255 255 255 255 255 255 255 228 184 201 36 16 1 0 0 0 0 0 0 0 0 0 4 19 38 167 60 49 157 255 236 92 47 108 114 237 253 255 255 255 255 255 255 255 255 255 255 255 255 255 133 3 0 0 0 0 0 0 0 0 0 0 0 9 177 245 243 227 193 142 81 34 3 0 4 43 101 160 205 221 159 58 
0 30 124 239 249 223 174 104 36 0 0 3 29 68 112 159 196 220 235 244 250 254 255 255 255 255 255 255 254 251 248 244 237 228 216 204 203 231 255 255 255 255 255 255 255 255 255 255 255 255 255 255 255 246 233 200 56 0 0 0 0 0 0 0 0 0 0 0 0 0 79 194 150 224 255 255 255 243 140 151 190 255 255 255 255 255 255 255 255 239 171 143 159 175 187 200 174 35 0 0 0 0 0 0 0 0 0 0 0 24 124 111 72 36 11 0 0 0 30 99 176 232 255 255 252 130 9 0 
0 0 2 118 247 255 255 255 225 160 71 3 0 0 0 0 11 26 44 59 75 92 97 96 96 96 96 97 94 80 71 60 47 35 24 16 14 52 182 255 255 255 255 255 255 255 255 251 232 203 171 135 97 65 40 18 3 0 0 0 0 0 0 0 0 0 0 0 0 0 4 21 46 72 105 146 185 222 218 236 251 255 255 255 255 255 255 255 218 77 4 0 0 4 8 13 19 9 0 0 0 0 0 0 0 0 0 0 0 0 0 0 0 0 0 0 0 93 222 254 255 255 255 253 154 14 0 0 
0 0 0 12 149 251 255 255 255 255 185 13 0 0 2 18 24 21 22 24 25 25 25 23 19 15 9 6 2 0 0 0 0 0 0 0 0 0 22 158 253 255 255 255 238 192 136 82 41 16 3 0 0 0 0 0 0 0 0 0 0 0 0 0 0 0 0 0 0 0 0 0 0 0 0 0 8 30 73 130 196 242 255 255 255 255 255 202 55 0 0 0 0 0 0 0 0 0 0 2 1 0 0 0 0 0 0 3 64 89 90 90 64 12 0 0 0 99 212 250 255 255 255 192 29 0 0 0 
0 0 0 0 56 224 255 255 218 109 41 2 0 0 3 57 154 213 216 219 220 221 221 219 214 209 202 188 129 15 0 0 1 57 70 8 0 0 0 13 131 240 216 134 55 12 0 0 0 0 0 0 0 0 0 0 0 0 0 0 0 0 0 0 0 0 0 0 0 0 0 0 0 0 0 0 0 0 0 0 14 64 150 230 255 255 179 38 0 0 0 1 59 141 60 1 0 0 0 12 11 0 0 0 5 7 0 81 236 254 250 146 38 3 0 0 0 1 20 124 250 255 255 184 23 0 0 0 
0 0 0 0 108 245 255 239 80 0 0 0 0 0 0 0 34 195 255 255 255 255 255 255 255 255 183 89 33 3 0 0 12 146 242 166 50 0 0 0 4 62 34 0 0 0 0 0 0 0 0 0 0 0 0 0 0 0 0 0 0 0 0 0 0 0 0 0 0 0 0 0 0 0 0 0 0 0 0 0 0 0 1 52 158 130 18 0 0 0 27 133 236 230 84 3 0 0 0 2 2 0 0 0 51 36 21 191 255 255 170 16 0 0 0 0 0 0 0 12 172 255 255 235 77 0 0 0 
0 0 0 24 184 255 253 134 2 0 0 0 0 0 0 0 0 57 220 255 255 255 255 255 255 185 23 0 0 0 0 0 0 22 176 255 228 127 25 0 0 0 0 0 0 0 0 0 0 0 0 0 0 0 0 0 0 0 0 0 0 0 0 0 0 0 0 0 0 0 0 0 0 0 0 0 0 0 0 0 0 0 0 0 3 1 0 0 7 91 209 255 247 96 0 0 0 0 0 0 0 0 1 2 113 85 173 248 255 204 39 0 0 0 0 0 0 0 0 0 42 214 255 255 151 11 0 0 
0 0 0 81 234 255 208 24 0 0 0 0 0 0 0 0 0 0 101 247 255 255 255 255 214 46 0 0 0 0 0 0 0 0 42 212 251 185 50 0 0 0 0 0 0 0 0 0 0 0 0 0 0 0 0 0 0 0 0 0 0 0 0 0 0 0 0 0 0 0 0 0 0 0 0 0 0 0 0 0 0 0 0 0 0 0 0 0 11 93 176 230 147 6 0 0 0 0 0 0 0 0 0 44 192 216 255 255 251 105 0 0 0 0 0 0 0 0 0 0 0 151 255 255 213 49 0 0 
0 0 14 158 253 255 228 48 0 0 0 0 0 0 0 0 0 0 94 245 255 255 255 241 78 0 0 0 0 0 0 0 0 0 0 64 84 13 0 0 0 0 0 0 0 0 0 0 0 0 0 0 0 0 0 0 0 0 0 0 0 0 0 0 0 0 0 0 0 0 0 0 0 0 0 0 0 0 0 0 0 0 0 0 0 0 0 0 0 0 5 40 19 0 0 0 0 0 0 0 0 0 0 65 242 255 255 255 255 155 8 0 0 0 0 0 0 0 0 0 42 222 255 255 247 112 3 0 
0 0 59 219 255 255 255 149 3 0 0 0 0 0 0 0 0 16 179 255 255 255 255 241 62 0 0 0 0 0 0 0 0 0 0 0 0 0 0 0 0 0 0 0 0 0 0 0 0 0 0 0 0 0 0 0 0 0 0 0 0 0 0 0 0 0 0 0 0 0 0 0 0 0 0 0 0 0 0 0 0 0 0 0 0 0 0 0 0 0 0 0 0 0 0 0 0 0 0 0 0 0 0 109 253 255 255 255 255 224 50 0 0 0 0 0 0 0 0 2 145 255 255 255 255 182 28 0 
0 6 130 248 255 255 255 235 57 0 0 0 0 0 0 0 0 72 236 255 255 255 255 255 153 3 0 0 1 1 1 1 0 0 0 0 1 1 1 1 1 1 1 1 1 1 1 1 1 1 1 1 1 1 1 1 1 1 1 1 1 1 1 1 1 1 1 1 1 1 1 1 1 1 1 1 1 1 1 1 1 1 1 1 1 1 1 1 1 1 1 1 1 1 1 1 1 1 1 1 1 0 16 193 255 255 255 255 255 253 126 2 1 1 1 1 1 1 0 56 233 255 255 255 255 231 78 0 
0 40 198 255 255 255 255 255 157 5 1 1 1 1 1 1 8 155 255 255 255 255 255 255 227 43 0 1 1 1 1 2 2 2 2 2 2 2 2 2 2 2 2 3 3 3 3 3 3 3 3 4 4 3 3 4 4 4 4 4 4 4 5 5 5 5 5 5 6 6 6 6 6 6 6 6 5 5 5 5 5 5 5 5 5 5 5 5 5 5 5 5 5 5 5 5 5 5 5 5 5 1 79 246 255 255 255 255 255 255 202 35 3 5 5 5 4 4 9 163 255 255 255 255 255 253 145 16 
3 102 238 255 255 255 255 255 238 65 1 5 5 5 5 3 56 222 255 255 255 255 255 255 255 126 6 9 9 10 10 10 11 11 11 12 12 12 13 13 14 14 15 15 15 16 17 18 18 19 19 20 21 22 22 23 24 25 25 26 26 27 28 29 29 30 31 32 33 34 34 34 34 34 34 34 34 34 34 34 34 34 34 35 35 35 35 35 35 35 35 35 35 35 35 35 34 34 34 34 34 36 171 255 255 255 255 255 255 255 247 113 27 28 28 28 28 25 86 241 255 255 255 255 255 255 208 68 
34 174 254 255 255 255 255 255 255 170 28 25 28 29 30 34 143 252 255 255 255 255 255 255 255 214 71 57 61 63 66 68 70 74 78 81 82 85 89 92 94 96 100 103 108 110 112 115 118 121 125 126 129 132 134 138 143 144 147 148 150 152 154 157 160 161 163 165 167 168 169 170 170 170 171 171 172 174 175 175 175 175 175 175 175 175 175 175 175 175 175 175 174 176 172 169 169 169 169 169 168 178 242 255 255 255 255 255 255 255 255 217 162 159 159 159 159 159 214 255 255 255 255 255 255 255 246 182 
126 230 255 255 255 255 255 255 255 244 162 146 151 157 161 171 231 255 255 255 255 255 255 255 255 253 219 211 214 219 221 222 224 227 231 232 233 234 237 240 240 241 242 244 246 247 248 248 249 251 252 252 252 252 253 254 255 255 255 255 255 255 255 255 255 255 255 255 255 255 255 255 255 255 255 255 255 255 255 255 255 255 255 255 255 255 255 255 255 255 255 255 255 255 255 255 255 255 255 255 255 255 255 255 255 255 255 255 255 255 255 255 255 255 255 255 255 255 255 255 255 255 255 255 255 255 255 251 
240 254 255 255 255 255 255 255 255 255 255 255 255 255 255 255 255 255 255 255 255 255 255 255 255 255 255 255 255 255 255 255 255 255 255 255 255 255 255 255 255 255 255 255 255 255 255 255 255 255 255 255 255 255 255 255 255 255 255 255 255 255 255 255 255 255 255 255 255 255 255 255 255 255 255 255 255 255 255 255 255 255 255 255 255 255 255 255 255 255 255 255 255 255 255 255 255 255 255 255 255 255 255 255 255 255 255 255 255 255 255 255 255 255 255 255 255 255 255 255 255 255 255 255 255 255 255 250 
252 255 255 255 255 255 255 255 255 255 255 255 255 255 255 255 255 255 255 255 255 255 255 255 255 255 255 255 255 255 255 255 255 255 255 255 255 255 255 255 255 255 255 255 255 255 255 255 255 255 255 255 255 255 255 255 255 255 255 255 255 255 255 255 255 255 255 255 255 255 255 255 255 255 255 255 255 255 255 255 255 255 255 255 255 255 255 255 255 255 255 255 255 255 255 255 255 255 255 255 255 255 255 255 255 255 255 255 255 255 255 255 255 255 255 255 255 255 255 255 255 255 255 255 255 255 255 250 
251 255 255 255 255 255 255 255 255 255 255 255 255 255 255 255 255 255 255 255 255 255 255 255 255 255 255 255 255 255 255 255 255 255 255 255 255 255 255 255 254 254 253 253 253 253 252 250 250 249 249 248 248 247 246 245 244 243 243 243 242 242 242 241 240 239 239 237 237 236 235 234 233 233 233 233 231 231 231 230 230 230 228 227 227 227 227 227 227 227 228 228 228 227 235 255 239 227 228 233 251 255 255 255 255 255 255 255 255 255 255 255 255 248 233 240 255 255 255 255 255 255 255 255 255 255 255 250 
251 255 255 255 255 255 255 255 255 255 255 255 250 240 252 255 255 255 255 255 255 255 255 255 255 255 255 253 199 173 172 173 166 163 158 154 151 150 148 145 141 137 135 133 131 130 126 123 120 117 116 114 113 110 108 106 103 102 100 99 98 97 97 95 94 92 91 89 88 87 84 82 80 79 79 79 78 78 78 78 78 78 77 77 77 76 76 76 76 76 76 76 76 76 88 206 202 85 73 123 246 255 255 255 255 255 255 255 255 255 255 255 255 236 174 210 255 255 255 255 255 255 255 255 255 255 255 250 
251 255 255 255 255 255 255 255 255 255 255 255 250 240 253 255 255 255 255 255 255 255 255 255 255 255 255 255 154 34 36 34 31 29 28 27 27 26 25 24 24 23 22 21 21 20 20 20 19 18 18 17 17 16 16 16 15 15 15 15 14 14 14 14 14 14 14 14 13 12 12 12 11 11 11 11 11 11 11 11 11 11 11 11 11 10 10 10 10 10 10 11 10 11 8 73 220 90 14 156 255 255 255 255 255 255 255 255 255 255 255 255 255 255 252 254 255 255 255 255 255 255 255 255 255 255 255 250 
251 255 255 255 255 255 255 255 255 255 255 255 255 255 255 255 255 255 255 255 255 255 255 255 255 255 255 255 232 88 7 5 5 5 5 4 4 5 5 4 4 4 3 3 3 3 4 4 3 3 3 3 3 3 3 3 3 3 3 3 3 3 3 3 3 3 3 2 2 2 2 2 2 2 2 2 2 2 2 2 2 2 2 2 2 2 2 2 2 2 2 2 2 2 2 2 130 219 169 241 255 255 255 255 255 255 255 255 255 255 255 255 255 255 255 255 255 255 255 255 255 255 255 255 255 255 255 250 
251 255 255 255 255 255 255 255 255 255 255 255 255 255 255 255 255 255 255 255 255 255 255 255 255 255 255 255 251 104 0 1 1 1 1 1 1 1 1 1 1 1 1 1 1 1 1 1 1 1 1 1 1 1 1 1 1 1 1 1 1 1 1 1 1 1 1 1 1 1 1 1 1 1 1 1 1 1 0 0 0 0 0 0 0 0 0 0 0 0 0 0 0 0 0 0 22 196 255 255 255 255 255 255 255 255 255 255 255 255 255 255 255 255 255 255 255 255 255 255 255 255 255 255 255 255 255 250 
251 255 255 255 255 255 255 255 255 255 255 255 255 255 255 255 255 255 255 255 255 255 255 255 255 255 255 255 180 14 0 0 0 0 0 0 0 0 0 0 0 0 0 0 0 0 0 0 0 0 0 0 0 0 0 0 0 0 0 0 0 0 0 0 0 0 0 0 0 0 0 0 0 0 0 0 0 0 0 0 0 0 0 0 0 0 0 0 0 0 0 0 0 0 0 0 0 79 243 255 255 255 255 255 255 255 255 255 255 255 255 255 255 255 255 255 255 255 255 255 255 255 255 255 255 255 255 250 
251 255 255 255 255 255 255 255 255 255 255 255 255 255 255 255 255 255 255 255 255 255 255 255 255 255 255 237 63 0 0 0 0 0 0 0 0 0 0 0 0 27 9 0 0 0 0 0 0 0 0 0 0 0 0 0 0 0 0 0 0 0 0 0 0 0 0 0 0 0 0 0 0 0 0 0 0 0 0 0 0 0 0 0 0 0 0 0 0 0 0 0 0 0 0 0 0 8 171 255 255 255 255 255 255 255 255 255 255 255 255 255 255 255 255 255 255 255 255 255 255 255 255 255 255 255 255 250 
251 255 255 255 255 255 255 255 255 255 255 255 255 255 255 255 255 255 255 255 255 255 255 255 255 255 255 153 4 0 0 0 0 0 0 0 0 0 0 0 27 96 5 0 0 0 0 0 0 0 0 0 0 0 0 0 0 0 0 0 0 0 0 0 0 0 0 0 0 0 0 0 0 0 0 0 0 0 0 0 0 0 0 0 0 0 0 0 0 0 0 0 0 0 0 0 0 0 70 242 255 255 255 255 255 255 255 255 255 255 255 255 255 255 255 255 255 255 255 255 255 255 255 255 255 255 255 250 
251 255 255 255 255 255 255 255 255 255 255 255 255 255 255 255 255 255 255 255 255 255 255 255 255 255 234 54 0 0 0 0 0 0 0 0 0 0 0 3 138 114 0 0 0 0 0 0 0 0 0 0 0 0 0 0 0 0 0 0 0 0 0 0 0 0 0 0 0 0 0 0 0 0 0 0 0 0 0 0 0 0 0 0 0 0 0 0 0 0 0 0 0 0 0 0 0 0 10 180 255 255 255 255 255 255 255 255 255 255 255 255 255 255 255 255 255 255 255 255 255 255 255 255 255 255 255 250 
251 255 255 255 255 255 255 255 255 255 255 255 255 255 255 255 255 255 255 255 255 255 255 255 255 255 165 5 0 0 0 0 0 0 0 0 0 0 0 80 240 102 0 0 0 0 0 0 0 0 0 0 0 0 0 0 0 0 0 0 0 0 0 0 0 0 0 0 0 0 0 0 0 0 0 0 0 0 0 0 0 0 0 0 0 3 33 2 0 0 0 0 0 0 0 0 0 0 0 98 253 255 255 255 255 255 255 255 255 255 255 255 255 255 255 255 255 255 255 255 255 255 255 255 255 255 255 250 
251 255 255 255 255 255 255 255 255 255 255 255 255 255 255 255 255 255 255 255 255 255 255 255 255 253 89 0 0 0 0 0 0 0 0 0 0 0 36 207 255 120 0 0 0 0 0 0 0 0 0 0 0 0 0 0 0 0 0 0 0 0 0 0 0 0 0 0 0 0 0 0 0 0 0 0 0 0 0 0 0 0 0 0 0 13 162 57 0 0 0 0 0 0 0 0 0 0 0 41 231 255 255 255 255 255 255 255 255 255 255 255 255 255 255 255 255 255 255 255 255 255 255 255 255 255 255 250 
251 255 255 255 255 255 255 255 255 255 255 255 255 255 255 255 255 255 255 255 255 255 255 255 245 196 30 0 0 0 0 0 0 0 0 0 0 11 163 255 255 157 1 0 0 0 0 0 0 0 0 0 0 0 0 0 0 0 0 0 0 0 0 0 0 0 0 0 0 0 0 0 0 0 0 0 0 0 0 0 0 0 0 0 0 26 220 185 19 0 0 0 0 0 0 0 0 0 0 11 171 244 255 255 255 255 255 255 255 255 255 255 255 255 255 255 255 255 255 255 255 255 255 255 255 255 255 250 
251 255 255 255 255 255 255 255 255 255 255 255 255 255 255 255 255 255 255 255 246 213 165 110 62 24 0 0 0 0 0 0 0 0 0 0 0 116 250 255 255 190 10 0 0 0 0 0 0 0 0 0 0 0 0 0 0 0 0 0 0 0 0 0 0 0 0 0 0 0 0 0 0 0 0 0 0 0 0 0 0 0 0 0 0 47 235 255 133 3 0 0 0 0 0 0 0 0 0 0 21 57 99 153 202 237 254 255 255 255 255 255 255 255 255 255 255 255 255 255 255 255 255 255 255 255 255 250 
251 255 255 255 255 255 255 255 255 255 255 255 255 255 255 255 255 234 189 129 69 24 2 0 0 0 0 0 0 0 0 0 0 0 0 0 79 235 255 255 255 193 11 0 0 0 0 0 0 0 0 0 0 0 0 0 0 0 0 0 0 0 0 0 0 0 0 0 0 0 0 0 0 0 0 0 0 0 0 0 0 0 0 0 0 75 248 255 242 90 0 0 0 0 0 0 0 0 0 0 0 0 0 0 16 50 99 157 211 244 255 255 255 255 255 255 255 255 255 255 255 255 255 255 255 255 255 250 
251 255 255 255 255 255 255 255 255 255 255 255 255 251 222 170 104 46 10 0 0 0 0 0 0 0 0 0 0 0 0 0 0 0 0 60 220 255 255 255 255 177 6 0 0 0 0 0 0 0 0 0 0 0 0 0 0 0 0 0 0 0 0 0 0 0 0 0 0 0 0 0 0 0 0 0 0 0 0 0 0 0 0 0 0 43 232 255 255 226 65 0 0 0 0 0 0 0 0 0 0 0 0 0 0 0 0 1 22 64 123 184 229 253 255 255 255 255 255 255 255 255 255 255 255 255 255 250 
251 255 255 255 255 255 255 255 255 255 246 210 153 87 32 4 0 0 0 0 0 0 0 0 0 0 0 0 0 0 0 0 0 0 65 213 255 255 255 255 255 148 0 0 0 0 0 0 0 0 0 0 0 0 0 0 0 0 0 0 0 0 0 0 0 0 0 0 0 0 0 0 0 0 0 0 0 0 0 0 0 0 0 0 0 23 214 255 255 255 216 64 0 0 0 0 0 0 0 0 0 0 0 0 0 0 0 0 0 0 0 8 40 93 156 210 244 255 255 255 255 255 255 255 255 255 255 250 
251 255 255 255 255 255 255 240 198 136 71 22 0 0 0 0 0 0 0 0 0 0 0 0 0 0 0 0 0 0 0 0 12 104 227 255 255 255 255 255 255 124 0 0 0 0 0 0 0 0 0 0 0 0 0 0 0 0 0 0 0 0 0 0 0 0 0 0 0 0 0 0 0 0 0 0 0 0 0 0 0 0 0 0 0 7 181 255 255 255 255 226 98 8 0 0 0 0 0 0 0 0 0 0 0 0 0 0 0 0 0 0 0 0 1 22 65 125 186 230 253 255 255 255 255 255 255 250 
251 255 255 254 231 183 119 58 15 0 0 0 0 0 0 0 0 0 0 0 0 0 0 0 0 0 0 0 0 0 14 76 179 249 255 255 255 255 255 255 253 93 0 0 0 0 0 0 0 0 0 0 0 0 0 0 0 0 0 0 0 0 0 0 0 0 0 0 0 0 0 0 0 0 0 0 0 0 0 0 0 0 0 0 0 0 128 255 255 255 255 255 247 168 66 10 0 0 0 0 0 0 0 0 0 0 0 0 0 0 0 0 0 0 0 0 0 0 9 41 92 154 209 243 255 255 255 250 
242 217 162 97 41 8 0 0 0 0 0 0 0 0 0 0 0 0 0 0 0 0 0 0 0 0 0 14 52 119 195 247 255 255 255 255 255 255 255 255 247 73 0 0 0 0 0 0 0 0 0 0 0 0 0 0 0 0 0 0 0 0 0 0 0 0 0 0 0 0 0 0 0 0 0 0 0 0 0 0 0 0 0 0 0 0 77 249 255 255 255 255 255 255 243 185 106 43 10 0 0 0 0 0 0 0 0 0 0 0 0 0 0 0 0 0 0 0 0 0 0 0 21 62 119 178 222 243 
83 33 3 0 0 0 0 0 0 0 0 0 0 0 0 0 0 0 0 0 0 0 0 0 0 20 88 165 218 241 244 241 240 240 240 240 240 240 240 240 237 93 0 0 0 0 0 0 0 0 0 0 0 0 0 0 0 0 0 0 0 0 0 0 0 0 0 0 0 0 0 0 0 0 0 0 0 0 0 0 0 0 0 0 0 4 130 238 240 240 240 240 240 240 241 244 239 210 152 78 17 0 0 0 0 0 0 0 0 0 0 0 0 0 0 0 0 0 0 0 0 0 0 0 0 7 39 87 
