P2
128 48
255
236 240 240 240 240 240 240 240 240 240 240 240 240 240 240 240 240 240 240 240 240 240 240 240 240 240 240 240 240 240 240 240 240 240 240 240 240 240 240 239 215 159 122 104 91 79 69 59 51 45 40 35 32 30 28 27 25 24 23 23 23 22 21 21 20 19 18 17 17 16 16 16 15 15 14 14 13 12 11 11 10 10 9 9 9 9 8 8 8 7 7 6 6 5 5 4 4 4 4 3 3 3 3 3 3 3 2 2 2 2 2 1 1 1 1 1 1 1 0 0 0 0 0 0 0 0 0 0 
252 255 255 255 255 255 255 255 255 255 255 255 255 255 255 255 255 255 255 255 255 255 255 255 255 255 255 255 255 255 255 255 255 255 255 255 255 255 255 255 237 179 134 114 99 87 75 65 56 49 43 38 35 32 30 29 27 25 25 24 24 23 23 22 21 20 19 18 18 17 17 17 16 16 15 15 13 13 12 11 11 10 10 10 10 10 9 9 8 8 7 6 6 5 5 5 4 4 4 3 3 3 3 3 3 3 2 2 2 2 2 1 1 1 1 1 1 1 0 0 0 0 0 0 0 0 0 0 
251 255 255 255 255 255 255 255 255 255 255 255 255 255 255 255 255 255 255 255 255 255 255 255 255 255 255 255 255 255 255 255 255 255 255 255 255 255 255 255 240 184 136 115 101 88 76 65 56 49 43 39 34 32 30 29 27 25 24 24 24 24 23 22 21 20 19 18 18 17 17 17 16 16 15 15 13 13 12 11 11 10 10 10 10 10 9 9 8 8 7 6 6 5 5 5 4 4 4 3 3 3 3 3 3 3 2 2 2 2 2 1 1 1 1 1 1 1 0 0 0 0 0 0 0 0 0 0 
251 255 255 255 255 255 255 255 255 255 255 255 255 255 255 255 255 255 255 255 255 255 255 255 255 255 255 255 255 255 255 255 255 255 255 255 255 255 255 255 239 182 136 115 100 87 75 65 56 49 43 39 35 31 30 28 26 25 24 24 24 23 23 22 20 20 19 18 18 17 17 17 16 16 15 14 13 12 12 11 11 10 10 10 10 9 9 9 8 8 7 6 6 5 5 5 4 4 4 3 3 3 3 3 3 3 2 2 2 2 2 1 1 1 1 1 1 1 0 0 0 0 0 0 0 0 0 0 
251 255 255 255 255 255 255 255 255 255 255 255 255 255 255 255 255 255 255 255 255 255 255 255 255 255 255 255 255 255 255 255 255 255 255 255 255 255 255 255 233 173 131 112 98 85 73 64 55 48 42 38 34 31 30 28 26 25 24 24 24 23 22 22 20 19 19 18 17 17 17 17 16 15 15 14 13 12 12 11 11 10 10 10 10 9 9 9 8 8 7 6 6 5 5 5 4 4 4 3 3 3 3 3 3 3 2 2 2 2 2 1 1 1 1 1 1 1 0 0 0 0 0 0 0 0 0 0 
251 255 255 255 255 255 255 255 255 255 255 255 255 255 255 255 255 255 255 255 255 255 255 255 255 255 255 255 255 255 255 255 255 255 255 255 255 255 255 252 218 159 125 108 95 82 71 61 53 47 41 37 33 31 29 27 25 25 24 24 24 23 22 21 20 19 19 18 17 17 17 16 16 15 15 14 13 12 12 11 11 10 10 10 10 9 9 9 8 8 7 6 5 5 5 4 4 4 3 3 3 3 3 3 3 3 2 2 2 2 2 1 1 1 1 1 1 1 0 0 0 0 0 0 0 0 0 0 
251 255 255 255 255 255 255 255 255 255 255 255 255 255 255 255 255 255 255 255 255 255 255 255 255 255 255 255 255 255 255 255 255 255 255 255 255 255 255 244 194 142 118 103 89 78 67 58 51 45 40 36 33 31 29 26 25 24 24 24 23 23 22 21 20 19 18 18 17 17 17 16 16 15 15 13 13 12 11 11 10 10 10 10 10 9 9 8 8 8 6 6 5 5 5 4 4 4 3 3 3 3 3 3 3 3 2 2 2 2 2 1 1 1 1 1 1 1 0 0 0 0 0 0 0 0 0 0 
251 255 255 255 255 255 255 255 255 255 255 255 255 255 255 255 255 255 255 255 255 255 255 255 255 255 255 255 255 255 255 255 255 255 255 255 255 255 252 220 163 127 110 96 84 73 63 55 48 43 38 34 31 30 28 26 25 24 24 24 23 22 22 20 19 19 18 18 17 17 17 16 16 14 12 12 12 12 11 11 10 10 10 10 9 9 9 8 8 7 6 6 5 5 5 4 4 4 3 3 3 3 3 3 3 2 2 2 2 2 2 1 1 1 1 1 1 0 0 0 0 0 0 0 0 0 0 0 
251 255 255 255 255 255 255 255 255 255 255 255 255 255 255 255 255 255 255 255 255 255 255 255 255 255 255 255 255 255 255 255 255 255 255 255 255 254 234 181 137 115 101 89 78 67 58 51 45 40 36 33 31 29 27 25 25 24 24 24 23 22 21 20 19 18 18 17 17 17 17 16 15 30 48 35 18 9 7 7 8 10 10 10 9 9 8 8 8 6 6 5 5 5 4 4 4 4 3 3 3 3 3 3 3 2 2 2 2 2 1 1 1 1 1 1 1 0 0 0 0 0 0 0 0 0 0 0 
251 255 255 255 255 255 255 255 255 255 255 255 255 255 255 255 255 255 255 255 255 255 255 255 255 255 255 255 255 255 255 255 255 255 255 255 254 239 192 144 119 105 92 81 70 61 54 47 42 38 34 31 30 28 27 25 24 24 24 23 23 21 20 20 19 18 18 17 17 17 16 16 13 131 234 216 184 143 100 64 36 15 6 6 7 9 8 8 8 6 6 5 5 5 4 4 4 3 3 3 3 3 3 3 3 2 2 2 2 1 1 1 1 1 1 1 1 0 0 0 0 0 0 0 0 0 0 0 
251 255 255 255 255 255 255 255 255 255 255 255 255 255 255 255 255 255 255 255 255 255 255 255 255 255 255 255 255 255 255 255 255 255 255 254 238 193 147 121 106 94 83 72 63 55 49 43 39 35 32 31 29 27 25 24 24 24 24 23 22 20 20 19 18 18 17 17 17 17 16 15 12 73 230 255 255 255 254 242 220 174 98 61 38 15 5 7 7 6 6 5 5 5 4 4 4 3 3 3 3 3 3 3 2 2 2 2 2 1 1 1 1 1 1 1 0 0 0 0 0 0 0 0 0 0 0 0 
251 255 255 255 255 255 255 255 255 255 255 255 255 255 255 255 255 255 255 255 255 255 255 255 255 255 255 255 255 255 255 255 255 255 253 232 186 143 120 106 93 82 73 63 56 50 44 40 36 33 31 29 27 26 25 24 24 24 23 22 21 20 19 19 18 17 17 17 17 16 16 15 14 14 139 254 255 255 255 255 255 255 253 241 223 182 101 24 4 6 5 5 5 4 4 4 3 3 3 3 3 3 3 3 2 2 2 2 2 1 1 1 1 1 1 1 0 0 0 0 0 0 0 0 0 0 0 0 
250 255 255 255 255 255 255 255 255 255 255 255 255 255 255 255 255 255 255 255 255 255 255 255 255 255 255 255 255 255 255 255 255 246 216 171 135 115 103 91 81 72 63 56 50 45 40 36 33 31 30 27 26 25 24 24 24 23 22 21 20 19 19 18 18 17 17 17 17 16 15 14 24 127 232 255 255 255 255 255 255 255 255 255 255 255 251 196 71 5 5 5 4 4 4 4 3 3 3 3 3 3 3 2 2 2 2 2 2 1 1 1 1 1 1 0 0 0 0 0 0 0 0 0 0 0 0 0 
250 255 255 255 255 255 255 255 255 255 255 255 255 255 255 255 255 255 255 255 255 255 255 255 255 255 255 255 255 255 255 250 229 190 150 125 110 99 88 78 69 61 55 48 44 40 36 33 31 30 28 26 25 24 24 24 23 23 22 20 19 19 18 18 17 17 17 17 16 15 15 13 67 229 255 255 255 255 255 255 255 255 255 255 255 255 255 255 215 38 3 5 4 4 4 3 3 3 3 3 3 3 2 2 2 2 2 2 1 1 1 1 1 1 1 0 0 0 0 0 0 0 0 0 0 0 0 0 
250 255 255 255 255 255 255 255 255 255 255 255 255 255 255 255 255 255 255 255 255 255 255 255 255 255 255 255 255 248 229 196 158 131 114 103 93 83 74 66 59 53 48 43 39 36 32 31 29 27 26 25 24 24 24 23 23 22 21 20 19 18 18 17 17 17 17 16 16 15 14 13 21 139 227 246 255 255 255 255 255 255 255 255 255 255 255 255 255 112 1 5 4 4 4 3 3 3 3 3 3 3 2 2 2 2 2 1 1 1 1 1 1 1 0 0 0 0 0 0 0 0 0 0 0 0 0 0 
250 255 255 255 255 255 255 255 255 255 255 255 255 255 255 255 255 255 255 255 255 255 255 255 255 255 253 242 220 188 155 131 116 105 95 86 77 69 62 56 50 45 41 38 35 32 31 29 27 26 25 24 24 24 23 23 22 21 20 19 19 18 17 17 17 17 16 16 15 15 13 13 11 17 74 202 255 255 255 255 255 255 255 255 255 255 255 255 255 152 3 4 4 4 3 3 3 3 3 3 3 3 2 2 2 2 2 1 1 1 1 1 1 1 0 0 0 0 0 0 0 0 0 0 0 0 0 0 
250 255 255 255 255 255 255 255 255 255 255 255 255 255 255 255 255 255 255 255 255 255 255 251 241 224 198 170 143 125 112 103 94 85 77 70 63 57 52 47 43 39 35 30 28 26 25 25 25 25 24 24 24 23 23 22 21 20 19 18 18 17 17 17 17 16 16 15 14 13 13 12 12 10 38 177 255 255 255 255 255 255 255 255 255 255 255 255 255 171 6 4 4 3 3 3 3 3 3 3 3 2 2 2 2 2 1 1 1 1 1 1 1 0 0 0 0 0 0 0 0 0 0 0 0 0 0 0 
251 255 255 255 255 255 255 255 255 255 255 255 255 255 255 255 255 255 253 248 240 227 210 188 165 144 127 115 106 98 91 83 76 69 62 57 52 47 44 40 37 34 52 94 106 103 87 69 47 28 21 21 22 22 22 20 20 19 18 18 17 17 17 17 16 16 15 13 10 10 11 11 11 11 7 34 165 221 222 253 255 255 255 255 255 255 255 255 255 226 60 2 4 3 3 3 3 3 3 3 3 2 2 2 2 2 1 1 1 1 1 1 1 0 0 0 0 0 0 0 0 0 0 0 0 0 0 0 
217 228 235 240 243 245 247 247 247 247 247 245 242 238 234 227 217 206 191 176 160 144 131 120 112 104 98 91 84 78 72 66 61 55 51 47 43 40 37 35 32 31 83 174 227 241 237 239 223 183 127 76 48 34 24 19 16 14 14 14 15 16 16 16 15 13 14 49 59 46 32 22 17 14 18 13 17 58 179 254 255 255 255 255 255 255 255 255 255 255 193 23 2 3 3 3 3 3 3 2 2 2 2 2 2 1 1 1 1 1 1 1 0 0 0 0 0 0 0 0 0 0 0 0 0 0 0 0 
135 144 150 157 162 167 170 172 173 172 170 166 162 156 149 142 134 127 120 114 108 103 98 92 87 81 76 71 66 61 57 53 49 45 41 39 37 35 33 31 30 28 29 46 82 76 78 116 183 222 232 233 225 208 185 161 136 110 89 69 50 31 20 24 63 137 127 222 240 230 214 198 185 180 190 180 158 176 232 255 255 255 255 255 255 255 255 255 255 255 246 65 0 3 3 3 3 3 3 2 2 2 2 2 1 1 1 1 1 1 1 0 0 0 0 0 0 0 0 0 0 0 0 0 0 0 0 0 
99 103 105 107 109 110 111 112 112 112 111 110 108 106 103 101 98 94 91 88 83 80 76 71 67 63 59 55 52 49 46 43 40 37 35 33 32 31 30 28 27 26 25 23 21 21 21 20 28 43 54 80 127 171 206 231 249 255 255 247 233 207 183 199 228 255 255 255 255 255 255 255 255 255 255 255 255 255 255 255 255 255 255 255 255 255 255 255 255 255 253 132 24 1 0 2 3 3 2 2 2 2 2 1 1 1 1 1 1 1 1 0 0 0 0 0 0 0 0 0 0 0 0 0 0 0 0 0 
76 79 80 82 83 84 85 85 85 85 85 84 82 81 79 77 74 72 69 67 64 61 58 55 52 50 47 44 42 40 38 36 34 32 31 30 29 28 27 26 25 24 24 24 24 23 23 22 21 19 18 16 15 19 30 48 77 113 152 187 214 227 228 227 225 253 255 255 255 255 255 255 255 250 235 231 254 255 255 255 255 255 255 255 255 255 255 255 255 255 255 250 210 139 61 11 3 3 3 2 2 2 2 1 1 1 1 1 1 1 0 0 0 0 0 0 0 0 0 0 0 0 0 0 0 0 0 0 
57 59 61 62 63 63 64 64 64 64 64 63 62 61 60 58 56 55 53 51 49 48 46 43 42 40 38 36 35 34 32 31 30 30 29 27 26 26 25 24 24 24 24 23 23 22 22 21 20 19 19 18 18 17 16 15 13 13 15 22 34 42 41 40 44 123 111 185 247 235 207 164 119 81 64 165 255 255 255 255 255 255 255 255 255 255 255 255 255 255 255 255 255 255 241 119 2 3 3 3 2 2 2 2 1 1 1 1 1 0 0 0 0 0 0 0 0 0 0 0 0 0 0 0 0 0 0 0 
45 47 47 48 48 49 49 49 49 49 49 48 48 47 46 46 44 43 42 41 39 38 37 36 34 34 33 31 31 30 29 29 28 27 26 25 25 24 24 24 24 23 23 22 21 21 20 19 19 19 18 17 17 17 17 17 16 16 16 15 13 12 11 10 10 9 7 33 69 53 26 11 5 12 144 250 255 255 255 255 255 255 255 255 255 255 255 255 255 255 255 255 255 255 255 163 8 3 3 3 3 2 2 2 2 2 1 1 1 1 0 0 0 0 0 0 0 0 0 0 0 0 0 0 0 0 0 0 
38 38 39 39 39 39 39 39 39 39 39 39 38 38 37 37 36 35 34 34 33 32 32 31 30 30 30 29 28 28 26 26 25 24 24 24 24 24 24 23 23 22 21 21 20 19 19 18 18 17 17 17 17 17 16 16 15 15 14 13 13 12 12 11 11 11 10 9 6 7 9 9 7 37 225 255 255 255 255 255 255 255 255 255 255 255 255 255 255 255 255 255 255 255 255 193 22 1 3 3 3 2 2 2 2 2 2 1 1 1 1 1 0 0 0 0 0 0 0 0 0 0 0 0 0 0 0 0 
32 33 33 33 33 33 33 33 33 33 33 33 32 32 32 32 31 31 30 30 30 29 29 28 28 27 26 26 25 25 24 24 24 24 24 24 23 23 22 22 21 21 20 19 19 18 18 17 17 17 17 17 16 16 15 15 14 13 13 13 12 12 11 11 10 10 10 10 10 10 9 9 8 13 113 214 244 254 255 255 255 255 255 255 255 255 255 255 255 255 255 254 248 255 255 246 145 17 2 3 2 2 2 2 2 2 2 1 1 1 1 1 1 0 0 0 0 0 0 0 0 0 0 0 0 0 0 0 
30 30 30 30 30 30 30 30 30 30 30 30 30 29 29 29 28 28 28 27 27 26 26 26 25 25 25 24 24 24 24 24 24 23 23 23 22 21 20 20 20 19 19 18 18 17 17 17 17 17 16 16 16 15 15 14 13 13 12 12 11 11 11 10 10 10 10 10 9 9 9 8 8 7 7 31 63 164 255 255 255 255 255 255 255 255 255 255 255 255 255 238 115 219 255 255 254 112 0 2 2 2 2 2 2 2 2 1 1 1 1 1 1 1 0 0 0 0 0 0 0 0 0 0 0 0 0 0 
27 27 27 27 27 27 27 27 27 27 27 27 27 26 26 26 26 26 25 25 25 25 24 24 24 24 24 24 24 23 23 23 22 22 22 21 20 19 19 19 18 18 18 17 17 17 17 17 16 16 16 15 15 14 13 13 12 12 11 11 11 10 10 10 10 10 10 9 9 9 8 8 8 8 8 6 0 76 248 255 255 255 255 255 255 255 255 255 255 255 255 183 17 181 255 255 255 152 1 2 2 2 2 2 2 2 1 1 1 1 1 1 1 1 1 1 0 0 0 0 0 0 0 0 0 0 0 0 
25 26 26 25 25 25 25 25 25 25 25 25 25 25 25 24 24 24 24 24 24 24 24 24 24 23 23 23 23 22 22 21 20 20 20 19 19 18 18 18 17 17 17 17 17 17 16 16 15 15 14 14 13 13 13 12 11 11 11 10 10 10 10 10 10 9 9 9 8 8 8 8 8 8 7 6 5 27 195 255 255 255 255 255 255 255 255 255 255 255 255 122 0 141 255 255 255 154 2 2 2 2 2 2 2 1 1 1 1 1 1 1 1 1 1 1 1 0 0 0 0 0 0 0 0 0 0 0 
24 24 24 24 24 24 24 24 24 24 24 24 24 24 24 24 24 24 24 23 23 23 23 23 22 22 21 21 21 20 20 19 19 19 18 18 18 17 17 17 17 17 17 17 16 16 15 15 14 14 13 12 12 12 11 11 11 10 10 10 10 10 10 9 9 9 9 8 8 8 8 8 7 6 6 6 5 4 144 255 255 255 255 255 255 255 255 255 255 255 237 75 0 94 253 255 255 165 5 3 2 2 2 2 2 1 1 1 1 1 1 1 1 1 1 1 1 1 0 0 0 0 0 0 0 0 0 0 
24 24 24 24 24 24 24 23 23 23 23 23 23 23 23 23 23 22 22 22 22 21 21 20 20 20 19 19 19 19 18 18 18 18 17 17 17 17 17 17 16 16 16 15 15 14 14 13 13 12 12 12 11 11 11 10 10 10 10 10 10 9 9 9 8 8 8 7 7 7 7 6 6 6 6 5 3 29 211 255 255 255 255 255 255 255 255 255 255 255 249 98 0 52 236 255 255 179 8 3 3 2 2 2 2 1 1 1 1 1 1 1 1 1 1 1 1 1 1 0 0 0 0 0 0 0 0 0 
22 22 22 23 22 22 22 22 22 22 22 22 21 21 21 21 20 20 20 20 20 19 19 19 19 18 18 18 18 17 17 17 17 17 17 17 17 16 16 16 15 15 15 14 14 13 13 12 12 11 11 11 10 10 10 10 10 10 10 9 9 9 9 8 8 8 7 6 6 6 6 6 6 6 5 5 1 93 251 255 255 255 255 255 255 255 255 255 255 255 255 182 9 30 222 255 255 195 14 2 3 2 2 2 2 2 1 1 1 1 1 1 1 1 1 1 1 1 1 1 0 0 0 0 0 0 0 0 
20 20 20 20 20 20 20 20 20 20 19 19 19 19 19 19 19 19 19 19 18 18 18 18 18 17 17 17 17 17 17 17 17 16 16 16 16 15 15 15 14 14 13 13 13 12 12 11 11 11 10 10 10 10 10 10 10 9 9 9 8 8 8 8 7 6 6 6 6 6 6 6 5 5 5 5 8 169 255 255 255 255 255 255 255 255 255 255 255 255 255 242 90 53 236 255 255 233 59 0 3 3 2 2 2 2 2 2 1 1 1 1 1 1 1 1 1 1 1 1 0 0 0 0 0 0 0 0 
18 18 18 18 18 18 19 18 18 18 18 18 18 18 18 18 18 18 17 17 17 17 17 17 17 17 17 17 16 16 16 16 16 15 15 15 14 14 13 13 13 12 12 12 11 11 11 10 10 10 10 10 10 10 9 9 9 9 8 8 8 7 7 6 6 6 5 5 5 5 5 5 5 5 5 2 40 225 255 255 255 255 255 255 255 255 255 255 255 255 255 255 220 168 254 255 255 255 140 1 3 3 3 2 2 2 2 2 1 1 1 1 1 1 1 1 1 1 1 1 1 0 0 0 0 0 0 0 
17 17 17 17 17 17 17 17 17 17 17 17 17 17 17 17 17 17 17 17 17 17 17 16 16 16 16 16 15 15 15 15 14 14 13 13 13 12 12 12 12 11 11 11 10 10 10 10 10 10 10 10 9 9 9 9 8 8 8 7 6 6 6 5 5 5 5 5 5 5 5 5 5 4 4 0 98 253 255 255 255 255 255 255 255 255 255 255 255 255 255 255 255 251 253 255 252 255 179 11 2 3 3 2 2 2 2 2 1 1 1 1 1 1 1 1 1 1 1 1 1 0 0 0 0 0 0 0 
17 17 17 17 17 17 17 17 17 17 17 17 17 17 17 17 17 16 16 16 16 16 15 15 15 15 15 14 14 13 13 13 13 12 12 12 12 11 11 11 11 10 10 10 10 10 10 10 10 9 9 9 9 9 8 8 8 7 6 6 6 5 5 5 5 5 5 4 4 4 4 4 4 4 4 8 170 255 255 255 255 255 255 255 255 255 255 255 255 255 255 255 255 253 253 240 211 213 174 73 4 3 3 2 2 2 2 2 1 1 1 1 1 1 1 1 1 1 1 1 1 0 0 0 0 0 0 0 
16 16 16 16 16 16 16 16 16 16 16 16 16 16 15 15 15 15 15 15 14 14 14 14 13 13 13 13 12 12 12 12 12 11 11 11 11 10 10 10 10 10 10 10 10 10 10 9 9 9 9 8 8 7 7 7 6 6 6 5 5 5 5 4 4 4 4 4 4 4 4 4 4 4 1 45 229 255 255 255 255 255 255 255 255 255 255 255 255 255 255 255 255 255 254 223 199 147 101 20 3 3 3 2 2 2 2 2 1 1 1 1 1 1 1 1 1 1 1 1 1 0 0 0 0 0 0 0 
15 15 15 15 15 15 15 15 15 15 14 14 14 14 13 13 13 13 13 13 13 12 12 12 12 12 12 12 12 11 11 11 11 10 10 10 10 10 10 10 10 10 10 9 9 9 9 9 8 8 8 7 6 6 6 6 5 5 5 5 4 4 4 4 4 3 3 3 3 4 4 3 3 3 1 125 255 255 255 255 255 255 255 255 255 255 255 255 255 255 255 255 255 255 255 184 54 44 6 3 3 3 2 2 2 2 2 2 1 1 1 1 1 1 1 1 1 1 1 1 1 0 0 0 0 0 0 0 
13 13 13 13 13 13 13 13 13 13 12 12 12 12 12 12 12 12 12 12 12 11 11 11 11 11 11 11 10 10 10 10 10 10 10 10 10 10 10 9 9 9 9 9 8 8 8 8 7 7 6 6 6 5 5 5 5 5 4 4 4 4 4 4 3 3 3 3 3 3 3 3 3 1 37 216 255 255 255 255 255 255 255 255 255 255 255 255 255 255 255 255 255 255 255 244 101 0 3 3 3 2 2 2 2 2 2 1 1 1 1 1 1 1 1 1 1 1 1 1 0 0 0 0 0 0 0 0 
11 11 11 11 12 12 11 11 11 11 11 11 11 11 11 11 11 11 11 10 10 10 10 10 10 10 10 10 10 10 10 10 10 10 10 9 9 9 9 9 9 8 8 8 8 7 6 6 6 6 6 5 5 5 5 4 4 4 4 4 3 3 3 3 3 3 3 3 3 3 3 3 3 6 144 255 255 255 255 255 255 255 255 255 255 255 255 255 255 255 255 255 255 255 255 255 232 77 0 2 2 2 2 2 2 2 1 1 1 1 1 1 1 1 1 1 1 1 1 1 0 0 0 0 0 0 0 0 
10 11 11 11 11 11 11 10 10 10 10 10 10 10 10 10 10 10 10 10 10 10 10 10 10 10 10 10 10 10 9 9 9 9 9 9 8 8 8 8 8 7 7 6 6 6 6 5 5 5 5 5 4 4 4 4 4 4 3 3 3 3 3 3 3 3 3 3 3 3 3 3 0 78 241 255 255 255 255 255 255 255 255 255 255 255 255 255 255 255 255 255 255 255 255 255 255 220 62 0 2 2 2 2 1 1 1 1 1 1 1 1 1 1 1 1 1 1 1 0 0 0 0 0 0 0 0 0 
10 10 10 10 10 10 10 10 10 10 10 10 10 10 10 10 10 10 10 10 10 10 10 9 9 9 9 9 9 9 9 9 8 8 8 8 8 7 7 6 6 6 6 5 5 5 5 5 5 4 4 4 4 4 4 3 3 3 3 3 3 3 3 3 3 3 3 3 3 3 3 1 30 202 255 255 255 255 255 255 255 255 255 255 255 255 255 255 255 255 255 255 255 255 255 255 255 255 216 60 0 1 1 1 1 1 1 1 1 1 1 1 1 1 1 1 1 1 0 0 0 0 0 0 0 0 0 0 
10 10 10 10 10 10 10 10 10 10 10 10 10 10 9 9 9 9 9 9 9 9 9 9 8 8 8 8 8 8 7 8 7 7 6 6 6 6 6 6 5 5 5 5 5 4 4 4 4 4 4 4 3 3 3 3 3 3 3 3 3 3 3 3 2 2 2 2 2 2 2 4 139 255 255 255 255 255 255 255 255 255 255 255 255 255 255 255 255 255 255 255 255 255 255 255 255 255 255 212 51 0 1 1 1 1 1 1 1 1 1 1 1 1 1 1 1 0 0 0 0 0 0 0 0 0 0 0 
9 9 9 9 9 9 9 9 9 9 9 9 9 9 8 8 8 8 8 8 8 8 8 8 7 7 7 7 6 6 6 6 6 6 5 5 5 5 5 5 5 4 4 4 4 4 4 4 3 3 3 3 3 3 3 3 3 3 3 3 3 3 2 2 2 2 2 2 2 2 0 53 232 255 255 255 255 255 255 255 255 255 255 255 255 255 255 255 255 255 255 255 255 255 255 255 255 255 255 255 204 46 0 1 1 1 1 1 1 1 1 1 1 1 1 1 0 0 0 0 0 0 0 0 0 0 0 0 
8 8 8 8 8 8 8 8 8 8 8 8 8 8 7 7 7 7 7 7 7 6 6 6 6 6 6 5 5 5 5 5 5 5 5 5 4 4 4 4 4 4 4 4 3 3 3 3 3 3 3 3 3 3 3 3 3 3 3 2 2 2 2 2 2 2 2 2 1 1 0 137 255 255 255 255 255 255 255 255 255 255 255 255 255 255 255 255 255 255 255 255 255 255 255 255 255 255 255 255 255 194 31 0 1 1 1 1 1 1 1 1 1 1 1 0 0 0 0 0 0 0 0 0 0 0 0 0 
7 7 6 6 6 6 6 6 6 6 6 6 6 6 6 6 6 6 6 6 5 5 5 5 5 5 5 5 5 5 5 4 4 4 4 4 4 4 4 4 3 3 3 3 3 3 3 3 3 3 3 3 3 3 3 3 2 2 2 2 2 2 2 2 2 1 1 1 1 0 19 204 255 255 255 255 255 255 255 255 255 255 255 255 255 255 255 255 255 255 255 255 255 255 255 255 255 255 255 255 255 255 161 10 0 1 1 1 1 1 1 1 0 0 0 0 0 0 0 0 0 0 0 0 0 0 0 0 
5 6 6 6 6 5 5 5 5 5 5 5 5 5 5 5 5 5 5 5 5 5 5 5 4 4 4 4 4 4 4 4 4 4 4 3 3 3 3 3 3 3 3 3 3 3 3 3 3 3 3 3 3 2 2 2 2 2 2 2 2 2 1 1 1 1 1 1 1 0 64 243 255 255 255 255 255 255 255 255 255 255 255 255 255 255 255 255 255 255 255 255 255 255 255 255 255 255 255 255 255 255 250 103 0 1 1 1 1 1 0 0 0 0 0 0 0 0 0 0 0 0 0 0 0 0 0 0 
5 5 5 5 5 5 5 5 5 5 5 5 4 4 4 4 4 4 4 4 4 4 4 4 4 4 4 4 4 3 3 3 3 3 3 3 3 3 3 3 3 3 3 3 3 3 3 3 3 2 2 2 2 2 2 2 2 2 2 1 1 1 1 1 1 1 1 1 1 0 113 241 240 240 240 240 240 240 240 240 240 240 240 240 240 240 240 240 240 240 240 240 240 240 240 240 240 240 240 240 240 240 243 196 26 0 0 0 0 0 0 0 0 0 0 0 0 0 0 0 0 0 0 0 0 0 0 0 
