P2
128 48
255
0 0 0 0 0 0 0 0 0 0 0 0 0 0 0 0 0 0 0 0 0 0 0 0 0 0 0 0 0 0 0 0 0 0 0 28 134 229 241 240 240 240 240 240 240 240 240 240 240 240 240 240 240 240 240 240 240 239 240 237 218 199 185 167 150 138 118 96 77 65 43 18 2 0 0 0 0 0 0 0 0 0 0 0 0 0 0 0 0 0 0 0 0 0 0 0 0 0 0 0 0 0 3 81 194 241 242 240 240 240 239 239 239 239 239 239 239 239 239 240 240 240 240 240 240 240 240 235 
0 0 0 0 0 0 0 0 0 0 0 0 0 0 0 0 0 0 0 0 0 0 0 0 0 0 0 0 0 0 0 0 0 0 17 143 234 255 255 255 255 255 255 255 255 255 255 255 255 255 255 255 255 255 255 255 255 255 240 118 48 30 21 13 7 5 2 0 0 0 0 0 0 0 0 0 0 0 0 0 0 0 0 0 0 0 0 0 0 0 0 0 0 0 0 0 0 0 0 0 0 0 0 1 35 130 218 255 255 255 255 255 255 255 255 255 255 255 255 255 255 255 255 255 255 255 255 251 
0 0 0 0 0 0 0 0 0 0 0 0 0 0 0 0 0 0 0 0 0 0 0 0 0 0 0 0 0 0 0 0 0 0 2 20 54 119 192 247 255 255 255 255 255 255 255 255 255 255 255 255 255 255 255 255 255 255 185 8 0 0 0 0 0 0 0 0 0 0 0 0 0 0 0 0 0 0 0 0 0 0 0 0 0 0 0 0 0 0 0 0 0 0 0 0 0 0 0 0 0 0 0 0 0 0 33 122 212 252 255 255 255 255 255 255 255 255 255 255 255 255 255 255 255 255 255 250 
0 0 0 0 0 0 0 0 0 0 0 0 0 0 0 0 0 0 0 0 0 0 0 0 0 0 0 0 0 0 0 0 0 0 0 0 0 0 15 79 167 232 255 255 255 255 255 255 255 255 255 255 255 255 255 255 255 255 202 19 0 0 0 0 0 0 0 0 0 0 0 0 0 0 0 0 0 0 0 0 0 0 0 0 0 0 0 0 0 0 0 0 0 0 0 0 0 0 0 0 0 0 0 0 0 0 0 0 27 94 176 234 255 255 255 255 255 255 255 255 255 255 255 255 255 255 255 250 
0 0 0 0 0 0 0 0 0 0 0 0 0 0 0 0 0 0 0 0 0 0 0 0 0 0 0 0 0 0 0 0 0 0 0 0 0 0 0 0 5 49 136 220 255 255 255 255 255 255 255 255 255 255 255 255 255 255 244 71 0 0 0 0 0 0 0 0 0 0 0 0 0 0 0 0 0 0 0 0 0 0 0 0 0 0 0 0 0 0 0 0 0 0 0 0 0 0 0 0 0 0 0 0 0 0 0 0 0 0 7 50 118 185 236 255 255 255 255 255 255 255 255 255 255 255 255 250 
0 0 0 0 0 0 0 0 0 0 0 0 0 0 0 0 0 0 0 0 0 0 0 0 0 0 0 0 0 0 0 0 0 0 0 0 0 0 0 0 0 0 0 36 122 220 255 255 255 255 255 255 255 255 255 255 255 255 255 167 8 0 0 0 0 0 0 0 0 0 0 0 0 0 0 0 0 0 0 0 0 0 0 0 0 0 0 0 0 0 0 0 0 0 0 0 0 0 0 0 0 0 0 0 0 0 0 0 0 0 0 0 0 10 51 110 174 225 251 255 255 255 255 255 255 255 255 250 
0 0 0 0 0 0 0 0 0 0 0 0 0 0 0 0 0 0 0 0 0 0 0 0 0 0 0 0 0 0 0 0 0 0 0 0 0 0 0 0 0 0 0 0 0 68 234 255 255 255 255 255 255 255 255 255 255 255 255 244 85 0 0 0 0 0 0 0 0 0 0 0 0 0 0 0 0 0 0 0 0 0 0 0 0 0 0 0 0 0 0 0 0 0 0 0 0 0 0 0 0 0 0 0 0 0 0 0 0 0 0 0 0 0 0 0 6 36 88 148 204 240 255 255 255 255 255 250 
0 0 0 0 0 0 0 0 0 0 0 0 0 0 0 0 0 0 0 0 0 0 0 0 0 0 0 0 0 0 0 0 0 0 0 0 0 0 0 0 0 0 6 42 110 184 249 255 255 255 255 255 255 255 255 255 255 255 255 255 209 36 0 0 0 0 0 0 0 0 0 0 0 0 0 0 0 0 0 0 0 0 0 0 0 0 0 0 0 0 0 0 0 0 0 0 0 0 0 0 0 0 0 0 0 0 0 0 0 0 0 0 0 0 0 0 0 0 0 0 18 57 118 183 236 255 255 250 
0 0 0 0 0 0 0 0 0 0 0 0 0 0 0 0 0 0 0 0 0 0 0 0 0 0 0 0 0 0 0 0 0 0 0 0 0 0 0 9 45 101 173 229 255 255 255 255 255 255 255 255 255 255 255 255 255 255 255 255 255 167 16 0 0 0 0 0 0 0 0 0 0 0 0 0 0 0 0 0 0 0 0 0 0 0 0 0 0 0 0 0 0 0 0 0 0 0 0 0 0 0 0 0 0 0 0 0 0 0 0 0 0 0 0 0 0 0 0 0 0 0 0 9 53 149 246 251 
0 0 0 0 0 0 0 0 0 0 0 0 0 0 0 0 0 0 0 0 0 0 0 0 0 0 0 0 0 0 0 0 0 0 0 0 11 80 129 185 233 254 255 255 255 255 255 255 255 255 255 255 255 255 255 255 255 255 255 255 255 253 149 10 0 0 0 0 0 0 0 0 0 0 0 0 0 0 0 0 0 0 0 0 0 0 0 0 0 0 0 0 0 0 0 0 0 0 0 0 0 0 0 0 0 0 0 0 0 0 0 0 0 0 0 0 0 0 0 0 0 0 0 0 0 15 203 253 
0 0 0 0 0 0 0 0 0 0 0 0 0 0 0 0 0 0 0 0 0 0 0 0 0 0 0 0 0 0 0 0 0 0 0 0 8 111 237 255 255 255 255 255 255 255 255 255 255 255 255 255 255 255 255 255 255 255 255 255 255 255 250 134 11 0 0 0 0 0 0 0 0 0 0 0 0 0 0 0 0 0 0 0 0 0 0 0 0 0 0 0 0 0 0 0 0 0 0 0 0 0 0 0 0 0 0 0 0 0 0 0 0 0 0 0 0 0 0 0 0 0 0 0 0 75 232 251 
0 0 0 0 0 0 0 0 0 0 0 0 0 0 0 0 0 0 0 0 0 0 0 0 0 0 0 0 0 0 0 0 0 0 0 0 0 0 79 226 255 255 255 255 255 255 255 255 255 255 255 255 255 255 255 255 255 255 255 255 255 255 255 251 167 36 0 0 0 0 0 0 0 0 0 0 0 0 0 0 0 0 0 0 0 0 0 0 0 0 0 0 0 0 0 0 0 0 0 0 0 0 0 0 0 0 0 0 0 0 0 0 0 0 0 0 0 0 0 0 0 0 0 1 85 224 255 250 
0 0 0 0 0 0 0 0 0 0 0 0 0 0 0 0 0 0 0 0 0 0 0 0 0 0 0 0 0 0 0 0 0 0 0 0 0 0 0 77 227 255 255 255 255 255 255 255 255 255 255 255 255 255 255 255 255 255 255 255 255 255 255 255 255 208 88 8 0 0 0 0 0 0 0 0 0 0 0 0 0 0 0 0 0 63 69 0 0 0 0 0 0 0 0 0 0 0 0 0 0 0 0 0 0 0 0 0 0 0 0 0 0 0 0 0 0 0 0 0 0 0 22 128 238 255 255 250 
0 0 0 0 0 0 0 0 0 0 0 0 0 0 0 0 0 0 0 0 0 0 0 0 0 0 0 0 0 0 0 0 0 0 0 0 0 0 0 0 79 230 255 255 255 255 255 255 255 255 255 255 255 255 255 255 255 255 255 255 255 255 255 255 255 255 246 165 55 2 0 0 0 0 0 0 0 0 0 0 0 0 0 0 60 219 122 0 0 0 0 0 0 0 0 0 0 0 0 0 0 0 0 0 0 0 0 0 0 0 0 0 0 0 0 0 0 0 0 0 8 77 196 254 255 255 255 250 
15 0 0 0 0 0 0 0 0 0 0 0 0 0 0 0 0 0 0 0 0 0 0 0 0 0 0 0 0 0 0 0 0 0 0 0 0 0 0 0 0 93 243 255 255 255 255 255 255 255 255 255 255 255 255 255 255 255 255 255 255 255 255 255 255 255 255 255 234 152 57 9 0 0 0 0 0 0 0 0 0 0 0 52 212 255 114 0 0 0 0 0 0 0 0 0 0 0 0 0 0 0 0 0 0 0 0 0 0 0 0 0 0 0 0 0 0 0 4 58 167 244 255 255 255 255 255 250 
143 15 0 0 0 0 0 0 0 0 0 0 0 0 0 0 0 0 0 0 0 0 0 0 0 3 27 14 0 0 0 0 0 0 0 0 0 0 0 0 0 5 158 255 255 255 255 255 255 255 255 255 255 255 255 255 255 255 255 255 255 255 255 255 255 255 255 255 255 255 238 180 97 33 4 0 0 0 0 0 0 0 54 205 255 252 94 0 0 0 0 0 0 0 0 0 0 0 0 0 0 0 0 0 0 0 0 0 0 0 0 0 0 0 0 0 11 71 165 235 255 255 255 255 255 255 255 250 
246 155 26 0 0 0 0 0 18 98 119 38 0 0 0 0 0 0 0 0 0 0 0 0 0 58 209 198 154 115 82 47 26 13 4 0 0 0 0 0 0 0 88 252 255 255 255 255 255 255 255 255 255 255 255 255 255 255 255 255 255 255 255 255 255 255 255 255 255 255 255 255 253 222 167 102 50 15 4 4 12 84 218 255 255 252 93 0 0 0 0 0 0 0 0 0 0 0 0 0 0 0 0 0 0 0 0 0 0 0 0 0 0 2 34 103 187 243 255 255 255 255 255 255 255 255 255 250 
251 255 195 74 15 4 25 95 193 251 255 222 143 62 10 0 0 0 0 0 0 0 0 0 36 195 255 255 255 255 251 235 218 197 174 149 122 109 92 80 77 108 185 255 255 255 255 255 255 255 255 255 255 255 255 255 255 255 255 255 255 255 255 255 255 255 255 255 255 255 255 255 255 255 255 255 236 200 173 177 196 243 255 255 255 255 147 3 0 0 0 0 0 0 0 0 0 0 0 0 0 0 0 0 0 0 0 0 0 0 15 43 91 159 221 254 255 255 255 255 255 255 255 255 255 255 255 250 
250 255 255 243 199 174 212 251 255 255 255 255 255 241 184 106 34 0 0 0 0 0 0 40 192 255 255 255 255 255 255 255 255 255 255 255 255 255 254 251 250 255 255 255 255 255 255 255 255 255 255 255 255 255 255 255 255 255 255 255 255 255 255 255 255 255 255 255 255 255 255 255 255 255 255 255 255 255 255 255 255 255 255 255 255 255 240 157 78 40 21 7 1 0 0 0 0 0 0 0 0 0 0 4 10 20 36 59 95 142 197 233 252 255 255 255 255 255 255 255 255 255 255 255 255 255 255 250 
250 255 255 255 255 255 255 255 255 255 255 255 255 255 255 255 218 149 76 24 4 4 49 197 255 255 255 255 255 255 255 255 255 255 255 255 255 255 255 255 255 255 255 255 255 255 255 255 255 255 255 255 255 255 255 255 255 255 255 255 255 255 255 255 255 255 255 255 255 255 255 255 255 255 255 255 255 255 255 255 255 255 255 255 255 255 255 255 248 231 211 183 160 148 134 129 115 114 111 113 129 136 154 173 191 209 228 242 254 255 255 255 255 255 255 255 255 255 255 255 255 255 255 255 255 255 255 250 
250 255 255 255 255 255 255 255 255 255 255 255 255 255 255 255 255 255 248 212 176 175 225 255 255 255 255 255 255 255 255 255 255 255 255 255 255 255 255 255 255 255 255 255 255 255 255 255 255 255 255 255 255 255 255 255 255 255 255 255 255 255 255 255 255 255 255 255 255 255 255 255 255 255 255 255 255 255 255 255 255 255 255 255 255 255 255 255 255 255 255 255 255 255 255 255 255 255 255 255 255 255 255 255 255 255 255 255 255 255 255 255 255 255 255 255 255 255 255 255 255 255 255 255 255 255 255 250 
250 255 255 255 255 255 255 255 255 255 255 255 255 255 255 255 255 255 255 255 255 255 255 255 255 255 255 255 255 255 255 255 255 255 255 255 255 255 255 255 255 255 255 255 255 255 255 255 255 255 255 255 255 255 255 255 255 255 255 255 255 255 255 255 255 255 255 255 255 255 255 255 255 255 255 255 255 255 255 255 255 255 255 255 255 255 255 255 255 255 255 255 255 255 255 255 255 255 255 255 255 255 255 255 255 255 255 255 255 255 255 255 255 255 255 255 255 255 255 255 255 255 255 255 255 255 255 250 
250 255 255 255 255 255 255 255 255 255 255 255 255 255 255 255 255 255 255 255 255 255 255 255 255 255 255 255 255 255 255 255 255 255 255 255 255 255 255 255 255 255 255 255 255 255 255 255 255 255 255 255 255 255 255 255 255 255 255 255 255 255 255 255 255 255 255 255 255 255 255 255 255 255 255 255 255 255 255 255 255 255 255 255 255 255 255 255 255 255 255 255 255 255 255 255 255 255 255 245 243 252 255 255 255 255 255 255 255 255 255 255 255 255 255 255 255 255 255 255 255 255 255 255 255 255 255 250 
250 255 255 255 255 255 255 228 201 240 255 255 255 255 255 255 255 255 255 255 255 255 255 255 255 255 255 255 255 255 255 255 255 255 255 255 255 255 255 255 255 255 255 255 255 255 255 255 255 255 255 255 250 245 253 255 255 255 255 255 255 255 255 255 255 255 255 255 255 255 255 255 255 255 255 255 255 255 255 255 255 255 255 255 255 255 255 255 255 255 255 255 255 255 255 255 255 242 142 67 59 91 161 225 254 255 255 255 255 255 255 255 255 255 255 255 255 255 255 255 255 255 255 255 255 255 255 250 
250 254 255 255 255 255 225 67 13 64 160 236 255 255 255 255 255 255 255 255 255 255 255 255 255 255 255 255 255 255 255 255 255 255 255 255 255 255 255 255 255 255 255 255 255 255 255 247 229 202 166 125 78 87 226 255 255 255 255 255 255 255 255 255 255 255 255 255 255 255 255 255 255 255 255 255 255 255 255 255 255 255 255 255 255 255 255 255 255 255 255 255 255 255 255 255 236 106 3 0 0 0 3 36 102 186 247 255 255 255 255 255 255 255 255 255 255 255 255 255 255 255 255 255 255 255 255 250 
250 255 255 255 255 252 115 0 0 0 4 62 160 237 255 255 255 255 255 255 255 255 255 255 255 255 255 255 255 255 255 255 255 255 255 255 255 255 255 255 255 253 241 220 188 152 110 70 38 16 2 0 17 158 251 255 255 255 255 255 255 255 255 255 255 255 255 255 255 255 255 255 255 255 246 226 207 205 218 230 238 245 254 255 255 255 255 255 255 255 255 255 255 255 255 224 85 1 0 0 0 0 0 0 0 14 77 159 227 255 255 255 255 255 255 255 255 243 215 222 252 255 255 255 255 255 255 250 
251 255 255 255 255 195 20 0 0 0 0 0 4 63 168 239 255 255 255 255 255 255 255 255 255 255 255 255 255 255 255 255 255 255 255 255 254 240 216 177 133 90 56 28 9 0 0 0 0 0 0 13 155 255 255 255 255 255 255 255 255 255 255 255 255 255 255 255 255 255 255 255 255 241 98 32 18 17 26 39 48 64 93 125 153 185 210 236 250 255 255 255 255 255 221 70 0 0 0 0 0 0 0 0 0 0 0 2 43 127 210 255 255 255 255 216 138 64 24 32 92 193 255 255 255 255 255 250 
251 255 255 255 254 109 0 0 0 0 0 0 0 0 6 67 181 250 255 255 255 255 255 255 255 255 255 255 255 255 255 255 255 237 197 146 98 55 26 6 0 0 0 0 0 0 0 0 0 0 11 146 252 255 255 255 255 255 255 255 255 255 255 255 255 255 255 255 255 255 255 255 255 214 23 0 0 0 0 0 0 0 0 0 0 8 21 47 82 117 157 202 235 234 79 0 0 0 0 0 0 0 0 0 0 0 0 0 0 0 28 113 209 215 124 33 0 0 0 0 0 24 151 249 255 255 255 250 
251 255 255 255 226 39 0 0 0 0 0 0 0 0 0 0 14 99 212 255 255 255 255 255 255 255 255 255 255 252 225 177 112 52 14 0 0 0 0 0 0 0 0 0 0 0 0 0 0 4 124 251 255 255 255 255 255 255 255 255 255 255 255 255 255 255 255 255 255 255 255 255 255 245 89 0 0 0 0 0 0 0 0 0 0 0 0 0 0 0 1 16 47 63 6 0 0 0 0 0 0 0 0 0 0 0 0 0 0 0 0 0 25 28 0 0 0 0 0 0 0 0 8 123 249 255 255 250 
251 255 255 255 196 13 0 0 0 0 0 0 0 0 0 0 0 0 37 177 255 255 255 255 255 255 255 249 191 95 36 6 0 0 0 0 0 0 0 0 0 0 0 0 0 0 0 0 0 108 244 255 255 255 255 255 255 255 255 255 255 255 255 255 255 255 255 255 255 255 255 255 255 255 196 24 0 0 0 0 0 0 0 0 0 0 0 0 0 0 0 0 0 0 0 0 0 0 0 0 0 0 0 0 0 0 0 0 0 0 0 0 0 0 0 0 0 0 0 0 0 0 0 8 145 255 255 252 
251 255 255 255 180 8 0 0 0 0 0 0 0 0 0 0 0 0 0 24 164 253 255 255 255 245 183 87 17 0 0 0 0 0 0 0 0 0 0 0 0 0 0 0 0 0 0 0 90 237 255 255 255 255 255 255 255 255 255 255 255 255 255 255 255 255 255 255 255 255 255 255 255 255 254 154 11 0 0 0 0 0 0 0 0 0 0 0 0 0 0 0 0 0 0 0 0 0 0 0 0 0 0 0 0 0 0 0 0 0 0 0 0 0 0 0 0 0 0 0 0 0 0 0 35 201 232 224 
251 255 255 255 224 44 0 0 0 0 0 0 0 0 0 0 0 0 0 0 27 210 255 254 187 77 11 0 0 0 0 0 0 0 0 0 0 0 0 0 0 0 0 0 0 0 0 91 235 255 255 255 255 255 255 255 255 255 255 255 255 255 255 255 255 255 255 255 255 255 255 255 255 255 255 251 127 4 0 0 0 0 0 0 0 0 0 0 0 0 0 0 0 0 0 0 0 0 0 0 0 0 0 0 0 0 0 0 0 0 0 0 0 0 0 0 0 0 0 0 0 0 0 0 1 28 39 36 
251 255 255 255 255 135 0 0 0 0 0 0 0 0 0 0 0 0 0 0 9 192 243 132 19 0 0 0 0 0 0 0 0 0 0 0 0 0 0 0 0 0 0 0 0 0 85 230 255 255 255 255 255 255 255 255 255 255 255 255 255 255 255 255 255 255 255 255 255 255 255 255 255 255 255 255 245 112 1 0 0 0 0 0 0 0 0 0 0 0 0 0 0 0 0 0 0 0 0 0 0 0 0 0 0 0 0 0 0 0 0 0 0 0 0 0 0 0 0 0 0 0 0 0 0 0 0 0 
252 255 255 255 255 238 107 4 0 0 0 0 0 0 0 0 0 0 0 0 20 159 82 2 0 0 0 0 0 0 0 0 0 0 0 0 0 0 0 0 0 0 0 0 17 125 237 255 255 255 255 255 255 255 255 255 255 255 255 255 255 255 255 255 255 255 255 255 255 255 255 255 255 255 255 255 255 240 101 1 0 0 0 0 0 0 0 0 0 0 0 0 0 0 0 0 0 0 0 0 0 0 0 0 0 0 0 0 0 0 0 0 0 0 0 0 0 0 0 0 0 0 0 0 0 0 0 0 
228 238 245 251 255 255 248 137 23 0 0 0 0 0 0 0 0 0 0 0 17 30 0 0 0 0 0 0 0 0 0 0 0 0 0 0 0 0 0 0 0 0 2 65 182 253 255 255 255 255 255 255 255 255 255 255 255 255 255 255 255 255 255 255 255 255 255 255 255 255 255 255 255 255 255 255 255 255 243 122 13 0 0 0 0 0 0 0 1 6 3 0 0 0 0 0 0 0 0 0 0 0 0 0 0 0 0 0 0 0 0 0 0 0 0 0 0 0 0 0 0 0 0 0 0 0 0 0 
40 49 63 83 119 161 201 230 196 94 15 0 0 0 0 0 0 0 0 0 0 0 0 0 0 0 0 0 0 0 0 0 0 0 0 0 0 0 0 0 4 48 140 238 255 255 255 255 255 255 255 255 255 255 255 255 255 255 255 255 255 255 255 255 255 255 255 255 255 255 255 255 255 255 255 255 252 224 183 144 36 0 4 23 14 56 72 30 41 72 97 95 55 13 0 0 0 0 0 0 0 0 0 0 0 0 0 0 0 0 0 0 0 0 0 0 0 0 0 0 0 0 0 0 0 2 17 32 
0 0 0 0 0 1 15 42 86 123 94 13 0 0 0 0 0 0 0 0 0 0 0 0 0 0 0 0 0 0 0 0 0 0 0 0 0 0 18 80 167 232 255 255 255 255 255 255 255 255 255 255 255 255 255 255 255 255 255 255 255 255 255 255 255 255 255 255 255 255 255 255 255 240 199 145 90 35 7 0 0 4 32 106 154 133 206 204 145 166 185 188 217 190 103 20 0 0 0 0 0 0 0 0 0 0 0 0 0 0 0 0 0 0 0 0 0 0 0 0 0 0 0 0 0 36 123 186 
0 0 0 0 0 0 0 0 0 0 7 3 0 0 0 0 0 0 0 0 0 0 0 0 0 0 0 0 0 0 0 0 0 0 3 25 67 130 199 248 255 255 255 255 255 255 255 255 255 255 255 255 255 255 255 255 255 255 255 255 255 255 255 255 255 255 255 255 255 255 238 193 122 57 16 0 0 0 0 0 1 11 65 177 240 239 219 247 255 246 252 245 239 254 253 185 65 7 0 0 0 0 0 0 0 0 0 0 0 0 0 0 0 0 0 0 0 0 0 0 0 0 0 0 2 74 197 249 
0 0 0 0 0 0 0 0 0 0 0 0 0 0 0 0 0 0 0 0 0 0 0 0 0 0 0 0 0 0 0 11 43 87 151 208 243 255 255 255 255 255 255 255 255 255 255 255 255 255 255 255 255 255 255 255 255 255 255 255 255 255 255 255 255 255 255 255 253 151 51 13 0 0 0 0 0 0 0 0 5 65 84 145 246 255 255 252 255 255 255 255 255 255 255 255 237 175 79 7 0 0 0 0 0 0 0 0 0 0 0 0 0 0 0 0 0 0 0 0 0 4 14 17 4 71 207 251 
0 0 0 0 0 0 0 0 0 0 0 0 0 0 0 0 0 0 0 0 0 0 0 0 0 0 0 0 0 0 0 22 48 56 63 75 90 103 134 180 224 249 255 255 255 255 255 255 255 255 255 255 255 255 255 255 255 255 255 255 255 255 255 255 255 255 255 255 251 123 6 0 0 0 0 0 0 0 0 0 3 85 182 130 183 253 255 255 255 255 255 255 255 255 255 255 255 255 240 123 11 0 0 0 0 0 0 0 0 0 0 0 0 0 0 0 0 0 0 0 3 56 143 186 148 90 181 248 
73 54 34 22 11 4 0 0 0 0 0 0 0 0 0 0 0 0 0 0 0 0 0 0 0 0 0 0 0 0 0 0 0 0 0 0 0 0 0 7 35 82 145 209 248 255 255 255 255 255 255 255 255 255 255 255 255 255 255 255 255 255 255 255 255 255 255 255 255 247 174 68 6 0 0 0 0 0 0 0 3 49 187 229 155 197 251 255 255 255 255 255 255 255 255 255 255 255 255 241 135 24 0 0 0 0 0 0 0 0 0 0 0 0 0 0 0 0 0 0 1 31 137 237 255 232 221 246 
245 240 226 213 193 177 151 93 12 0 0 0 0 0 0 0 0 0 0 0 0 0 0 0 0 0 0 0 0 0 0 0 0 0 0 0 0 0 0 0 0 0 0 23 81 172 233 255 255 255 255 255 255 255 255 255 255 255 255 255 255 255 255 255 255 255 255 255 255 255 255 240 164 69 8 0 0 0 0 0 8 62 112 199 249 230 243 255 255 255 255 255 255 255 255 255 255 255 255 255 253 204 128 71 31 10 1 0 0 0 0 0 0 0 0 0 0 0 0 0 0 0 20 133 237 255 255 250 
250 255 255 255 255 255 246 139 12 0 0 0 0 0 0 0 0 0 0 0 0 0 0 0 0 0 0 0 0 0 0 0 0 0 0 0 0 0 0 0 0 0 0 0 0 6 46 126 212 253 255 255 255 255 255 255 255 255 255 255 255 255 255 255 255 255 255 255 255 255 255 255 255 243 176 89 17 0 0 0 14 103 181 132 159 235 255 255 255 255 255 255 255 255 255 255 255 255 255 255 255 255 255 246 219 184 152 118 80 42 13 0 0 0 0 0 0 0 0 0 0 4 63 168 243 255 255 250 
250 255 255 255 236 176 73 5 0 0 0 0 1 0 0 0 0 0 0 0 0 0 0 0 30 37 0 0 0 0 0 0 0 0 0 0 0 0 0 0 0 0 0 0 0 0 0 0 27 106 198 249 255 255 255 255 255 255 255 255 255 255 255 255 255 255 255 255 255 255 255 255 255 255 255 250 198 105 26 0 0 43 169 238 220 222 248 255 255 255 255 255 255 255 255 255 255 255 255 255 255 255 255 255 255 255 255 255 248 230 193 128 70 46 32 20 11 4 0 0 0 38 132 225 255 255 255 250 
253 241 198 126 52 7 0 1 28 64 117 149 158 55 0 0 0 0 0 0 0 0 0 0 35 172 143 50 3 0 0 0 0 0 0 0 0 0 0 0 0 0 0 0 0 0 0 0 0 0 19 90 187 246 255 255 255 255 255 255 255 255 255 255 255 255 255 255 255 255 255 255 255 255 255 255 255 252 214 145 71 31 16 76 165 224 249 255 255 255 255 255 255 255 255 255 255 255 255 255 255 255 255 255 255 255 255 255 255 255 255 255 244 230 216 201 182 161 139 113 96 134 209 252 255 255 255 250 
121 62 16 0 0 17 78 157 217 244 255 255 255 148 0 0 0 0 0 0 0 0 0 0 0 66 231 234 159 68 15 0 0 0 0 0 0 0 0 0 0 0 0 0 0 0 0 0 0 0 0 0 13 77 175 244 255 255 255 255 255 255 255 255 255 255 255 255 255 255 255 255 255 255 255 255 255 255 255 255 241 153 21 0 3 34 106 205 251 255 255 255 255 255 255 255 255 255 255 255 255 255 255 255 255 255 255 255 255 255 255 255 255 255 255 255 255 255 255 255 249 245 250 253 251 252 255 251 
0 0 2 35 110 198 249 255 255 255 255 255 255 180 7 0 0 0 0 0 0 0 0 0 0 0 110 251 255 244 198 125 53 13 1 0 0 0 0 0 0 0 0 0 0 0 0 0 0 0 0 0 0 0 9 73 178 251 255 255 255 255 255 255 255 255 255 255 255 255 255 255 255 255 255 255 255 255 253 200 94 17 0 0 0 9 94 198 251 252 230 198 210 248 255 255 255 255 255 255 255 255 255 255 255 255 255 255 255 255 255 255 255 255 255 255 255 255 255 255 255 255 255 255 255 255 255 251 
48 28 111 199 239 244 241 240 240 240 240 240 243 188 15 0 0 0 0 0 0 0 0 0 0 0 15 175 242 240 243 242 217 163 117 78 38 12 1 0 0 0 0 0 0 0 0 0 0 0 0 0 0 0 0 0 63 217 241 240 240 240 240 240 240 240 240 240 240 240 240 240 240 240 240 240 241 226 135 30 0 0 0 0 0 4 71 187 205 174 119 56 39 132 227 240 240 240 240 240 240 240 240 240 240 240 240 240 240 240 240 240 240 240 240 240 240 240 240 240 240 240 240 240 240 240 240 235 
