P2
128 48
255
0 0 0 0 0 0 0 0 0 0 1 1 1 1 2 2 2 3 4 4 5 5 6 8 9 9 9 9 11 13 14 15 16 16 17 17 20 21 22 23 24 25 26 27 29 30 31 32 34 35 36 39 42 43 44 46 47 48 50 52 54 56 57 59 62 64 66 68 70 71 74 77 79 82 83 85 87 90 93 96 98 102 104 108 110 115 118 122 127 131 136 140 144 149 154 159 164 170 175 182 187 191 192 194 195 196 197 198 201 203 206 212 219 227 234 237 239 239 239 239 239 239 239 239 239 239 240 234 
0 0 0 0 0 0 0 0 1 1 1 1 1 2 3 3 3 3 4 5 6 6 7 9 9 10 10 10 12 13 14 16 16 17 18 19 21 23 24 24 25 27 28 30 31 32 33 35 37 38 39 41 44 46 46 48 51 53 53 55 58 60 61 64 66 68 70 73 74 76 79 81 84 87 89 91 94 97 100 102 105 109 111 115 118 122 125 129 134 138 143 147 152 157 161 167 172 178 184 190 196 202 205 207 208 208 209 210 212 214 215 219 225 232 241 247 252 255 255 255 255 255 255 255 255 255 255 251 
0 0 0 0 0 0 0 0 1 1 1 1 1 2 3 3 3 3 4 5 5 6 7 9 9 10 10 11 12 13 14 16 16 17 18 19 22 22 24 24 24 26 27 30 31 32 33 35 37 38 39 41 43 46 46 48 51 53 54 55 58 59 61 64 66 67 70 72 74 76 79 81 83 86 88 90 94 96 99 101 104 108 110 114 117 121 124 127 131 136 140 144 149 154 158 163 167 173 180 185 190 197 202 204 205 207 207 208 209 211 212 214 217 221 227 235 243 249 252 254 255 255 255 255 255 255 255 250 
0 0 0 0 0 0 0 0 1 1 1 1 1 2 3 3 3 3 4 5 5 6 7 9 9 10 10 10 12 13 14 16 16 17 18 19 21 22 23 24 25 26 27 29 31 32 33 35 37 38 39 41 44 46 47 49 51 52 54 55 58 59 61 64 66 67 69 72 74 75 79 80 83 86 88 89 93 95 98 101 103 106 109 113 116 119 123 126 130 133 138 141 146 150 155 159 164 170 175 180 186 192 198 202 203 205 206 207 208 209 210 211 213 215 218 223 231 239 245 250 253 255 255 255 255 255 255 250 
0 0 0 0 0 0 0 0 1 1 1 1 1 2 3 3 3 3 4 5 5 6 7 9 9 10 10 10 12 12 14 16 16 17 17 19 20 22 23 24 25 26 27 29 31 31 33 34 37 38 39 41 43 45 46 48 50 52 53 55 58 59 60 63 66 67 69 71 74 75 78 80 81 85 87 88 91 95 97 100 102 105 108 111 115 117 121 124 128 131 135 138 142 147 151 155 160 166 170 175 181 187 192 199 202 203 204 205 207 208 208 209 211 212 213 216 220 226 233 240 247 251 252 254 255 255 255 250 
0 0 0 0 0 0 0 0 1 1 1 1 1 2 3 3 3 3 4 4 5 6 7 8 9 10 10 10 12 12 14 15 16 17 17 18 19 21 23 24 24 26 27 28 30 31 32 33 36 38 39 40 42 45 46 47 49 52 53 55 57 59 60 63 65 67 69 71 73 74 76 79 81 83 86 88 91 94 96 99 102 104 107 109 112 115 119 122 126 129 132 136 139 144 147 152 156 161 166 170 175 181 187 193 197 201 202 203 204 206 207 208 208 209 210 212 214 217 221 227 234 241 247 251 253 254 255 250 
0 0 0 0 0 0 0 0 1 1 1 1 1 2 2 3 3 3 4 4 5 6 7 8 9 10 10 10 11 12 13 15 16 16 17 18 19 21 22 23 24 25 26 27 30 31 32 33 35 37 38 40 42 44 46 47 49 51 52 54 56 58 60 61 65 67 68 70 73 74 76 79 81 82 85 88 90 93 95 97 100 103 106 108 110 113 117 120 123 126 130 134 137 140 144 148 153 157 161 166 170 175 180 185 190 197 201 202 202 204 205 206 207 208 209 210 211 212 215 218 222 228 234 241 247 250 253 249 
0 0 0 0 0 0 0 0 1 1 1 1 1 2 2 3 3 3 4 4 5 6 7 8 8 9 10 10 11 12 13 15 16 16 17 18 18 20 22 23 24 25 26 27 29 31 31 33 34 36 38 39 42 44 46 46 48 50 52 53 55 57 59 61 64 66 67 69 72 74 75 78 80 82 85 87 89 91 94 96 98 101 104 107 109 112 115 118 120 123 127 131 134 137 140 145 149 153 157 160 165 169 174 179 183 189 195 199 201 202 203 204 206 206 207 208 209 210 211 213 215 218 222 227 233 240 246 245 
0 0 0 0 0 0 0 0 1 1 1 1 1 2 2 3 3 3 4 4 5 6 6 7 8 9 10 10 11 12 12 14 16 16 17 17 18 20 22 23 24 24 26 27 29 31 32 33 34 36 37 38 40 43 45 46 47 49 52 53 54 56 58 60 63 65 67 68 71 73 74 76 79 81 83 85 88 90 93 95 96 99 102 105 107 110 113 116 118 122 125 128 131 134 137 140 144 148 152 155 159 164 168 173 177 181 187 192 197 200 201 202 203 204 205 206 207 208 209 210 211 213 215 217 221 226 232 233 
0 0 0 0 0 0 0 0 0 0 1 1 1 1 2 2 3 3 3 4 5 5 6 6 8 9 10 10 10 11 12 13 15 16 16 17 18 19 21 22 23 24 25 27 28 30 31 32 33 36 37 38 40 42 44 46 46 48 51 52 54 55 58 59 61 63 66 67 70 72 73 75 78 80 82 84 86 88 91 93 95 98 101 103 105 108 110 113 116 119 122 124 127 131 134 137 140 143 147 150 154 158 162 166 170 174 179 184 188 193 198 201 202 203 204 205 206 206 207 208 209 210 212 213 215 217 220 218 
0 0 0 0 0 0 0 0 0 0 1 1 1 1 2 2 3 3 3 4 4 5 5 6 8 9 10 10 10 11 12 12 14 16 16 17 18 18 20 22 23 24 25 26 27 29 31 31 33 34 37 38 39 41 43 45 46 47 49 51 53 54 56 59 61 62 65 67 68 70 72 74 76 78 80 82 85 87 89 91 94 96 98 101 103 106 108 110 113 116 118 121 124 127 130 133 136 139 142 145 149 153 156 159 163 167 172 176 180 184 189 194 198 200 202 203 203 205 205 206 207 208 209 209 211 212 214 211 
0 0 0 0 0 0 0 0 0 0 0 1 1 1 2 2 2 3 3 3 4 5 5 6 7 8 9 10 10 10 11 12 13 15 16 16 17 18 19 21 22 24 24 25 26 28 30 31 32 33 35 37 38 40 42 44 46 46 48 51 52 53 55 58 60 61 64 66 67 68 71 73 74 76 79 81 82 85 87 89 91 94 96 98 100 103 106 108 110 114 116 118 120 123 126 129 131 134 138 141 144 147 150 153 157 161 164 168 172 175 179 184 188 192 196 199 201 202 204 205 205 206 207 208 208 209 211 207 
0 0 0 0 0 0 0 0 0 0 0 1 1 1 2 2 2 3 3 3 4 5 5 6 6 7 8 10 10 10 10 12 12 14 16 16 17 18 19 21 22 23 24 24 26 28 29 31 32 32 34 36 38 39 41 43 45 46 47 49 51 53 54 56 59 60 62 64 66 67 69 72 73 75 77 79 81 84 86 88 89 91 94 96 98 100 103 105 107 110 112 114 117 120 123 125 127 130 133 136 139 141 145 148 150 153 157 160 164 168 171 175 178 181 186 190 194 197 200 202 203 204 206 206 207 208 209 205 
0 0 0 0 0 0 0 0 0 0 0 1 1 1 1 1 2 3 3 3 3 4 4 5 6 6 7 9 10 10 10 11 12 13 15 16 16 17 18 19 21 22 23 24 25 27 28 30 31 32 33 35 37 38 39 42 44 46 47 48 49 52 53 54 57 59 60 62 64 66 68 70 72 74 75 77 79 81 83 86 88 89 91 94 96 98 100 102 104 107 109 111 113 116 118 121 123 125 129 131 134 137 139 142 144 147 150 153 157 160 163 166 169 172 176 179 182 185 189 193 196 199 202 202 204 205 208 203 
0 0 0 0 0 0 0 0 0 0 0 1 1 1 1 1 2 2 3 3 3 4 4 5 6 6 7 8 10 10 10 11 12 12 14 16 16 17 18 18 20 21 23 24 25 26 27 28 31 31 32 33 36 37 38 40 42 44 46 47 48 51 52 54 55 57 60 60 62 65 66 68 70 72 74 75 78 80 81 84 86 88 90 92 94 96 98 100 102 103 106 108 110 113 115 117 120 122 124 126 128 132 134 137 139 142 144 147 149 153 155 157 160 163 166 169 172 175 178 181 184 188 190 193 196 198 201 198 
0 0 0 0 0 0 0 0 0 0 0 0 1 1 1 1 2 2 3 3 3 3 4 5 6 6 6 7 9 10 10 10 11 12 13 15 16 17 15 14 24 35 28 23 24 25 26 28 30 31 32 33 34 37 38 38 40 43 45 46 47 48 51 53 54 55 57 59 60 62 65 67 68 70 73 74 75 78 80 81 83 86 88 90 92 94 96 98 99 101 103 105 107 109 111 113 115 118 119 121 123 126 129 131 133 136 138 141 143 146 147 150 153 155 158 160 162 166 168 171 174 176 178 181 183 185 188 187 
0 0 0 0 0 0 0 0 0 0 0 0 0 1 1 1 1 2 2 3 3 3 3 4 5 6 6 7 8 9 10 10 11 12 12 13 15 16 56 118 175 179 111 36 23 24 25 27 28 30 31 32 32 32 34 36 39 41 43 45 46 47 49 51 53 54 55 57 59 61 63 65 67 68 70 73 74 77 78 80 81 83 85 88 89 91 93 95 96 98 100 102 103 105 107 109 111 113 115 117 119 121 124 126 128 130 132 135 137 139 140 142 145 147 149 151 154 157 159 161 164 166 169 170 173 174 176 175 
0 0 0 0 0 0 0 0 0 0 0 0 0 1 1 1 1 1 2 2 3 3 3 4 4 5 6 7 8 9 10 10 10 11 12 13 12 60 219 255 255 250 187 77 23 24 24 26 27 28 28 30 47 84 111 81 41 40 42 44 46 46 47 49 51 53 54 55 57 59 61 63 65 67 68 70 73 75 76 78 80 81 82 84 86 88 89 91 92 94 96 98 100 102 103 105 107 109 111 113 115 116 119 121 122 124 126 128 130 132 134 136 138 140 142 144 146 148 150 152 155 157 159 161 163 164 166 164 
0 0 0 0 0 0 0 0 0 0 0 0 0 0 1 1 1 1 2 2 3 3 3 3 4 5 5 6 7 7 9 10 10 10 11 12 9 125 255 255 255 255 220 116 29 23 24 25 25 27 72 154 209 244 231 116 40 38 40 41 44 45 46 47 49 51 53 53 55 57 59 60 62 66 68 68 70 73 74 76 78 79 80 81 83 85 87 88 89 91 93 95 96 98 100 102 103 105 107 108 110 112 114 116 118 119 121 123 124 126 128 130 131 133 135 137 138 140 142 143 145 147 149 151 152 153 155 154 
0 0 0 0 0 0 0 0 0 0 0 0 0 0 1 1 1 1 1 2 2 3 3 3 4 4 5 6 6 6 8 9 10 10 10 11 11 156 255 255 255 255 234 134 33 21 23 22 42 138 232 255 255 249 158 51 35 37 38 39 41 43 45 46 47 49 51 52 53 55 57 59 60 62 65 67 68 70 72 73 75 76 78 79 80 81 83 85 87 88 90 91 93 94 96 98 100 101 103 104 106 107 109 111 113 114 115 117 118 120 121 123 124 126 128 130 131 132 134 136 137 139 141 142 142 144 145 144 
0 0 0 0 0 0 0 0 0 0 0 0 0 0 0 0 1 1 1 1 2 3 3 3 3 4 5 5 6 7 8 9 10 10 10 11 16 177 255 255 255 255 233 126 27 21 20 59 188 255 255 255 249 166 53 32 34 35 37 38 39 41 43 45 46 46 48 50 52 53 54 56 58 60 61 64 66 67 69 70 72 73 75 75 77 79 80 82 83 85 87 88 89 90 92 94 96 97 98 100 101 102 104 106 107 109 110 111 113 115 116 118 119 120 121 123 124 125 126 128 130 131 132 133 134 135 137 136 
0 0 0 0 0 0 0 0 0 0 0 0 0 0 0 0 1 1 1 1 2 3 3 3 3 4 5 6 7 8 9 10 10 10 11 11 21 193 255 255 255 255 225 108 21 17 68 209 255 255 255 251 174 55 29 31 32 33 34 33 35 38 40 43 44 46 47 48 51 52 53 54 56 58 59 61 62 64 66 67 68 70 72 73 74 75 77 79 80 82 83 85 86 88 89 91 92 94 95 95 97 98 99 101 103 104 105 107 108 109 110 112 112 114 115 116 118 119 120 121 122 123 124 125 126 127 128 127 
0 0 0 0 0 0 0 0 0 0 0 0 0 0 0 0 0 1 1 1 2 3 3 3 4 5 6 6 8 9 10 10 10 11 12 11 30 210 255 255 255 255 212 90 16 69 212 255 255 255 254 192 65 26 29 29 28 36 60 101 137 129 64 39 42 44 46 46 48 50 52 53 53 55 56 58 60 61 63 64 66 67 69 70 72 73 74 75 76 78 80 81 82 84 86 87 88 90 91 92 93 95 96 96 98 99 100 102 103 103 104 106 107 108 109 110 111 112 113 114 115 116 117 118 118 119 120 119 
0 0 0 0 0 0 0 0 0 0 0 0 0 0 0 0 0 1 1 2 3 3 4 5 6 6 6 7 9 9 10 10 10 11 12 11 44 226 255 255 255 254 203 81 76 220 255 255 255 255 212 83 24 23 26 56 116 181 226 252 247 153 53 37 39 42 44 45 46 47 48 50 51 53 53 55 58 59 59 61 62 64 66 67 68 69 71 73 74 75 76 78 79 80 82 84 85 87 87 88 89 90 92 92 94 95 96 97 98 99 100 101 102 103 104 105 105 106 107 108 109 110 110 111 111 112 113 111 
0 0 0 0 0 0 0 0 0 0 0 0 0 0 0 0 0 2 3 3 3 3 4 5 5 6 6 8 8 9 10 10 10 10 11 8 77 245 255 255 255 254 206 136 220 255 255 255 255 230 111 24 25 69 150 221 254 255 255 224 126 45 35 37 38 39 40 42 43 45 46 46 48 50 52 53 54 55 57 59 60 61 63 64 66 67 68 69 71 72 73 74 75 77 78 80 81 82 83 84 85 86 87 88 89 91 92 93 93 94 95 96 97 97 99 99 100 101 101 102 102 103 104 104 104 105 106 105 
0 0 0 0 0 0 0 0 0 0 0 0 0 0 1 1 1 3 3 3 3 4 4 4 5 5 6 6 7 8 9 10 9 7 7 7 137 255 255 255 255 254 230 236 255 255 255 255 246 147 38 66 157 233 255 255 255 235 156 68 32 31 33 35 36 37 38 39 41 42 44 45 46 47 49 51 52 53 54 55 57 59 60 60 62 64 66 67 67 69 70 71 72 73 74 76 77 78 79 80 81 82 82 83 85 87 87 88 89 89 90 91 92 92 93 94 95 95 96 96 97 97 99 99 99 99 100 99 
0 0 0 0 0 0 0 0 0 0 0 0 1 1 2 2 3 3 3 3 3 3 4 4 4 5 5 6 6 7 7 6 19 54 77 78 205 255 255 255 255 255 254 255 255 255 255 253 188 89 145 233 255 255 255 240 169 77 29 26 30 31 31 32 33 35 37 37 39 40 41 43 44 46 46 47 49 51 52 53 54 55 57 58 59 61 62 63 64 65 66 67 68 70 71 72 73 74 75 76 77 78 79 80 81 82 82 83 84 85 86 87 88 88 88 89 89 90 91 91 92 92 92 92 93 94 94 93 
0 0 0 0 0 0 0 0 0 0 1 1 1 2 3 3 3 3 3 3 3 3 3 4 4 5 5 6 6 5 30 119 188 232 238 228 251 255 255 255 255 255 255 255 255 255 255 232 183 217 255 255 255 255 207 93 28 19 22 24 28 34 37 38 38 38 36 36 37 38 39 40 41 43 45 45 46 47 49 51 52 53 54 55 57 58 59 59 60 62 63 64 66 67 67 69 69 71 71 72 73 74 75 76 76 77 78 79 80 80 81 82 83 84 84 85 85 85 86 87 87 87 87 87 88 89 89 87 
0 0 0 0 0 0 0 0 0 0 1 1 2 3 3 3 3 3 3 3 3 3 3 3 4 5 5 6 6 5 130 255 255 255 255 255 255 255 255 255 255 255 255 255 255 255 254 245 253 255 255 255 250 180 63 31 51 76 106 137 164 183 190 193 187 138 57 32 34 36 37 38 39 40 42 43 44 46 46 47 49 50 52 52 53 54 55 56 58 59 60 61 62 63 64 65 66 67 68 69 70 71 71 72 73 73 74 75 75 76 77 78 79 79 79 80 80 80 81 82 82 82 82 82 83 83 83 82 
0 0 0 0 0 0 0 0 0 1 2 2 2 3 3 3 3 3 3 3 3 3 3 3 4 5 6 6 7 5 113 255 255 255 255 255 255 255 255 255 255 255 255 255 255 255 255 255 255 255 255 251 202 137 154 197 225 244 255 255 255 255 239 198 138 71 35 32 32 33 35 36 37 38 38 40 41 43 45 46 46 46 47 49 51 52 53 54 54 55 56 58 59 59 60 61 62 63 64 65 66 67 67 68 69 70 71 71 72 73 73 74 74 75 75 75 75 75 76 77 77 78 78 78 78 78 78 77 
0 0 0 0 0 0 0 0 1 2 2 3 3 3 3 3 3 3 3 3 3 3 3 3 4 5 6 7 8 7 39 215 255 255 255 255 255 255 255 255 255 255 255 255 255 255 255 255 255 255 255 252 245 253 255 255 255 239 211 178 145 108 66 35 24 25 28 30 31 31 32 33 35 36 37 38 39 40 42 43 44 45 45 46 47 48 50 51 52 52 53 54 55 56 57 58 59 59 61 61 62 63 64 64 65 66 67 68 68 68 69 69 70 71 71 71 72 72 72 72 72 73 73 73 73 73 74 72 
0 0 0 0 0 0 0 1 1 2 3 3 3 3 3 3 3 3 3 3 3 3 3 4 5 6 6 7 8 8 7 112 252 255 255 255 255 255 255 255 255 255 255 255 255 255 255 255 255 255 255 255 255 249 214 157 102 65 38 25 20 19 21 23 24 25 26 28 28 30 31 31 32 33 34 35 37 38 38 39 40 41 43 44 45 46 46 47 48 49 50 51 52 53 53 54 55 55 56 58 59 59 60 60 61 62 63 63 64 65 65 66 66 66 67 67 67 68 68 68 68 69 68 68 68 68 69 67 
0 0 0 0 0 0 0 1 1 2 3 3 3 3 3 3 3 3 3 3 3 4 4 5 6 6 6 6 7 8 8 24 196 255 255 255 255 255 255 255 255 255 255 255 255 255 255 255 255 255 255 245 179 91 39 18 15 17 19 20 21 21 22 23 23 23 24 25 26 27 28 30 31 31 32 33 34 35 36 37 38 39 39 40 42 43 44 44 46 46 47 48 48 49 50 51 52 52 53 54 55 56 56 57 57 58 59 59 60 60 61 62 62 62 62 63 63 64 63 64 64 64 65 65 65 65 65 63 
0 0 0 0 0 0 1 1 2 2 3 3 3 3 3 3 3 3 3 3 3 5 5 5 6 6 6 6 7 8 7 40 210 255 255 255 255 255 255 255 255 255 255 255 255 255 255 255 255 255 253 189 57 11 15 17 18 18 18 19 19 19 20 21 22 22 23 24 24 25 26 27 28 29 30 31 31 32 33 34 35 36 37 37 38 39 40 41 43 43 44 45 46 46 47 47 48 49 50 51 52 52 53 53 54 54 55 56 56 56 57 58 58 58 58 59 60 60 60 60 60 60 60 60 60 60 60 59 
0 0 0 0 0 0 1 2 2 3 3 3 3 3 3 3 3 3 3 3 3 4 5 6 6 6 6 6 7 9 12 152 255 255 255 255 255 255 255 255 255 255 255 255 255 255 255 255 255 255 242 142 30 15 16 17 17 17 17 18 18 17 18 18 19 20 22 22 23 24 24 25 26 27 27 28 30 31 31 32 32 33 34 36 36 37 38 38 39 40 40 42 42 43 44 45 45 46 46 47 48 48 49 50 50 51 52 53 53 53 53 54 54 54 54 55 55 56 56 56 56 57 56 57 57 57 56 55 
0 0 0 0 0 0 1 1 2 3 3 3 3 3 3 3 3 3 3 3 3 4 5 6 6 6 6 7 9 7 65 238 255 255 255 255 255 255 255 255 255 255 255 255 255 255 255 255 255 255 214 86 14 14 14 15 16 17 17 17 17 17 17 17 17 18 19 21 22 22 23 23 24 25 25 26 27 28 28 30 31 31 32 32 33 34 35 36 36 37 38 38 39 40 40 41 42 43 44 45 45 46 46 46 47 47 48 48 49 49 50 51 51 51 52 52 52 52 53 53 53 53 53 53 53 53 53 52 
0 0 0 0 0 0 1 1 2 2 3 3 3 3 3 3 3 3 3 3 3 4 5 5 6 6 7 9 10 10 147 255 255 255 255 255 255 255 255 255 255 255 255 255 255 255 255 255 255 247 154 34 11 12 12 14 15 16 16 15 15 16 16 16 16 17 18 18 19 20 21 22 23 24 24 24 25 25 26 27 28 30 30 30 31 32 32 32 33 34 35 36 36 37 38 38 39 39 40 41 42 42 43 44 44 44 44 45 46 46 46 47 47 47 48 48 48 48 48 48 49 49 49 49 49 49 49 48 
0 0 0 0 0 0 1 1 1 2 3 3 3 3 3 3 3 3 3 3 3 3 3 1 1 2 3 6 5 36 217 255 255 255 255 255 255 255 255 255 255 255 255 255 255 255 255 255 255 192 60 10 11 11 12 12 13 14 13 13 13 13 14 14 16 16 16 17 18 18 18 19 20 21 22 23 23 24 24 25 25 27 27 27 28 29 30 31 31 31 32 33 33 34 34 36 36 36 37 38 38 39 39 39 39 40 41 42 42 43 43 44 44 44 45 45 45 45 46 45 46 46 46 46 46 46 46 45 
0 0 0 0 0 0 0 1 1 2 3 3 3 3 3 3 3 3 3 2 0 4 27 61 88 103 107 110 122 177 251 255 255 255 255 255 255 255 255 255 255 255 255 255 255 255 255 253 188 63 10 10 10 10 10 11 12 12 12 11 11 11 12 12 13 14 15 16 16 16 17 17 18 19 19 20 21 22 23 23 24 24 25 25 26 27 27 28 28 29 30 31 31 31 32 32 33 33 34 34 35 36 37 37 37 37 38 38 39 39 39 40 40 40 41 41 41 42 42 41 42 42 43 43 43 43 43 42 
0 0 0 0 0 0 0 0 1 1 2 3 3 3 3 3 3 2 0 25 88 157 213 241 250 253 253 253 255 255 255 255 255 255 255 255 255 255 255 255 255 255 255 255 255 255 239 147 39 7 8 10 10 10 10 10 10 11 10 10 10 10 10 11 11 12 13 13 14 15 16 16 17 17 17 18 18 19 20 21 22 22 23 24 24 24 25 25 25 26 27 28 29 29 30 30 31 31 32 32 32 33 33 33 34 34 35 36 36 36 37 37 37 37 37 38 38 38 38 38 38 39 39 39 39 39 39 38 
0 0 0 0 0 0 0 0 1 1 2 2 3 3 3 3 0 11 83 201 251 255 255 255 255 255 255 255 255 255 255 255 255 255 255 255 255 255 255 255 255 255 255 255 251 200 83 12 5 7 7 8 9 9 10 10 10 10 10 9 9 10 10 10 10 11 11 12 12 12 13 15 15 16 16 16 17 18 18 19 20 21 22 22 22 23 23 24 24 24 25 25 26 26 27 27 27 28 29 29 30 31 31 31 31 31 32 32 33 33 33 34 34 34 34 34 35 36 35 36 36 36 36 36 36 36 36 35 
0 0 0 0 0 0 0 0 0 1 1 2 2 3 1 2 54 169 245 255 255 255 255 255 255 255 255 255 255 255 255 255 255 255 255 255 255 255 255 255 255 255 255 255 233 155 65 20 5 5 6 6 7 8 8 8 8 8 7 7 7 7 8 9 10 10 10 10 11 11 12 12 13 14 14 15 16 16 17 17 18 18 18 19 20 20 21 22 22 23 23 23 24 24 25 25 25 25 25 26 26 27 27 28 29 29 30 30 30 31 31 31 31 31 31 32 32 32 32 32 32 33 33 33 32 32 32 32 
0 0 0 0 0 0 0 0 0 0 1 1 1 0 25 124 229 255 255 255 255 255 255 255 255 255 255 255 255 255 255 255 255 255 255 255 255 255 255 255 255 255 255 255 254 245 211 146 68 17 4 5 6 6 6 6 6 5 5 5 6 6 6 7 8 9 9 10 10 10 10 11 11 11 12 13 13 14 15 15 16 17 17 17 17 18 18 18 19 19 20 21 22 22 23 23 23 23 24 24 24 25 25 25 26 26 27 27 27 28 28 28 28 28 29 29 29 29 29 30 30 30 30 30 30 30 30 30 
0 0 0 0 0 0 0 0 0 0 0 0 5 79 199 255 255 255 255 255 255 255 255 255 255 255 255 255 255 255 255 255 255 255 255 255 255 255 255 255 255 255 255 255 255 255 255 245 205 129 49 8 3 4 4 4 4 3 3 4 4 4 5 5 6 7 7 8 9 9 10 10 10 10 11 11 12 12 12 13 14 15 15 16 16 16 16 17 17 17 18 18 19 20 20 20 21 22 22 23 23 23 24 24 24 24 24 25 25 25 25 25 25 25 25 26 26 26 26 26 27 26 27 27 27 26 27 26 
0 0 0 0 0 0 0 0 0 0 0 38 152 243 255 255 255 255 255 255 255 255 255 255 255 255 255 255 255 255 255 255 255 255 255 255 255 255 255 255 255 255 255 255 255 255 255 255 254 235 177 89 19 2 3 3 3 3 3 3 3 3 4 4 5 5 6 6 7 8 8 9 9 10 10 10 10 10 11 12 12 12 12 13 13 14 15 15 16 16 16 16 17 17 17 18 18 19 19 20 20 21 21 22 22 22 22 22 23 23 23 23 24 24 24 24 24 24 24 24 24 24 24 24 24 24 24 24 
0 0 0 0 0 0 0 0 0 10 100 216 255 255 255 255 255 255 255 255 255 255 255 255 255 255 255 255 255 255 255 255 255 255 255 255 255 255 255 255 255 255 255 255 255 255 255 255 255 255 247 204 118 32 2 1 2 2 3 3 3 3 3 3 4 4 4 5 5 6 6 7 7 8 9 9 9 10 10 10 10 11 11 11 11 12 12 13 13 13 14 15 16 16 16 16 16 16 17 17 18 18 18 19 19 19 19 19 19 20 21 21 21 21 22 22 22 22 22 22 23 23 22 23 23 23 23 22 
0 0 0 0 0 0 0 0 44 168 250 255 255 255 255 255 255 255 255 255 255 255 255 255 255 255 255 255 255 255 255 255 255 255 255 255 255 255 255 255 255 255 255 255 255 255 255 255 255 255 255 252 217 133 38 1 1 1 2 2 2 3 3 3 3 3 3 3 4 5 5 5 6 6 6 7 7 8 9 9 9 10 10 10 10 10 11 12 12 12 12 13 13 14 14 14 15 15 15 16 16 16 16 16 16 17 17 17 17 18 18 18 18 18 18 19 19 19 19 19 20 20 20 20 19 20 20 19 
0 0 0 0 0 0 0 35 187 243 240 240 240 240 240 240 240 240 240 240 240 240 240 240 240 240 240 240 240 240 240 240 240 240 240 240 240 240 240 240 240 240 240 240 240 240 240 240 240 240 240 240 236 196 107 18 0 1 1 1 1 2 2 2 2 3 3 3 3 3 3 4 4 5 5 5 5 6 7 7 8 8 8 9 9 9 10 10 10 10 10 11 11 11 11 11 12 12 12 13 13 14 14 14 15 15 15 15 15 15 16 16 16 16 16 16 16 16 16 17 17 17 17 16 16 16 16 16 
