P2
128 48
255
0 0 0 0 0 0 0 0 0 0 0 0 0 0 0 0 0 0 0 0 0 0 0 0 0 0 0 0 0 0 0 0 0 0 0 0 4 66 195 241 240 240 240 240 240 240 240 240 240 240 240 240 240 240 240 240 219 161 122 100 88 72 67 53 46 38 22 16 14 7 3 1 0 0 0 0 0 0 0 0 0 0 0 0 0 0 0 0 0 0 0 0 0 0 0 0 0 0 0 0 0 0 0 15 80 169 224 242 243 241 239 239 239 239 239 239 239 239 239 239 239 239 239 239 239 239 239 235 
0 0 0 0 0 0 0 0 0 0 0 0 0 0 0 0 0 0 0 0 0 0 0 0 0 0 0 0 0 0 0 0 0 0 0 0 34 162 235 255 255 255 255 255 255 255 255 255 255 255 255 255 255 255 255 253 134 14 3 1 0 0 0 0 0 0 0 0 0 0 0 0 0 0 0 0 0 0 0 0 0 0 0 0 0 0 0 0 0 0 0 0 0 0 0 0 0 0 0 0 0 0 0 0 1 20 69 135 199 240 255 255 255 255 255 255 255 255 255 255 255 255 255 255 255 255 255 251 
0 0 0 0 0 0 0 0 0 0 0 0 0 0 0 0 0 0 0 0 0 0 0 0 0 0 0 0 0 0 0 0 0 0 0 0 4 18 56 137 217 255 255 255 255 255 255 255 255 255 255 255 255 255 255 253 123 0 0 0 0 0 0 0 0 0 0 0 0 0 0 0 0 0 0 0 0 0 0 0 0 0 0 0 0 0 0 0 0 0 0 0 0 0 0 0 0 0 0 0 0 0 0 0 0 0 0 0 19 61 115 174 224 251 255 255 255 255 255 255 255 255 255 255 255 255 255 250 
0 0 0 0 0 0 0 0 0 0 0 0 0 0 0 0 0 0 0 0 0 0 0 0 0 0 0 0 0 0 0 0 0 0 0 0 0 0 0 0 38 128 217 255 255 255 255 255 255 255 255 255 255 255 255 255 181 17 0 0 0 0 0 0 0 0 0 0 0 0 0 0 0 0 0 0 0 0 0 0 0 0 0 0 0 0 0 0 0 0 0 0 0 0 0 0 0 0 0 0 0 0 0 0 0 0 0 0 0 0 0 7 39 90 147 201 236 253 255 255 255 255 255 255 255 255 255 250 
0 0 0 0 0 0 0 0 0 0 0 0 0 0 0 0 0 0 0 0 0 0 0 0 0 0 0 0 0 0 0 0 0 0 0 0 0 0 0 0 0 0 39 138 229 255 255 255 255 255 255 255 255 255 255 255 231 64 0 0 0 0 0 0 0 0 0 0 0 0 0 0 0 0 0 0 0 0 0 0 0 0 0 0 0 0 0 0 0 0 0 0 0 0 0 0 0 0 0 0 0 0 0 0 0 0 0 0 0 0 0 0 0 0 1 19 53 96 144 192 228 248 255 255 255 255 255 250 
0 0 0 0 0 0 0 0 0 0 0 0 0 0 0 0 0 0 0 0 0 0 0 0 0 0 0 0 0 0 0 0 0 0 0 0 0 0 0 0 0 0 0 3 57 171 247 255 255 255 255 255 255 255 255 255 255 158 11 0 0 0 0 0 0 0 0 0 0 0 0 0 0 0 0 0 0 0 0 0 0 0 0 0 0 0 0 0 0 0 0 0 0 0 0 0 0 0 0 0 0 0 0 0 0 0 0 0 0 0 0 0 0 0 0 0 0 0 0 14 41 82 131 180 216 242 255 251 
0 0 0 0 0 0 0 0 0 0 0 0 0 0 0 0 0 0 0 0 0 0 0 0 0 0 0 0 0 0 0 0 0 0 0 0 0 0 0 0 0 0 0 0 0 25 192 255 255 255 255 255 255 255 255 255 255 235 74 0 0 0 0 0 0 0 0 0 0 0 0 0 0 0 0 0 0 0 0 0 0 0 0 0 0 0 0 0 0 0 0 0 0 0 0 0 0 0 0 0 0 0 0 0 0 0 0 0 0 0 0 0 0 0 0 0 0 0 0 0 0 0 0 9 29 67 149 236 
0 0 0 0 0 0 0 0 0 0 0 0 0 0 0 0 0 0 0 0 0 0 0 0 0 0 0 0 0 0 0 0 0 0 0 0 0 0 0 0 0 0 0 3 45 141 234 255 255 255 255 255 255 255 255 255 255 255 183 22 0 0 0 0 0 0 0 0 0 0 0 0 0 0 0 0 0 0 0 0 0 0 0 0 0 0 0 0 0 0 0 0 0 0 0 0 0 0 0 0 0 0 0 0 0 0 0 0 0 0 0 0 0 0 0 0 0 0 0 0 0 0 0 0 0 0 22 180 
0 0 0 0 0 0 0 0 0 0 0 0 0 0 0 0 0 0 0 0 0 0 0 0 0 0 0 0 0 0 0 0 0 0 0 0 0 0 0 0 0 0 45 144 224 255 255 255 255 255 255 255 255 255 255 255 255 255 248 129 6 0 0 0 0 0 0 0 0 0 0 0 0 0 0 0 0 0 0 0 0 0 0 0 0 0 0 0 0 0 0 0 0 0 0 0 0 0 0 0 0 0 0 0 0 0 0 0 0 0 0 0 0 0 0 0 0 0 0 0 0 0 0 0 0 0 16 169 
0 0 0 0 0 0 0 0 0 0 0 0 0 0 0 0 0 0 0 0 0 0 0 0 0 0 0 0 0 0 0 0 0 0 0 0 0 0 0 5 33 111 218 255 255 255 255 255 255 255 255 255 255 255 255 255 255 255 255 234 84 0 0 0 0 0 0 0 0 0 0 0 0 0 0 0 0 0 0 0 0 0 0 0 0 0 0 0 0 0 0 0 0 0 0 0 0 0 0 0 0 0 0 0 0 0 0 0 0 0 0 0 0 0 0 0 0 0 0 0 0 0 0 0 0 0 44 204 
0 0 0 0 0 0 0 0 0 0 0 0 0 0 0 0 0 0 0 0 0 0 0 0 0 0 0 0 0 0 0 0 0 0 0 0 0 0 0 31 169 252 255 255 255 255 255 255 255 255 255 255 255 255 255 255 255 255 255 255 211 50 0 0 0 0 0 0 0 0 0 0 0 0 0 0 0 0 0 0 0 0 0 0 0 0 0 0 0 0 0 0 0 0 0 0 0 0 0 0 0 0 0 0 0 0 0 0 0 0 0 0 0 0 0 0 0 0 0 0 0 0 0 0 0 1 122 246 
0 0 0 0 0 0 0 0 0 0 0 0 0 0 0 0 0 0 0 0 0 0 0 0 0 0 0 0 0 0 0 0 0 0 0 0 0 0 0 1 55 199 255 255 255 255 255 255 255 255 255 255 255 255 255 255 255 255 255 255 255 183 35 0 0 0 0 0 0 0 0 0 0 0 0 0 0 0 0 0 0 0 0 0 0 0 0 0 0 0 0 0 0 0 0 0 0 0 0 0 0 0 0 0 0 0 0 0 0 0 0 0 0 0 0 0 0 0 0 0 0 0 0 0 0 47 211 252 
0 0 0 0 0 0 0 0 0 0 0 0 0 0 0 0 0 0 0 0 0 0 0 0 0 0 0 0 0 0 0 0 0 0 0 0 0 0 0 0 0 53 205 255 255 255 255 255 255 255 255 255 255 255 255 255 255 255 255 255 255 254 182 37 0 0 0 0 0 0 0 0 0 0 0 0 0 0 0 0 0 0 0 0 0 0 0 0 0 0 0 0 0 0 0 0 0 0 0 0 0 0 0 0 0 0 0 0 0 0 0 0 0 0 0 0 0 0 0 0 0 0 0 0 32 181 255 250 
0 0 0 0 0 0 0 0 0 0 0 0 0 0 0 0 0 0 0 0 0 0 0 0 0 0 0 0 0 0 0 0 0 0 0 0 0 0 0 0 0 0 65 222 255 255 255 255 255 255 255 255 255 255 255 255 255 255 255 255 255 255 255 182 41 0 0 0 0 0 0 0 0 0 0 0 0 0 0 0 0 0 0 0 0 5 0 0 0 0 0 0 0 0 0 0 0 0 0 0 0 0 0 0 0 0 0 0 0 0 0 0 0 0 0 0 0 0 0 0 0 0 0 33 175 254 255 250 
0 0 0 0 0 0 0 0 0 0 0 0 0 0 0 0 0 0 0 0 0 0 0 0 0 0 0 0 0 0 0 0 0 0 0 0 0 0 0 0 0 0 0 90 235 255 255 255 255 255 255 255 255 255 255 255 255 255 255 255 255 255 255 255 200 71 7 0 0 0 0 0 0 0 0 0 0 0 0 0 0 0 0 1 74 124 11 0 0 0 0 0 0 0 0 0 0 0 0 0 0 0 0 0 0 0 0 0 0 0 0 0 0 0 0 0 0 0 0 0 0 0 43 181 254 255 255 250 
0 0 0 0 0 0 0 0 0 0 0 0 0 0 0 0 0 0 0 0 0 0 0 0 0 0 0 0 0 0 0 0 0 0 0 0 0 0 0 0 0 0 0 6 144 254 255 255 255 255 255 255 255 255 255 255 255 255 255 255 255 255 255 255 255 235 164 74 19 0 0 0 0 0 0 0 0 0 0 0 0 0 8 103 229 199 21 0 0 0 0 0 0 0 0 0 0 0 0 0 0 0 0 0 0 0 0 0 0 0 0 0 0 0 0 0 0 0 0 0 1 68 203 255 255 255 255 251 
48 0 0 0 0 0 0 0 0 0 0 0 0 0 0 0 0 0 0 0 0 0 0 0 0 0 3 19 11 1 0 0 0 0 0 0 0 0 0 0 0 0 0 0 48 215 255 255 255 255 255 255 255 255 255 255 255 255 255 255 255 255 255 255 255 255 255 243 199 141 82 32 7 0 0 0 0 0 0 0 0 20 133 241 255 211 33 0 0 0 0 0 0 0 0 0 0 0 0 0 0 0 0 0 0 0 0 0 0 0 0 0 0 0 0 0 0 0 0 21 119 227 255 255 255 255 255 251 
193 62 0 0 0 0 4 34 101 140 85 29 4 0 0 0 0 0 0 0 0 0 0 0 0 7 102 201 187 155 126 105 80 59 45 33 22 12 5 3 0 0 0 0 22 191 255 255 255 255 255 255 255 255 255 255 255 255 255 255 255 255 255 255 255 255 255 255 255 255 247 218 175 126 87 54 29 22 22 32 77 180 250 255 255 232 58 0 0 0 0 0 0 0 0 0 0 0 0 0 0 0 0 0 0 0 0 0 0 0 0 0 0 0 5 19 45 82 133 195 249 255 255 255 255 255 255 251 
252 217 120 53 51 95 160 218 252 255 248 214 161 102 54 18 0 0 0 0 0 0 0 0 38 147 241 255 255 255 255 255 249 241 233 223 210 190 172 163 149 140 127 144 180 241 255 255 255 255 255 255 255 255 255 255 255 255 255 255 255 255 255 255 255 255 255 255 255 255 255 255 255 255 251 236 218 209 210 221 244 255 255 255 255 254 164 36 6 0 0 0 0 0 0 0 0 0 0 0 0 0 0 0 0 0 0 2 9 21 38 65 97 126 167 202 230 249 255 255 255 255 255 255 255 255 255 251 
250 255 254 236 236 251 255 255 255 255 255 255 255 253 236 198 127 63 23 3 0 0 17 102 211 255 255 255 255 255 255 255 255 255 255 255 255 255 255 255 255 255 255 255 255 255 255 255 255 255 255 255 255 255 255 255 255 255 255 255 255 255 255 255 255 255 255 255 255 255 255 255 255 255 255 255 255 255 255 255 255 255 255 255 255 255 252 218 172 137 110 84 69 64 52 48 47 46 47 48 53 62 71 83 97 116 138 156 179 202 223 241 252 255 255 255 255 255 255 255 255 255 255 255 255 255 255 251 
250 255 255 255 255 255 255 255 255 255 255 255 255 255 255 255 255 241 208 161 126 141 192 247 255 255 255 255 255 255 255 255 255 255 255 255 255 255 255 255 255 255 255 255 255 255 255 255 255 255 255 255 255 255 255 255 255 255 255 255 255 255 255 255 255 255 255 255 255 255 255 255 255 255 255 255 255 255 255 255 255 255 255 255 255 255 255 255 255 255 255 250 246 243 237 235 234 233 234 234 237 241 245 250 253 255 255 255 255 255 255 255 255 255 255 255 255 255 255 255 255 255 255 255 255 255 255 251 
250 255 255 255 255 255 255 255 255 255 255 255 255 255 255 255 255 255 255 255 255 255 255 255 255 255 255 255 255 255 255 255 255 255 255 255 255 255 255 255 255 255 255 255 255 255 255 255 255 255 255 255 255 255 255 255 255 255 255 255 255 255 255 255 255 255 255 255 255 255 255 255 255 255 255 255 255 255 255 255 255 255 255 255 255 255 255 255 255 255 255 255 255 255 255 255 255 255 255 255 255 255 255 255 255 255 255 255 255 255 255 255 255 255 255 255 255 255 255 255 255 255 255 255 255 255 255 251 
250 255 255 255 255 255 255 255 255 255 255 255 255 255 255 255 255 255 255 255 255 255 255 255 255 255 255 255 255 255 255 255 255 255 255 255 255 255 255 255 255 255 255 255 255 255 255 255 255 255 255 255 255 255 255 255 255 255 255 255 255 255 255 255 255 255 255 255 255 255 255 255 255 255 255 255 255 255 255 255 255 255 255 255 255 255 255 255 255 255 255 255 255 255 255 255 255 255 253 241 238 245 255 255 255 255 255 255 255 255 255 255 255 255 255 255 255 255 255 255 255 255 255 255 255 255 255 251 
250 255 255 255 255 255 245 179 153 202 246 255 255 255 255 255 255 255 255 255 255 255 255 255 255 255 255 255 255 255 255 255 255 255 255 255 255 255 255 255 255 255 255 255 255 255 255 255 255 255 254 245 231 212 229 255 255 255 255 255 255 255 255 255 255 255 255 255 255 255 255 255 255 255 255 255 255 255 255 255 255 255 255 255 255 255 255 255 255 255 255 255 255 255 255 255 254 195 103 62 54 71 121 182 227 252 255 255 255 255 255 255 255 255 255 255 255 255 255 255 255 255 255 255 255 255 255 251 
250 255 255 255 255 237 115 13 0 22 84 170 233 255 255 255 255 255 255 255 255 255 255 255 255 255 255 255 255 255 255 255 255 255 255 255 255 255 255 255 255 255 255 255 248 234 216 191 161 131 99 70 43 31 160 255 255 255 255 255 255 255 255 255 255 255 255 255 255 255 255 255 253 248 245 248 251 254 255 255 255 255 255 255 255 255 255 255 255 255 255 255 255 255 255 225 127 29 0 0 0 0 0 10 41 100 180 229 252 255 255 255 255 255 255 255 255 255 249 247 255 255 255 255 255 255 255 251 
250 255 255 255 232 98 5 0 0 0 0 9 58 145 224 255 255 255 255 255 255 255 255 255 255 255 255 255 255 255 255 255 255 255 255 255 255 255 248 234 207 175 140 106 77 49 28 12 2 0 0 0 0 73 231 255 255 255 255 255 255 255 255 255 255 255 255 255 255 255 250 161 94 76 68 75 85 97 105 126 148 169 188 211 225 239 250 255 255 255 255 255 255 244 166 55 1 0 0 0 0 0 0 0 0 0 10 45 100 166 223 253 255 255 255 229 174 117 81 75 112 165 223 254 255 255 255 250 
251 255 255 242 110 2 0 0 0 0 0 0 0 3 43 131 218 254 255 255 255 255 255 255 255 255 255 255 255 255 255 255 255 253 232 195 150 112 79 48 22 6 0 0 0 0 0 0 0 0 0 0 27 187 255 255 255 255 255 255 255 255 255 255 255 255 255 255 255 255 235 59 0 0 0 0 0 0 0 0 0 4 11 24 35 56 85 114 144 176 209 235 221 99 11 0 0 0 0 0 0 0 0 0 0 0 0 0 0 5 39 110 189 200 126 48 8 0 0 0 0 4 41 117 205 252 255 250 
251 255 254 149 11 0 0 0 0 0 0 0 0 0 0 1 39 114 197 251 255 255 255 255 255 255 255 255 255 255 244 208 157 100 49 16 1 0 0 0 0 0 0 0 0 0 0 0 0 0 0 3 124 250 255 255 255 255 255 255 255 255 255 255 255 255 255 255 255 255 244 91 0 0 0 0 3 2 3 16 16 0 0 0 0 0 0 0 0 7 23 50 50 2 0 0 0 0 0 0 0 0 0 0 0 0 0 0 0 0 0 0 14 19 0 0 0 0 0 0 0 0 0 0 39 195 255 250 
251 255 241 74 0 0 0 0 0 0 0 0 0 0 0 0 0 0 23 119 223 255 255 255 255 255 255 251 218 151 76 24 3 0 0 0 0 0 0 0 0 0 0 0 0 0 0 0 0 0 0 55 222 255 255 255 255 255 255 255 255 255 255 255 255 255 255 255 255 255 255 186 20 0 9 70 99 97 128 149 161 123 48 4 0 0 0 0 0 0 0 0 0 0 0 0 0 0 0 0 0 0 0 0 0 0 0 0 0 0 0 0 0 0 0 0 0 0 0 0 0 0 0 0 0 94 243 251 
251 255 232 59 0 0 0 0 0 0 0 0 0 0 0 0 0 0 0 1 53 190 255 255 255 245 184 100 36 3 0 0 0 0 0 0 0 0 0 0 0 0 0 0 0 0 0 0 0 0 14 165 255 255 255 255 255 255 255 255 255 255 255 255 255 255 255 255 255 255 255 245 104 8 84 194 240 227 246 253 240 245 225 135 31 0 0 0 0 0 0 0 0 0 0 0 0 0 0 0 0 0 0 0 0 0 0 0 0 0 0 0 0 0 0 0 0 0 0 0 0 0 0 0 0 26 203 255 
251 255 252 119 0 0 0 0 0 0 0 0 0 0 0 0 0 0 0 0 0 64 232 248 185 86 15 0 0 0 0 0 0 0 0 0 0 0 0 0 0 0 0 0 0 0 0 0 0 3 113 245 255 255 255 255 255 255 255 255 255 255 255 255 255 255 255 255 255 255 255 255 230 140 163 248 255 255 255 255 255 254 255 255 192 55 0 0 0 0 0 0 0 0 0 0 0 0 0 0 0 0 0 0 0 0 0 0 0 0 0 0 0 0 0 15 48 73 72 50 23 4 0 0 0 6 95 149 
251 255 255 201 36 0 0 0 0 0 0 0 0 0 0 0 0 0 0 0 0 13 130 96 17 0 0 0 0 0 0 0 0 0 0 0 0 0 0 0 0 0 0 0 0 0 0 0 0 71 229 255 255 255 255 255 255 255 255 255 255 255 255 255 255 255 255 255 255 255 255 255 255 253 230 248 255 255 255 255 255 255 255 255 255 210 92 12 0 0 0 0 0 0 0 0 0 0 0 0 0 0 0 0 0 0 0 0 0 0 0 0 0 5 55 148 217 242 245 235 210 166 111 56 17 0 0 0 
251 255 255 253 166 25 0 0 0 0 0 0 0 0 0 0 0 0 0 0 0 1 5 0 0 0 0 0 0 0 0 0 0 0 0 0 0 0 0 0 0 0 0 0 0 0 0 0 55 203 255 255 255 255 255 255 255 255 255 255 255 255 255 255 255 255 255 255 255 255 255 255 255 255 255 255 255 255 255 255 255 255 255 255 255 255 245 170 53 0 0 0 0 0 0 0 0 0 0 0 0 0 0 0 0 0 0 0 0 0 0 0 0 55 181 249 255 255 255 255 255 255 255 238 198 136 65 14 
255 255 255 255 255 180 54 1 0 0 0 0 0 0 0 0 0 0 0 0 0 0 0 0 0 0 0 0 0 0 0 0 0 0 0 0 0 0 0 0 0 0 0 0 0 0 3 74 208 255 255 255 255 255 255 255 255 255 255 255 255 255 255 255 255 255 255 255 255 255 255 255 255 255 255 255 255 255 255 255 255 255 255 255 255 255 255 255 214 73 1 0 0 0 0 0 0 0 0 0 0 0 0 3 40 93 84 30 0 0 0 0 36 146 242 255 255 255 255 255 255 255 255 255 255 255 240 187 
172 168 169 184 199 216 199 95 9 0 0 0 0 0 0 0 0 0 0 0 0 0 0 0 0 0 0 0 0 0 0 0 0 0 0 0 0 0 0 0 0 0 0 0 0 9 103 230 255 255 255 255 255 255 255 255 255 255 255 255 255 255 255 255 255 255 255 255 255 255 255 255 255 255 255 255 255 255 255 255 255 255 255 255 255 255 255 255 255 218 73 0 0 0 0 0 0 0 0 0 0 0 0 7 104 228 252 208 122 84 97 125 166 234 255 255 255 255 255 255 255 255 255 255 255 255 255 253 
6 4 4 9 15 27 48 52 10 0 0 0 0 0 0 0 0 0 0 0 0 0 0 0 0 0 0 0 0 0 0 0 0 0 0 0 0 0 0 0 0 0 0 3 57 161 242 255 255 255 255 255 255 255 255 255 255 255 255 255 255 255 255 255 255 255 255 255 255 255 255 255 255 255 255 255 255 255 255 255 255 255 255 255 255 255 255 255 255 255 214 81 11 0 0 0 0 0 0 0 0 0 0 0 15 72 158 240 255 249 248 254 255 255 255 255 255 255 255 255 255 255 255 255 255 255 255 250 
0 0 0 0 0 0 0 0 0 0 0 0 0 0 0 0 0 0 0 0 0 0 0 0 0 0 0 0 0 0 0 0 0 0 0 0 0 0 0 0 0 5 49 140 228 255 255 255 255 255 255 255 255 255 255 255 255 255 255 255 255 255 255 255 255 255 255 255 255 255 255 252 251 255 255 255 255 255 255 255 255 255 255 255 255 255 255 255 255 255 255 242 187 121 68 29 4 0 0 0 0 0 0 0 0 0 38 185 254 255 255 255 255 255 255 255 255 255 255 255 255 255 255 255 255 255 255 250 
0 0 0 0 0 0 0 0 0 0 0 0 0 0 0 0 0 0 0 0 0 0 0 0 0 0 0 0 0 0 0 0 0 0 0 0 0 0 0 16 75 160 229 255 255 255 255 255 255 255 255 255 255 255 255 255 255 255 255 255 255 255 255 255 255 255 255 255 255 248 198 106 88 171 236 255 255 255 255 255 255 255 255 255 255 255 255 255 255 255 255 255 255 255 244 217 167 97 31 0 0 0 0 0 0 10 89 217 255 255 255 255 255 255 255 255 255 255 255 255 255 255 255 255 255 255 255 250 
0 0 0 0 0 0 0 0 0 0 0 0 0 0 0 0 0 0 0 0 0 0 0 0 0 0 0 0 0 0 0 0 0 0 0 0 0 1 37 128 204 238 250 255 255 255 255 255 255 255 255 255 255 255 255 255 255 255 255 255 255 255 255 255 255 255 255 255 244 120 22 0 0 6 54 132 202 244 255 255 255 255 255 255 255 255 255 255 255 255 255 255 255 255 255 255 255 253 215 107 13 0 0 0 12 73 183 248 255 255 255 255 255 255 255 255 255 255 255 255 252 237 244 254 255 255 255 254 
0 0 0 0 0 0 0 0 0 0 0 0 0 0 0 0 0 0 0 0 0 0 0 0 0 0 0 0 0 0 0 0 0 0 0 0 0 1 10 22 30 51 77 109 165 225 254 255 255 255 255 255 255 255 255 255 255 255 255 255 255 255 255 255 255 255 255 255 242 99 1 0 0 0 0 0 16 65 135 202 245 255 255 255 255 255 255 255 255 255 255 255 255 255 255 255 255 255 255 250 159 25 0 1 33 136 226 252 246 250 255 255 255 255 255 255 255 255 255 255 244 135 68 100 131 154 173 182 
49 26 8 0 0 0 0 0 0 0 0 0 0 0 0 0 0 0 0 0 0 0 0 0 0 0 0 0 0 0 0 0 0 0 0 0 0 0 0 0 0 0 0 0 6 44 106 176 236 255 255 255 255 255 255 255 255 255 255 255 255 255 255 255 255 255 255 255 255 232 131 28 0 0 3 15 19 21 14 16 74 167 238 255 255 255 255 255 255 255 255 255 255 255 255 255 255 255 255 255 253 146 13 0 20 99 194 220 194 216 250 255 255 255 255 255 255 254 255 239 168 71 0 0 0 1 6 11 
230 212 180 147 105 45 3 0 0 0 0 0 0 0 0 0 0 0 0 0 0 0 0 0 0 0 0 0 0 0 0 0 0 0 0 0 0 0 0 0 0 0 0 0 0 0 0 9 60 153 232 255 255 255 255 255 255 255 255 255 255 255 255 255 255 255 255 255 255 255 253 199 92 16 8 112 200 209 192 123 122 139 123 152 220 252 255 255 255 255 255 255 255 255 255 255 255 255 255 255 255 244 162 94 70 120 197 230 242 250 254 255 255 255 252 240 207 185 226 186 63 4 0 0 0 0 0 0 
251 255 255 255 250 136 8 0 0 0 0 0 0 0 0 0 0 0 0 0 0 0 0 0 0 0 0 0 0 0 0 0 0 0 0 0 0 0 0 0 0 0 0 0 0 0 0 0 0 6 54 145 230 255 255 255 255 255 255 255 255 255 255 255 255 255 255 255 255 255 255 255 247 179 71 39 148 244 255 255 254 255 226 137 152 232 255 255 255 255 255 255 255 255 255 255 255 255 255 255 255 255 255 253 241 238 251 255 255 255 255 255 255 229 164 108 57 26 94 82 32 1 0 0 0 0 0 0 
251 255 250 208 113 21 0 0 0 0 0 0 0 0 0 0 0 0 0 0 0 0 0 0 0 0 0 0 0 0 0 0 0 0 0 0 0 0 0 0 0 0 0 0 0 0 0 0 0 0 0 4 56 162 240 255 255 255 255 255 255 255 255 255 255 255 255 255 255 255 255 255 255 255 239 163 102 192 254 255 255 255 255 255 251 254 255 255 255 255 255 255 255 255 255 255 255 255 255 255 255 255 255 255 255 255 255 255 255 255 255 255 255 237 200 205 195 115 19 4 1 1 0 0 0 0 0 0 
235 193 102 28 0 0 0 0 0 2 5 3 0 0 0 0 0 0 0 0 0 0 0 0 0 8 41 14 0 0 0 0 0 0 0 0 0 0 0 0 0 0 0 0 0 0 0 0 0 0 0 0 0 9 78 187 249 255 255 255 255 255 255 255 255 255 255 255 255 255 255 255 255 255 255 255 249 248 255 255 255 255 255 255 255 255 255 255 255 255 255 255 255 255 255 255 255 255 255 255 255 255 255 255 255 255 255 255 255 255 255 255 255 255 255 255 255 225 77 0 0 0 0 0 0 0 0 5 
63 20 0 0 0 2 26 68 112 157 176 157 52 0 0 0 0 0 0 0 0 0 0 0 0 8 138 184 99 28 0 0 0 0 0 0 0 0 0 0 0 0 0 0 0 0 0 0 0 0 0 0 0 0 0 20 105 212 255 255 255 255 255 255 255 255 255 255 255 255 255 255 255 255 255 255 255 255 255 255 255 255 255 255 255 255 255 255 255 255 255 255 255 255 255 255 255 255 255 255 255 255 255 255 255 255 255 255 255 255 255 255 255 255 255 253 204 111 29 0 0 0 0 0 0 0 17 127 
0 0 3 27 78 152 212 244 255 255 255 255 177 15 0 0 0 0 0 0 0 0 0 0 0 0 54 224 252 210 135 71 25 3 0 0 0 0 0 0 0 0 0 0 0 0 0 0 0 0 0 0 0 0 0 0 0 39 144 236 255 255 255 255 255 255 255 255 255 255 255 255 255 255 255 255 255 255 255 255 255 255 255 255 255 255 255 255 255 255 255 255 255 255 255 255 255 255 255 255 255 255 255 255 255 255 255 255 255 255 255 255 255 255 255 255 221 81 1 0 0 0 0 0 0 0 63 228 
5 34 110 184 228 243 242 240 240 240 239 240 214 53 0 0 0 0 0 0 0 0 0 0 0 0 6 135 239 243 242 226 180 108 50 20 6 1 0 0 0 0 0 0 0 0 0 0 0 0 0 0 0 0 0 0 0 0 7 120 234 240 240 240 240 240 240 240 240 240 240 240 240 240 240 240 240 240 240 240 240 240 240 240 240 240 240 240 240 240 240 240 240 240 240 240 240 240 240 240 240 240 240 240 240 240 240 240 240 240 240 240 240 240 240 240 243 196 45 0 0 0 0 0 0 0 48 197 
