P2
128 48
255
0 0 0 0 0 0 0 0 0 0 0 0 0 0 0 0 0 0 0 0 0 0 0 0 0 0 0 0 0 0 0 0 0 0 0 0 0 0 0 0 0 0 0 0 0 0 0 0 0 0 0 0 0 0 0 0 0 0 0 0 0 0 0 0 0 0 0 0 0 0 0 0 0 0 0 0 0 0 0 0 0 0 0 0 0 0 0 0 0 0 0 0 0 0 0 0 0 0 0 0 0 0 0 0 0 0 0 0 0 0 0 0 0 0 0 0 0 0 0 0 0 0 0 0 0 0 0 0 
0 0 0 0 0 0 0 0 0 0 0 0 0 0 0 0 0 0 0 0 0 0 0 0 0 0 0 0 0 0 0 0 0 0 0 0 0 0 0 0 0 0 0 0 0 0 0 0 0 0 0 0 0 0 0 0 0 0 0 0 0 0 0 0 0 0 0 0 0 0 0 0 0 0 0 0 0 0 0 0 0 0 0 0 0 0 0 0 0 0 0 0 0 0 0 0 0 0 0 0 0 0 0 0 0 0 0 0 0 0 0 0 0 0 0 0 0 0 0 0 0 0 0 0 0 0 0 0 
0 0 0 0 0 0 0 0 0 0 0 0 0 0 0 0 0 0 0 0 0 0 0 0 0 0 0 0 0 0 0 0 0 0 0 0 0 0 0 0 0 0 0 0 0 0 0 0 0 0 0 0 0 0 0 11 24 37 41 40 37 27 17 21 32 41 53 58 58 53 38 25 11 0 0 0 0 0 0 0 0 0 0 0 0 0 0 0 0 0 0 0 0 0 0 0 0 0 0 0 0 0 0 0 0 0 0 0 0 0 0 0 0 0 0 0 0 0 0 0 0 0 0 0 0 0 0 0 
0 0 0 0 0 0 0 0 0 0 0 0 0 0 0 0 0 0 0 0 0 0 0 0 0 0 0 0 0 0 0 0 0 0 0 0 0 0 0 0 0 0 0 0 0 0 0 0 0 0 0 5 51 107 157 193 216 229 232 232 229 219 206 212 224 233 240 243 243 240 230 217 192 150 91 28 0 0 0 0 0 0 0 0 0 0 0 0 0 0 0 0 0 0 0 0 0 0 0 0 0 0 0 0 0 0 0 0 0 0 0 0 0 0 0 0 0 0 0 0 0 0 0 0 0 0 0 0 
0 0 0 0 0 0 0 0 0 0 0 0 0 0 0 0 0 0 0 0 0 0 0 0 0 0 0 0 0 0 0 0 0 0 0 0 0 0 0 0 0 0 0 0 0 0 0 0 0 0 51 162 235 255 255 255 255 255 255 255 255 255 255 255 255 255 255 255 255 255 255 255 255 255 253 212 113 16 0 0 0 0 0 0 0 0 0 0 0 0 0 0 0 0 0 0 0 0 0 0 0 0 0 0 0 0 0 0 0 0 0 0 0 0 0 0 0 0 0 0 0 0 0 0 0 0 0 0 
0 0 0 0 0 0 0 0 0 0 0 0 0 0 0 0 0 0 0 0 0 0 0 0 0 0 0 0 0 0 0 0 0 0 0 0 0 0 0 0 0 0 0 0 0 0 0 0 0 67 222 255 255 255 255 255 255 255 255 255 255 255 255 255 255 255 255 255 255 255 255 255 255 255 255 255 254 170 25 27 92 106 80 38 6 0 0 0 0 0 0 0 0 0 0 0 0 0 0 0 0 0 0 0 0 0 0 0 0 0 0 0 0 0 0 0 0 0 0 0 0 0 0 0 0 0 0 0 
0 0 0 0 0 0 0 0 0 0 0 0 0 0 0 0 0 0 0 0 0 0 0 0 0 0 0 0 0 0 0 0 0 0 0 0 0 0 0 0 0 0 0 0 0 0 0 0 22 199 255 255 255 255 255 255 255 255 255 255 255 255 255 255 255 255 255 255 255 255 255 255 255 255 255 255 255 255 177 200 254 255 250 228 175 89 17 0 0 0 0 0 0 0 0 0 0 0 0 0 0 0 0 0 0 0 0 0 0 0 0 0 0 0 0 0 0 0 0 0 0 0 0 0 0 0 0 0 
0 0 0 0 0 0 0 0 0 0 0 0 0 0 0 0 0 0 0 0 0 0 0 0 0 0 0 0 0 0 0 0 0 0 0 0 0 0 0 0 0 0 0 0 0 0 0 0 85 250 255 255 255 255 255 255 255 255 255 255 255 255 255 255 255 255 255 255 255 255 255 255 255 255 255 255 255 255 255 255 255 255 255 255 255 251 190 71 1 0 0 0 0 0 0 0 0 0 0 0 0 0 0 0 0 0 0 0 0 0 0 0 0 0 0 0 0 0 0 0 0 0 0 0 0 0 0 0 
0 0 0 0 0 0 0 0 0 0 0 0 0 0 0 0 0 0 0 0 0 0 0 0 0 0 0 0 0 0 0 0 0 0 0 0 0 0 0 0 0 0 0 0 0 0 0 0 117 255 255 255 255 255 255 255 255 255 255 255 255 255 255 255 255 255 255 255 255 255 255 255 255 255 255 255 255 255 255 255 255 255 255 255 255 255 255 232 66 0 0 0 0 0 0 0 0 0 0 0 0 0 0 0 0 0 0 0 0 0 0 0 0 0 0 0 0 0 0 0 0 0 0 0 0 0 0 0 
0 0 0 0 0 0 0 0 0 0 0 0 0 0 0 0 0 0 0 0 0 0 0 0 0 0 0 0 0 0 0 0 0 0 0 0 0 0 0 0 0 0 0 0 0 0 0 0 84 246 255 255 255 255 255 255 255 255 255 255 255 255 255 255 255 255 255 255 255 255 255 255 255 255 255 255 255 255 255 255 255 255 255 255 255 255 255 255 166 4 0 0 0 0 0 0 0 0 0 0 0 0 0 0 0 0 0 0 0 0 0 0 0 0 0 0 0 0 0 0 0 0 0 0 0 0 0 0 
0 0 0 0 0 0 0 0 0 0 0 0 0 0 0 0 0 0 0 0 0 0 0 0 0 0 0 0 0 0 0 0 0 0 0 0 0 0 0 0 0 0 0 0 0 0 0 0 24 209 255 255 255 255 255 255 255 255 255 255 255 255 255 255 255 255 255 255 255 255 255 255 255 255 255 255 255 255 255 255 255 255 255 255 255 255 255 255 231 53 0 0 0 0 0 0 0 0 0 0 0 0 0 0 0 0 0 0 0 0 0 0 0 0 0 0 0 0 0 0 0 0 0 0 0 0 0 0 
0 0 0 0 0 0 0 0 0 0 0 0 0 0 0 0 0 0 0 0 0 0 0 0 0 0 0 0 0 0 0 0 0 0 0 0 0 0 0 0 0 0 0 0 0 0 0 19 141 248 255 255 255 255 255 255 255 255 255 255 255 255 255 255 255 255 255 255 255 255 255 255 255 255 255 255 255 255 255 255 255 255 255 255 255 255 255 252 226 105 0 0 0 0 0 0 0 0 0 0 0 0 0 0 0 0 0 0 0 0 0 0 0 0 0 0 0 0 0 0 0 0 0 0 0 0 0 0 
0 0 0 0 0 0 0 0 0 0 0 0 0 0 0 0 0 0 0 0 0 0 0 0 0 0 0 0 0 0 0 0 0 0 0 0 0 0 0 0 0 0 0 0 0 19 88 194 253 255 255 255 255 255 255 255 255 255 255 255 255 255 255 255 255 255 255 255 255 255 255 255 255 255 255 255 255 255 249 190 241 255 255 255 255 255 255 168 34 8 0 0 0 0 0 0 0 0 0 0 0 0 0 0 0 0 0 0 0 0 0 0 0 0 0 0 0 0 0 0 0 0 0 0 0 0 0 0 
0 0 0 0 0 0 0 0 0 0 0 0 0 0 0 0 0 0 0 0 0 0 0 0 0 0 0 0 0 0 0 0 0 0 0 0 0 0 0 0 0 0 0 5 101 203 249 255 255 254 254 255 255 255 255 255 255 255 255 255 255 255 255 255 255 255 255 255 255 255 255 255 255 255 255 255 255 253 152 28 197 255 255 255 255 255 242 71 0 0 0 0 0 0 0 0 0 0 0 0 0 0 0 0 0 0 0 0 0 0 0 0 0 0 0 0 0 0 0 0 0 0 0 0 0 0 0 0 
0 0 0 0 0 0 0 0 0 0 0 0 0 0 0 0 0 0 0 0 0 0 0 0 0 0 0 0 0 0 0 0 0 0 0 0 0 0 0 0 0 0 0 2 50 97 103 162 173 112 214 255 255 255 255 255 255 255 255 255 255 255 255 255 255 255 255 255 255 255 255 255 255 255 255 255 255 207 27 5 188 255 255 255 255 255 255 167 9 0 0 0 0 0 0 0 0 0 0 0 0 0 0 0 0 0 0 0 0 0 0 0 0 0 0 0 0 0 0 0 0 0 0 0 0 0 0 0 
0 0 0 0 0 0 0 0 0 0 0 0 0 0 0 0 0 0 0 0 0 0 0 0 0 0 0 0 0 0 0 0 0 0 0 0 0 0 0 0 0 0 0 0 0 0 0 2 32 121 230 255 255 255 255 255 255 255 255 255 255 255 255 255 255 255 255 255 255 255 255 255 255 255 255 255 255 237 115 62 209 255 255 255 255 255 255 245 75 0 0 0 0 0 0 0 0 0 0 0 0 0 0 0 0 0 0 0 0 0 0 0 0 0 0 0 0 0 0 0 0 0 0 0 0 0 0 0 
0 0 0 0 0 0 0 0 0 0 0 0 0 0 0 0 0 0 0 0 0 0 0 0 0 0 0 0 0 0 0 0 0 0 0 0 0 0 0 0 0 0 0 0 0 0 0 3 48 60 140 158 233 255 255 255 255 255 255 255 255 255 255 255 255 255 255 255 255 255 255 255 255 255 248 214 175 216 81 62 236 255 255 255 255 255 255 255 161 3 0 0 0 0 0 0 0 0 0 0 0 0 0 0 0 0 0 0 0 0 0 0 0 0 0 0 0 0 0 0 0 0 0 0 0 0 0 0 
0 0 0 0 0 0 0 0 0 0 0 0 0 0 0 0 0 0 0 0 0 0 0 0 0 0 0 0 0 0 0 0 0 0 0 0 0 0 0 0 0 0 0 0 0 0 0 0 0 0 21 6 71 199 255 255 252 255 255 255 255 255 255 255 255 255 255 255 255 255 251 252 255 254 143 36 12 54 10 64 231 253 255 255 255 255 255 255 218 31 0 0 0 0 0 0 0 0 0 0 0 0 0 0 0 0 0 0 0 0 0 0 0 0 0 0 0 0 0 0 0 0 0 0 0 0 0 0 
0 0 0 0 0 0 0 0 0 0 0 0 0 0 0 0 0 0 0 0 0 0 0 0 0 0 0 0 0 0 0 0 0 0 0 0 0 0 0 0 0 0 0 0 0 0 0 0 0 0 0 0 0 119 244 232 219 143 225 255 255 255 255 255 255 255 255 255 252 216 151 237 254 191 21 0 0 0 0 39 198 249 255 255 255 255 255 255 243 74 0 0 0 0 0 0 0 0 0 0 0 0 0 0 0 0 0 0 0 0 0 0 0 0 0 0 0 0 0 0 0 0 0 0 0 0 0 0 
0 0 0 0 0 0 0 0 0 0 0 0 0 0 0 0 0 0 0 0 0 0 0 0 0 0 0 0 0 0 0 0 0 0 0 0 0 0 0 0 0 0 0 0 0 0 0 0 0 0 0 0 0 61 165 143 185 20 43 163 255 255 255 255 255 255 255 250 132 26 68 195 148 94 0 0 0 0 0 2 132 234 247 255 255 255 255 255 216 37 0 0 0 0 0 0 0 0 0 0 0 0 0 0 0 0 0 0 0 0 0 0 0 0 0 0 0 0 0 0 0 0 0 0 0 0 0 0 
0 0 0 0 0 0 0 0 0 0 0 18 19 2 0 0 0 0 0 0 0 0 0 0 0 0 0 0 0 0 0 0 0 0 0 0 0 0 0 0 0 0 0 0 0 0 0 0 0 0 0 0 0 25 54 63 92 8 17 112 249 255 255 255 255 255 255 234 80 10 57 121 30 10 1 0 0 0 0 0 18 176 254 255 255 255 232 240 122 0 0 0 0 0 0 0 0 0 0 0 0 0 0 0 0 0 0 0 0 0 0 0 0 0 0 0 0 0 0 0 0 0 0 0 0 0 0 0 
0 0 0 0 0 0 0 0 0 37 129 208 211 161 105 59 26 6 0 0 0 0 0 0 0 0 0 0 0 0 0 0 0 0 0 0 0 0 0 0 0 0 0 0 0 0 0 0 0 0 0 0 0 1 27 80 139 168 210 245 255 255 255 255 255 255 255 254 240 200 167 131 54 11 0 0 0 0 0 0 0 80 233 246 254 255 198 152 20 0 0 0 0 0 0 0 0 0 0 0 0 0 0 0 0 0 0 0 0 0 0 3 20 48 96 147 136 52 2 0 0 0 0 0 0 0 0 0 
0 0 0 0 0 0 0 37 129 222 255 220 183 222 248 245 221 183 136 87 45 15 0 0 0 0 0 0 0 0 0 0 0 0 0 0 0 0 0 0 0 0 0 0 0 0 0 0 0 0 0 0 49 146 216 248 255 255 255 255 255 255 255 255 255 255 255 255 255 255 255 254 237 191 104 16 0 0 0 0 0 24 90 172 209 228 128 40 0 0 0 0 0 0 0 0 0 0 0 0 0 0 0 0 0 0 0 15 41 78 124 171 212 239 244 233 253 235 150 50 1 0 0 0 0 0 0 0 
0 0 0 0 4 50 135 221 255 234 135 34 5 28 73 127 179 222 255 252 233 203 155 97 44 10 0 0 0 0 0 0 0 0 0 0 0 0 0 0 0 0 0 0 0 0 0 0 0 0 10 109 228 255 255 255 255 255 255 255 255 255 255 255 255 255 255 255 255 255 255 255 255 255 253 178 52 0 0 0 0 0 1 40 65 85 10 0 0 0 0 0 0 0 0 0 0 0 0 0 0 0 0 15 53 107 157 201 231 248 246 226 183 128 70 36 101 213 255 231 146 51 5 0 0 0 0 0 
0 0 21 81 165 234 255 255 255 195 26 0 0 0 0 0 11 122 250 255 216 149 174 210 221 191 131 69 26 4 0 0 0 0 0 0 0 0 0 0 0 0 0 1 0 0 0 0 0 42 165 250 255 255 255 255 255 255 255 255 255 255 255 255 255 255 255 255 255 255 255 255 255 255 255 255 227 118 20 0 0 0 0 0 0 0 0 0 0 0 0 0 0 0 0 0 0 0 0 7 36 86 150 200 222 212 189 230 255 240 104 28 7 0 0 0 0 54 216 255 255 234 166 76 16 0 0 0 
72 138 207 251 255 242 206 226 254 251 174 63 0 0 0 1 115 243 255 255 249 155 19 22 66 130 198 233 217 173 125 84 59 41 32 31 32 35 46 61 82 111 147 166 140 105 76 55 106 219 255 255 255 255 255 255 255 255 255 255 255 255 255 255 255 255 255 255 255 255 255 255 255 255 255 255 255 254 193 76 39 58 80 110 129 109 76 50 33 22 13 10 10 10 16 29 49 85 132 183 224 220 171 108 56 26 129 239 255 254 202 62 0 0 0 0 19 133 250 252 236 246 255 248 198 120 49 10 
244 255 255 220 149 75 157 253 255 255 255 224 68 0 0 62 235 255 255 255 255 254 123 0 0 0 15 61 190 255 255 238 223 203 193 193 193 195 208 241 252 241 228 231 238 240 245 242 251 255 255 255 255 255 255 255 255 255 255 255 255 255 255 255 255 255 255 255 255 255 255 255 255 255 255 255 255 255 255 244 231 238 243 248 250 245 244 239 224 204 187 176 178 182 196 217 234 251 255 197 95 35 4 0 0 85 243 255 255 255 255 214 51 0 0 17 171 253 255 255 244 180 163 228 255 255 236 185 
221 153 88 31 0 58 240 255 255 255 255 255 177 8 0 58 234 255 255 255 255 255 115 0 0 0 0 76 211 255 254 202 77 34 34 35 35 35 107 238 255 209 99 36 42 55 191 255 255 255 255 255 255 255 255 255 255 255 255 255 255 255 255 255 255 255 255 255 255 255 255 255 255 255 255 255 255 255 255 255 255 166 68 66 68 125 220 255 232 110 65 58 62 69 74 108 211 255 255 168 31 0 0 0 0 133 255 255 255 255 255 254 97 0 0 120 254 255 255 255 255 238 88 39 113 185 233 252 
192 71 0 0 0 23 195 255 255 255 255 254 113 0 0 2 141 255 255 255 255 216 32 0 0 0 47 222 255 255 255 255 170 22 0 0 0 45 221 255 255 255 233 100 2 0 82 232 255 255 255 255 255 255 255 255 255 255 255 255 255 255 255 255 255 255 255 255 255 255 255 255 255 255 255 255 255 255 255 255 209 52 0 0 95 231 254 255 254 179 12 0 0 0 6 147 252 255 255 255 187 24 0 0 0 43 224 255 255 255 255 215 30 0 0 114 254 255 255 255 255 253 98 0 0 7 63 212 
252 240 109 4 0 0 78 243 255 255 255 216 32 0 0 0 37 217 255 255 255 131 0 0 0 0 120 255 255 255 255 255 247 72 0 0 0 127 255 255 255 255 255 236 53 22 164 246 255 255 255 255 255 255 255 255 255 255 255 255 255 255 255 255 255 255 255 255 255 255 255 255 255 255 255 255 255 255 255 255 231 97 0 73 238 255 255 255 255 248 78 0 0 0 75 246 255 255 255 255 255 117 0 0 0 0 133 255 255 255 255 136 0 0 0 20 194 255 255 255 255 219 33 0 0 24 162 240 
251 255 241 73 0 0 6 158 255 255 255 133 0 0 0 0 0 111 253 255 229 45 0 0 0 0 46 222 255 255 255 255 205 22 0 0 0 74 235 255 255 255 255 229 39 2 47 174 255 255 255 255 255 255 255 255 255 255 255 255 255 255 255 255 255 255 255 255 255 255 255 255 255 255 255 255 255 255 255 241 121 36 0 83 251 255 255 255 255 237 67 0 0 0 44 227 255 255 255 255 247 84 0 0 0 0 36 219 255 255 233 51 0 0 0 0 78 243 255 255 255 151 1 0 3 137 255 252 
251 255 233 52 0 0 0 44 222 255 230 48 0 0 0 0 0 20 195 255 153 3 0 0 0 0 0 109 252 255 255 255 128 0 0 0 0 0 117 250 255 255 255 191 11 0 37 215 255 255 255 255 255 255 255 255 255 255 255 255 255 255 255 255 255 255 255 255 255 255 255 255 255 255 255 255 255 255 255 253 112 0 0 45 234 255 255 255 252 122 2 0 0 0 2 153 255 255 255 255 183 12 0 0 0 0 0 124 255 255 166 5 0 0 0 0 6 160 255 255 246 74 0 0 13 190 255 251 
251 255 164 5 0 0 0 0 117 255 157 3 0 0 0 0 0 0 82 216 60 0 0 0 0 0 0 17 184 255 255 235 52 0 0 0 0 0 10 158 255 255 255 143 0 1 142 255 255 255 255 255 255 255 255 255 255 255 255 255 255 255 255 255 255 255 255 255 255 255 255 255 255 255 255 255 255 255 255 255 209 25 0 20 208 255 255 255 172 13 0 0 0 0 0 65 241 255 255 247 82 0 0 0 0 0 0 32 215 250 79 0 0 0 0 0 0 47 225 255 202 20 0 0 0 77 240 252 
252 246 78 0 0 0 0 0 20 144 56 0 0 0 0 0 0 0 6 37 4 0 0 0 0 0 0 0 61 235 255 176 8 0 0 0 0 0 0 30 197 255 253 94 0 34 223 255 255 255 255 255 255 255 255 255 255 255 255 255 255 255 255 255 255 255 255 255 255 255 255 255 255 255 255 255 255 255 255 255 249 77 0 4 173 255 255 213 42 0 0 0 0 0 0 11 183 255 255 183 12 0 0 0 0 0 0 0 109 175 16 0 0 0 0 0 0 0 123 255 127 0 0 0 0 3 140 252 
254 197 18 0 0 0 0 0 0 2 0 0 0 0 0 0 0 0 0 0 0 0 0 0 0 0 0 0 2 134 252 96 0 0 0 0 0 0 0 0 59 229 238 46 0 85 249 255 255 255 255 255 255 255 255 255 255 255 255 255 255 255 255 255 255 255 255 255 255 255 255 255 255 255 255 255 255 255 255 255 255 124 4 0 130 255 239 80 0 0 0 0 0 0 0 0 97 252 248 83 0 0 0 0 0 0 0 0 8 20 0 0 0 0 0 0 0 0 23 139 43 0 0 0 0 0 30 187 
252 116 0 0 0 0 0 0 0 0 0 0 0 0 0 0 0 0 0 0 0 0 0 0 0 0 0 0 0 24 118 24 0 0 0 0 0 0 0 0 0 98 200 103 157 221 255 255 255 255 247 241 254 254 255 255 255 255 255 255 255 255 255 255 255 255 255 255 255 255 255 255 255 255 255 212 229 255 255 255 255 235 180 113 131 248 124 0 0 0 0 0 0 0 0 0 26 213 193 15 0 0 0 0 0 0 0 0 0 0 0 0 0 0 0 0 0 0 0 1 0 0 0 0 0 0 0 51 
175 37 0 0 0 0 0 0 0 0 0 0 0 0 0 0 0 0 0 0 0 0 0 0 0 0 0 0 0 0 0 0 0 0 0 0 0 0 0 10 60 144 231 251 255 255 255 255 255 245 124 86 167 251 255 255 255 255 255 255 255 255 255 255 255 255 255 255 255 255 255 255 255 255 230 57 94 238 255 255 255 255 255 255 246 241 124 41 5 0 0 0 0 0 0 0 0 80 63 0 0 0 0 0 0 0 0 0 0 0 0 0 0 0 0 0 0 0 0 0 0 0 0 0 0 0 0 0 
12 0 0 0 0 0 0 0 0 0 0 0 0 0 0 0 0 0 0 0 0 0 0 0 0 0 0 0 0 0 0 0 0 0 0 0 0 29 101 184 241 255 255 255 255 255 255 247 194 86 5 0 106 255 255 255 255 255 255 255 255 255 255 255 255 255 255 255 255 255 255 255 255 255 233 45 0 69 176 239 255 255 255 255 255 255 255 229 171 93 31 1 0 0 0 0 0 0 0 0 0 0 0 0 0 0 0 0 0 0 0 0 0 0 0 0 0 0 0 0 0 0 0 0 0 0 0 0 
0 0 0 0 0 0 0 0 0 0 0 0 0 0 0 0 0 0 0 0 0 0 0 0 0 0 0 0 0 0 0 0 0 0 9 57 141 216 253 255 255 255 255 255 251 217 153 75 16 0 0 0 145 255 255 255 255 255 255 255 255 255 255 255 255 255 255 255 255 255 255 255 255 255 254 108 0 0 9 56 123 187 233 254 255 255 255 255 255 252 219 153 77 21 2 2 6 7 5 1 0 0 0 0 0 0 0 0 0 0 0 0 0 0 0 0 0 0 0 0 0 0 0 0 0 0 0 0 
0 0 0 0 0 0 0 0 0 0 0 0 0 0 0 0 0 0 0 0 0 0 2 18 40 46 49 54 48 31 10 2 27 95 180 238 255 255 255 255 255 250 218 157 86 29 1 0 0 0 0 1 155 255 255 255 255 255 255 255 255 255 255 255 255 255 255 255 255 255 255 255 255 255 254 115 0 0 0 0 0 10 44 101 164 216 247 255 255 255 255 255 247 208 166 165 181 184 180 159 133 108 67 18 0 0 0 0 0 0 0 0 0 0 0 0 0 0 0 0 0 0 0 0 0 0 0 0 
0 0 0 0 0 0 0 0 0 0 0 0 0 0 0 0 0 0 0 0 0 0 51 171 181 214 239 241 237 224 187 166 214 252 255 255 255 255 249 213 154 84 29 2 0 0 0 0 0 0 0 26 194 255 255 255 255 255 255 255 255 255 255 255 255 255 255 255 255 255 255 255 255 255 255 176 26 0 0 0 0 0 0 0 3 26 73 134 192 235 254 255 255 255 255 255 255 255 255 255 243 168 179 102 1 0 0 0 0 0 0 0 0 0 0 0 0 0 0 0 0 0 0 0 0 0 0 0 
0 0 0 0 0 0 0 0 0 0 0 0 0 0 0 0 0 0 0 0 0 2 27 71 95 210 255 255 255 255 255 255 255 255 255 245 209 148 79 25 1 0 0 0 0 0 0 0 0 0 18 168 255 255 255 255 255 255 255 255 255 255 255 255 255 255 255 255 255 255 255 255 255 255 255 255 165 16 0 0 0 0 0 0 0 0 0 0 12 47 100 158 202 232 248 255 255 255 255 255 245 150 85 41 6 0 0 0 0 0 0 0 0 0 0 0 0 0 0 0 0 0 0 0 0 0 0 0 
0 0 0 0 0 0 0 0 0 0 0 0 6 70 93 73 60 69 86 104 134 170 200 223 245 255 255 255 255 255 254 241 221 188 131 68 22 0 0 0 0 0 0 0 0 0 0 0 0 10 151 255 255 255 255 255 255 255 255 255 255 255 255 255 255 255 255 255 255 255 255 255 255 255 255 255 254 149 9 0 0 0 0 0 0 0 0 0 0 0 0 1 16 41 72 117 175 226 253 255 255 255 247 222 178 125 81 55 33 21 18 25 14 0 0 0 0 0 0 0 0 0 0 0 0 0 0 0 
0 0 0 0 0 0 0 0 0 0 0 0 3 57 130 188 217 239 254 255 255 255 255 255 255 255 246 223 183 136 94 57 29 10 0 0 0 0 0 0 0 0 0 0 0 0 0 0 1 119 251 255 255 255 255 255 255 255 255 255 255 255 255 255 255 255 255 255 255 255 255 255 255 255 255 255 255 250 114 0 0 0 0 0 0 0 0 0 0 0 0 0 0 0 0 0 5 37 95 162 214 244 254 255 255 255 255 245 228 212 200 172 75 1 0 0 0 0 0 0 0 0 0 0 0 0 0 0 
0 0 0 0 0 0 0 0 0 0 0 0 0 0 0 14 38 68 116 153 165 176 184 179 150 109 67 31 8 0 0 0 0 0 0 0 0 0 0 0 0 0 0 0 0 0 0 0 62 234 255 255 255 255 255 255 255 255 255 255 255 255 255 255 255 255 255 255 255 255 255 255 255 255 255 255 255 255 233 61 0 0 0 0 0 0 0 0 0 0 0 0 0 0 0 0 0 0 0 2 25 63 92 114 134 156 161 144 122 102 77 30 3 0 0 0 0 0 0 0 0 0 0 0 0 0 0 0 
0 0 0 0 0 0 0 0 0 0 0 0 0 0 0 0 0 0 0 0 1 4 7 5 0 0 0 0 0 0 0 0 0 0 0 0 0 0 0 0 0 0 0 0 0 0 0 10 176 255 255 255 255 255 255 255 255 255 255 255 255 255 255 255 255 255 255 255 255 255 255 255 255 255 255 255 255 255 255 174 10 0 0 0 0 0 0 0 0 0 0 0 0 0 0 0 0 0 0 0 0 0 0 0 0 0 1 0 0 0 0 0 0 0 0 0 0 0 0 0 0 0 0 0 0 0 0 0 
0 0 0 0 0 0 0 0 0 0 0 0 0 0 0 0 0 0 0 0 0 0 0 0 0 0 0 0 0 0 0 0 0 0 0 0 0 0 0 0 0 0 0 0 0 0 0 80 246 255 255 255 255 255 255 255 255 255 255 255 255 255 255 255 255 255 255 255 255 255 255 255 255 255 255 255 255 255 255 246 79 0 0 0 0 0 0 0 0 0 0 0 0 0 0 0 0 0 0 0 0 0 0 0 0 0 0 0 0 0 0 0 0 0 0 0 0 0 0 0 0 0 0 0 0 0 0 0 
0 0 0 0 0 0 0 0 0 0 0 0 0 0 0 0 0 0 0 0 0 0 0 0 0 0 0 0 0 0 0 0 0 0 0 0 0 0 0 0 0 0 0 0 0 0 8 161 243 240 240 240 240 240 240 240 240 240 240 240 240 240 240 240 240 240 240 240 240 240 240 240 240 240 240 240 240 240 240 243 161 8 0 0 0 0 0 0 0 0 0 0 0 0 0 0 0 0 0 0 0 0 0 0 0 0 0 0 0 0 0 0 0 0 0 0 0 0 0 0 0 0 0 0 0 0 0 0 
