P2
128 48
255
0 0 0 0 0 0 0 0 0 0 0 0 0 0 0 0 0 0 0 0 0 0 0 0 0 0 0 0 0 0 0 0 0 0 0 0 0 0 0 0 0 0 0 0 0 0 0 0 0 0 0 12 24 2 0 0 0 1 4 1 0 0 0 0 0 0 0 0 0 0 4 97 165 38 0 0 0 0 0 0 0 0 0 0 0 0 0 0 0 0 0 0 0 0 0 0 21 104 193 236 240 240 240 240 240 232 187 106 27 0 0 0 0 0 0 0 0 0 0 0 0 0 0 0 0 0 0 0 
0 0 0 0 0 0 0 0 0 0 0 0 0 0 0 0 0 0 0 0 0 0 0 0 0 0 0 0 0 0 0 0 0 0 0 0 0 0 0 0 0 0 0 0 0 0 0 0 0 0 0 0 0 0 0 0 0 7 25 7 0 0 0 0 0 0 0 0 0 0 0 13 121 169 109 141 65 0 0 0 0 0 0 0 0 0 1 6 14 23 34 45 53 62 68 81 177 247 255 255 255 255 255 255 255 255 255 245 175 45 0 0 0 0 0 0 0 0 0 0 0 0 0 0 0 0 0 0 
0 0 0 0 0 0 0 0 0 0 0 0 0 0 0 0 0 0 0 0 0 0 0 0 0 0 0 0 0 0 0 0 0 0 0 0 0 0 0 0 0 0 0 0 0 0 0 0 0 0 0 0 0 0 0 0 0 0 2 0 0 0 0 0 0 0 0 0 0 0 0 0 7 105 228 255 146 54 39 36 40 53 67 84 106 129 154 176 195 211 224 234 239 244 246 248 255 255 255 255 255 255 255 255 255 255 255 255 255 165 20 0 0 0 0 0 0 0 0 0 0 0 0 0 0 0 0 0 
0 0 0 0 0 0 0 0 0 0 0 0 0 0 0 0 0 0 0 0 0 0 0 0 0 0 0 0 0 0 0 0 0 0 0 0 0 0 0 0 0 0 0 0 0 0 0 0 0 0 0 0 0 0 0 0 0 0 0 0 0 0 0 0 0 0 0 0 0 0 0 0 0 2 61 165 225 237 231 229 233 242 249 255 255 255 255 255 255 255 253 251 251 250 253 255 255 255 255 255 255 255 255 255 255 255 255 255 255 234 68 0 0 0 0 0 0 0 0 0 0 0 0 0 0 0 1 12 
0 0 0 0 0 0 0 0 0 0 0 0 0 0 0 0 0 0 0 0 0 0 0 0 0 0 0 0 0 0 0 0 0 0 0 0 0 0 0 0 0 0 0 0 0 0 0 0 0 0 0 0 0 0 0 0 0 0 0 0 0 0 0 0 0 0 0 0 0 0 0 0 0 0 0 8 46 97 136 158 169 169 169 164 153 144 131 120 109 99 85 80 80 79 113 238 255 255 255 255 255 255 255 255 255 255 255 255 255 236 68 0 0 0 0 0 0 0 0 0 0 0 0 0 0 0 1 7 
0 0 0 0 0 0 0 0 0 0 0 0 0 0 0 0 0 0 0 0 0 0 0 0 0 0 0 0 0 0 0 0 0 0 0 0 0 0 0 0 0 0 0 0 0 0 0 0 0 0 0 0 0 0 0 0 0 0 0 0 0 0 0 0 0 0 0 0 0 0 0 0 0 0 0 0 0 0 0 1 3 4 4 3 1 0 0 0 0 0 0 0 0 0 16 143 249 255 255 255 255 255 255 255 255 255 255 255 229 115 13 0 0 0 0 0 0 0 0 0 0 0 0 0 0 0 0 0 
0 0 0 0 0 0 0 0 0 0 0 0 0 0 0 0 0 0 0 0 0 0 0 0 0 0 0 0 0 0 0 0 0 0 0 0 0 0 0 0 0 0 0 0 0 0 0 0 0 0 0 0 0 0 0 0 0 0 0 0 0 0 0 0 0 0 0 0 0 0 0 0 0 0 0 0 0 0 0 0 0 0 0 0 0 0 0 0 0 0 0 0 0 9 39 28 96 183 229 248 255 255 255 255 255 245 213 144 55 3 0 0 0 0 0 0 0 0 0 0 0 0 0 0 0 0 0 0 
0 0 0 0 0 0 0 0 0 0 0 0 0 0 0 0 0 0 0 0 0 0 0 0 0 0 0 0 0 0 0 0 0 0 0 0 0 0 0 0 0 0 0 0 0 0 0 0 0 0 0 0 0 0 0 0 0 0 0 0 0 0 0 0 0 0 0 0 0 0 0 0 0 0 0 0 0 0 0 0 0 0 0 0 0 0 0 0 0 0 0 0 0 0 1 0 0 10 41 76 107 129 135 128 105 68 27 2 0 0 13 84 100 19 0 0 0 0 3 1 0 0 0 0 0 0 0 0 
0 0 0 0 0 0 0 0 0 0 0 0 0 0 0 0 0 0 0 0 0 0 0 0 0 0 0 0 0 0 0 0 0 0 0 0 0 0 0 0 0 0 0 0 0 0 0 0 0 0 0 0 0 0 0 0 0 0 0 0 0 0 0 0 0 0 0 0 0 0 0 0 0 0 0 0 0 0 0 0 0 0 0 0 0 0 0 0 0 0 0 0 0 0 0 0 0 0 0 0 0 0 0 0 0 0 0 0 0 0 57 149 92 13 0 0 0 2 21 8 0 0 0 0 0 0 0 0 
0 0 0 0 0 0 0 0 0 0 0 0 0 0 0 0 0 0 0 0 0 0 0 0 0 0 0 0 0 0 0 0 0 0 0 0 0 0 0 0 0 0 0 0 0 0 0 0 0 0 0 0 0 0 0 0 0 0 0 0 0 0 0 0 0 0 9 31 59 84 99 105 98 42 0 0 0 0 0 0 0 0 0 0 0 0 0 0 0 0 0 0 0 0 0 0 0 0 0 0 0 0 0 0 0 0 0 0 0 0 6 5 0 0 0 0 0 0 1 0 0 0 0 0 0 0 0 0 
0 0 0 0 0 0 0 0 0 0 0 0 0 0 0 0 0 0 0 0 0 0 0 0 0 0 0 0 0 0 0 0 0 0 0 0 0 0 0 0 0 0 0 0 0 0 0 0 0 0 0 0 0 0 0 0 0 4 35 78 116 145 160 150 117 133 186 222 242 251 254 254 249 113 0 0 0 0 0 0 0 0 0 0 0 0 0 0 0 0 0 0 0 0 0 0 0 0 0 0 0 0 0 0 0 0 0 0 0 0 0 0 0 0 0 0 0 0 0 0 0 0 0 0 0 0 0 0 
0 0 0 0 0 0 0 0 0 0 0 0 0 0 0 0 0 0 0 0 0 0 0 0 0 0 0 0 0 0 0 0 0 0 0 0 0 0 0 0 0 0 0 0 0 0 0 0 0 0 0 0 0 0 0 2 68 165 225 249 255 255 255 255 255 255 255 255 255 255 255 255 245 90 2 0 0 0 0 0 0 0 2 15 10 0 0 0 0 0 0 0 0 0 0 0 0 0 0 0 0 0 0 0 0 0 0 0 0 0 0 0 0 0 0 0 0 0 0 0 0 0 0 0 0 0 0 0 
0 0 0 0 0 0 0 0 0 0 0 0 0 0 0 0 0 0 0 0 0 0 0 0 0 0 0 0 0 0 0 0 0 0 0 0 0 0 0 0 0 0 0 0 0 0 0 0 0 0 0 0 0 0 15 132 238 255 255 255 255 255 255 255 255 255 255 255 255 255 255 255 255 205 37 0 0 0 0 0 0 0 5 56 48 2 0 0 0 0 0 0 0 0 0 0 0 0 0 0 0 0 0 0 0 0 0 0 0 0 0 0 0 0 0 0 0 0 0 0 0 0 0 0 0 0 0 0 
0 0 0 0 0 0 0 0 0 0 0 0 0 0 0 0 0 0 0 0 0 0 0 0 0 0 0 0 0 0 0 0 0 0 0 0 0 0 0 0 0 0 0 0 0 0 0 0 0 0 0 0 0 0 85 253 255 255 255 255 255 255 255 255 255 255 255 255 255 255 255 255 187 57 3 0 0 0 0 0 0 0 0 1 2 0 0 0 0 0 0 0 0 0 0 0 0 0 0 0 0 0 0 0 0 0 0 0 0 0 0 0 0 0 0 0 0 0 0 0 0 0 0 0 0 0 0 0 
0 0 0 0 0 0 0 0 0 0 0 0 0 0 0 0 0 0 0 0 0 0 0 0 0 0 0 0 0 0 0 0 0 0 0 0 0 0 0 0 0 0 0 0 0 0 0 0 0 0 0 0 0 0 50 209 255 255 255 255 255 255 255 255 255 255 255 255 254 234 221 142 24 0 0 0 0 0 0 0 0 0 0 0 0 0 0 0 0 0 0 0 0 0 0 0 0 0 0 0 0 0 0 0 0 0 0 0 0 0 0 0 0 0 0 0 0 0 0 0 0 0 0 0 0 0 0 0 
0 0 0 0 0 0 0 0 0 0 0 0 0 0 0 0 0 0 0 0 0 0 0 0 0 0 0 0 0 0 0 0 0 0 0 0 0 0 0 0 0 0 0 0 0 0 0 0 0 0 0 0 0 0 0 45 142 236 255 255 255 255 255 255 255 255 255 255 255 136 27 2 0 0 0 0 0 0 0 0 0 0 0 0 0 0 0 0 0 0 0 0 0 0 0 0 0 0 0 0 0 0 0 0 0 0 0 0 0 0 0 0 0 0 0 0 0 0 0 0 0 0 0 0 0 0 0 0 
0 0 0 0 0 0 0 0 0 0 0 0 0 0 0 0 0 0 8 9 5 0 0 0 0 0 0 0 0 0 0 0 0 0 0 0 0 0 0 0 0 0 0 0 0 0 0 0 0 0 0 0 0 0 0 0 3 112 197 232 251 254 255 255 255 243 246 247 235 153 10 0 0 0 0 0 0 0 0 0 0 0 0 0 0 0 0 0 0 0 0 0 0 0 0 0 0 0 0 0 0 0 0 0 0 0 0 0 0 0 0 0 0 0 0 0 0 0 0 0 0 0 0 0 0 0 0 0 
0 0 0 0 0 0 0 0 0 0 0 0 0 0 0 0 30 118 174 179 166 102 20 1 0 0 0 0 0 0 0 0 0 0 0 0 0 0 0 0 0 0 0 0 0 0 0 0 0 0 0 0 0 0 0 0 0 6 62 165 226 253 255 255 251 183 159 130 72 32 0 0 0 0 0 0 0 0 0 0 0 0 1 21 40 17 0 0 0 0 0 0 0 0 0 0 0 0 0 0 0 0 0 0 0 0 0 0 0 0 0 0 0 0 0 0 0 0 0 0 0 0 0 0 0 0 0 0 
0 0 0 0 0 0 0 0 0 0 0 0 0 0 0 2 110 246 255 255 255 241 143 24 0 0 0 0 0 0 0 0 0 0 0 0 0 0 0 0 0 0 0 0 0 0 0 0 0 0 0 0 0 0 0 23 89 161 219 253 255 255 255 255 255 250 239 220 195 154 97 43 8 0 0 0 0 0 0 0 0 0 39 163 159 50 0 0 0 0 0 0 0 0 0 0 0 0 0 0 0 0 0 0 0 0 0 0 0 0 0 0 0 0 0 0 0 0 0 0 0 0 0 0 0 0 0 0 
0 0 0 0 0 0 0 0 0 0 0 0 0 0 0 12 145 251 255 255 255 246 118 6 0 0 0 0 0 0 0 0 0 0 0 0 0 0 0 0 0 0 0 0 0 0 0 0 0 0 0 0 0 25 110 206 251 255 255 255 255 255 255 255 255 255 255 255 255 255 254 232 179 69 0 0 0 0 0 0 0 0 18 44 18 0 0 0 0 0 0 0 0 0 0 0 0 0 0 0 0 0 0 0 0 0 0 0 0 0 0 0 0 0 0 0 0 0 0 0 0 0 0 0 0 0 0 0 
0 0 0 0 0 0 0 0 0 0 0 0 0 0 1 34 133 227 254 255 255 246 125 5 0 0 0 0 0 0 0 0 0 0 0 0 0 0 0 0 0 0 0 0 0 0 0 0 0 0 0 0 48 201 254 255 255 255 255 255 255 255 255 255 255 255 255 255 255 255 255 255 255 210 28 0 0 0 0 0 0 0 0 0 0 0 0 9 53 83 79 46 6 0 0 0 0 0 0 0 0 0 0 0 0 0 0 0 0 0 0 0 0 0 0 0 0 0 0 0 0 0 0 0 0 0 0 0 
0 0 0 0 0 0 0 0 0 0 0 0 0 0 0 33 161 246 255 255 255 255 198 38 0 0 0 0 0 0 0 0 0 0 0 0 0 0 0 0 0 0 0 0 0 0 0 0 0 0 0 0 135 255 255 255 255 255 255 255 255 255 255 255 255 255 255 229 190 237 255 255 255 255 160 34 0 0 0 0 0 0 0 0 0 0 0 17 85 121 114 76 12 0 0 0 0 0 0 0 0 0 0 0 0 0 0 0 0 0 0 0 0 0 0 0 0 0 0 0 0 0 0 0 0 0 0 0 
0 0 0 0 0 0 0 0 0 0 0 0 0 0 30 153 234 214 250 255 255 255 242 102 2 0 0 0 0 0 0 0 0 0 0 0 0 0 0 0 0 0 0 0 0 0 0 0 0 0 0 57 223 255 255 255 216 204 254 255 255 255 255 255 255 255 255 205 38 52 118 161 209 254 255 216 128 30 0 0 0 0 0 0 0 0 0 0 0 0 0 0 0 0 0 0 0 0 0 0 0 0 0 0 0 0 0 0 0 0 0 0 0 0 0 0 3 8 2 0 0 0 0 0 0 0 0 0 
0 0 0 0 0 0 0 0 0 0 0 0 8 61 177 251 249 231 251 255 255 255 255 221 122 26 1 0 0 0 0 0 0 0 0 0 0 0 2 54 65 16 0 0 0 0 0 0 0 1 79 218 255 251 169 95 65 200 255 255 255 255 255 255 255 255 255 142 7 0 0 0 25 117 220 255 255 208 92 9 0 0 0 0 0 0 0 0 0 0 0 0 0 0 0 0 0 0 0 0 0 0 0 0 0 0 0 0 0 0 0 0 0 0 0 0 20 82 32 0 0 0 0 0 0 0 0 0 
0 0 0 0 0 0 0 0 0 0 0 0 17 142 231 246 255 255 255 255 255 255 255 255 248 169 45 0 0 0 0 0 0 0 0 0 0 0 4 104 178 174 130 71 25 2 0 0 13 130 238 255 237 115 10 20 165 255 255 255 255 255 255 255 255 255 242 63 0 0 0 0 0 0 35 109 193 248 251 173 61 24 7 0 1 1 1 1 1 1 1 0 0 1 0 0 0 0 0 0 0 0 0 0 0 0 0 0 0 0 0 0 0 0 0 0 2 12 6 0 0 0 0 0 0 0 0 0 
0 0 0 0 0 0 0 0 0 0 0 0 0 20 60 165 242 254 255 255 255 255 252 186 121 68 15 0 0 0 0 0 0 0 0 0 0 0 0 0 11 50 108 160 178 152 98 53 152 253 255 231 89 0 0 96 217 254 255 255 255 255 255 255 255 255 223 33 0 0 0 0 0 0 0 0 13 68 154 234 240 215 160 59 5 0 2 2 2 2 1 1 1 1 1 0 0 0 0 0 0 0 0 0 0 0 0 0 0 0 0 0 0 0 0 0 0 0 0 0 0 0 0 0 0 0 0 0 
0 0 0 0 0 0 0 0 0 0 0 0 0 5 95 196 226 254 255 255 255 255 248 108 0 0 0 0 0 0 0 0 0 0 0 0 0 0 0 0 0 0 0 5 34 80 152 230 255 255 255 230 64 1 0 21 156 253 255 255 255 255 255 255 255 236 93 3 0 0 0 1 4 8 13 20 28 35 54 85 162 248 255 238 147 129 98 6 5 4 3 2 2 1 1 1 1 1 1 0 0 0 0 0 0 0 0 0 0 0 0 0 0 0 0 0 0 0 0 0 0 0 0 0 0 0 0 0 
0 0 0 0 0 0 0 0 0 0 0 0 0 12 72 83 183 255 255 255 255 255 251 128 3 0 0 0 0 0 0 0 0 0 0 0 85 133 44 0 0 0 0 0 0 15 157 252 211 206 244 234 216 167 114 166 251 255 255 255 255 255 255 255 255 243 129 104 122 136 150 164 178 191 202 214 225 234 245 163 14 98 179 216 255 251 191 71 33 16 9 5 4 3 2 2 1 1 1 1 1 0 0 0 0 0 0 0 0 0 0 0 0 0 0 0 0 0 0 0 0 0 0 0 0 0 0 0 
0 0 0 0 0 0 0 0 0 0 0 0 0 0 0 29 194 255 255 255 255 255 254 149 8 0 0 0 0 0 0 0 25 68 64 66 114 160 136 89 64 64 66 73 96 181 255 236 146 178 207 196 245 255 255 255 255 255 255 255 255 255 255 255 255 255 255 246 229 223 215 205 197 187 175 162 151 138 125 88 8 0 9 53 123 100 153 191 164 104 53 23 10 7 5 4 2 2 1 1 1 1 1 1 0 0 0 0 0 0 0 0 0 0 0 0 0 0 0 0 0 0 0 0 0 0 0 0 
0 0 0 0 0 0 0 0 0 0 0 0 0 0 0 84 236 255 255 255 255 255 255 161 12 0 0 0 0 0 0 0 38 156 205 220 216 226 230 223 219 219 236 249 255 255 246 227 223 218 212 203 219 255 255 255 255 255 255 255 255 255 255 255 255 255 255 213 58 24 20 14 10 6 3 1 0 0 0 0 1 2 3 3 4 11 31 80 149 192 183 132 65 23 12 9 5 4 3 2 1 1 1 1 1 1 0 0 0 0 0 0 0 0 0 0 0 0 0 0 0 0 0 0 0 0 0 0 
0 0 0 0 0 0 0 0 0 0 0 0 0 0 40 187 255 255 255 250 250 255 255 197 33 0 0 0 0 0 0 0 0 5 26 39 39 95 50 39 37 83 224 255 254 203 85 35 32 26 19 35 184 255 255 255 255 255 255 255 255 255 255 255 255 255 255 254 151 14 0 0 0 0 0 0 0 0 1 1 1 1 2 2 3 4 6 11 33 82 141 182 190 145 79 34 15 10 7 5 3 2 2 1 1 1 1 1 0 0 0 0 0 0 0 0 0 0 0 0 0 0 0 0 0 0 0 0 
0 0 0 0 0 0 0 0 0 0 0 0 0 15 133 222 244 255 242 174 198 214 174 210 103 4 0 0 0 0 0 0 0 0 0 0 0 16 0 0 3 122 184 249 211 56 0 0 0 0 14 145 253 255 255 255 255 255 255 255 255 255 255 255 255 255 255 255 251 193 130 81 41 12 0 0 0 0 0 1 1 1 1 1 1 2 2 3 5 12 40 87 132 169 187 166 110 52 22 12 8 6 4 4 2 1 1 1 1 1 1 1 0 0 0 0 0 0 0 0 0 0 0 0 0 0 0 0 
0 0 0 0 0 0 0 0 0 0 0 1 5 13 40 62 166 247 144 85 215 192 59 56 44 4 0 0 0 0 0 0 0 0 0 0 0 0 0 0 2 20 32 85 61 21 0 0 0 24 146 249 255 255 255 255 255 255 255 255 255 255 255 255 255 255 255 255 255 255 255 249 220 193 155 101 57 25 6 0 0 0 0 1 1 1 1 1 3 3 4 15 50 94 120 141 172 178 138 76 32 15 31 44 8 3 2 2 1 1 1 1 1 1 0 0 0 0 0 0 0 0 0 0 0 0 0 0 
2 8 20 30 41 64 90 107 113 117 128 140 153 165 168 167 188 206 161 132 164 153 99 61 22 1 0 0 0 0 0 0 0 0 0 0 0 0 0 0 0 0 0 0 0 0 0 4 53 168 249 255 255 255 255 255 255 255 255 255 255 255 255 255 255 255 255 255 255 255 255 254 205 135 154 195 213 207 180 135 91 51 22 7 1 1 1 1 1 1 2 2 4 22 61 92 101 120 157 182 163 105 54 29 13 8 5 4 3 2 2 1 1 1 1 1 0 0 0 0 0 0 0 0 0 0 0 0 
22 64 110 133 145 156 165 165 158 148 134 119 104 88 70 53 39 30 24 16 9 4 3 1 0 0 0 0 0 0 0 0 0 0 0 0 0 0 0 0 0 0 0 0 0 9 40 112 204 253 255 255 255 255 255 255 255 255 255 255 255 255 255 255 255 255 255 255 255 255 255 255 254 179 23 11 38 74 117 155 184 193 178 126 23 0 0 1 1 1 1 1 2 2 7 32 69 84 90 107 140 175 179 135 73 31 15 10 7 4 3 2 1 1 1 1 1 1 0 0 0 0 0 0 0 0 0 0 
3 8 11 12 12 11 9 7 5 2 0 0 0 0 0 0 0 0 0 0 0 0 0 0 0 0 0 0 0 0 0 0 0 0 0 0 0 0 0 0 0 2 12 35 77 135 197 240 255 255 255 255 255 255 255 255 255 255 255 255 255 255 255 255 255 255 255 255 255 255 255 255 255 255 123 0 0 0 0 0 9 22 34 28 4 0 0 0 1 1 1 1 1 1 1 2 12 41 67 77 86 99 126 163 184 159 100 46 20 12 8 5 4 3 2 1 1 1 1 1 0 0 0 0 0 0 0 0 
0 0 0 0 0 0 0 0 0 0 0 0 0 0 0 0 0 0 0 0 0 0 0 0 0 0 0 0 0 0 0 0 0 0 0 0 0 0 0 0 26 80 121 170 218 248 255 255 255 255 255 255 255 255 255 255 255 255 255 255 255 255 255 255 255 255 255 255 255 255 255 255 255 255 223 39 0 0 0 0 0 0 0 0 0 0 0 0 0 0 0 0 1 1 1 1 1 3 17 46 67 76 83 94 112 145 178 177 129 68 28 14 10 6 4 3 2 2 1 1 1 0 0 0 0 0 0 0 
0 0 0 0 0 0 0 0 0 0 0 0 0 0 0 0 0 0 0 0 0 0 0 0 0 0 0 0 0 0 0 0 0 0 0 0 0 0 0 0 28 126 220 255 255 255 255 255 255 255 255 255 255 255 255 255 255 255 255 255 255 255 255 255 255 255 255 255 255 255 255 255 255 255 202 27 0 0 0 0 0 0 0 0 0 0 0 0 0 0 0 0 0 0 1 1 1 1 1 6 25 49 67 75 81 89 103 130 167 184 154 93 42 19 11 8 5 3 2 2 1 0 0 0 0 0 0 0 
0 0 0 0 0 0 0 0 0 0 0 0 0 0 0 0 0 0 0 0 0 0 0 0 0 0 0 0 0 0 0 0 0 0 0 0 0 0 0 0 0 19 95 188 244 255 255 255 255 255 255 255 255 255 255 255 255 255 255 255 255 255 255 255 255 255 255 255 255 255 255 255 255 181 48 0 0 0 0 0 0 0 0 0 0 0 0 0 0 0 0 0 0 0 0 0 1 1 1 1 1 6 25 50 67 74 79 86 96 117 151 181 172 121 61 26 14 9 6 4 2 1 1 1 0 0 0 0 
0 0 0 0 0 0 0 0 0 0 0 0 0 0 0 0 0 0 0 0 0 0 0 0 0 0 0 0 0 0 0 0 0 0 0 0 0 0 0 0 0 0 0 13 75 143 216 247 254 255 255 255 255 255 255 255 255 255 255 255 255 255 255 255 255 255 255 255 255 255 255 228 136 22 0 0 0 0 0 0 0 0 0 0 0 0 0 0 0 0 0 0 0 0 0 0 0 0 0 1 1 1 0 6 25 48 65 74 79 84 92 107 135 171 183 148 84 37 17 11 7 4 3 3 1 0 0 0 
0 0 0 0 0 0 0 0 0 0 0 0 0 0 0 0 0 0 0 0 0 0 0 0 0 0 0 0 0 0 0 0 0 0 0 0 0 0 0 0 0 0 0 0 0 1 35 66 110 225 255 255 255 254 250 253 255 255 255 255 255 255 255 255 255 255 255 255 221 154 98 42 1 0 0 0 0 0 0 0 0 0 0 0 0 0 0 0 0 0 0 0 0 0 0 0 0 0 0 0 0 1 1 1 1 5 21 47 63 73 78 83 89 100 122 156 183 168 111 53 23 12 8 5 3 2 1 1 
0 0 0 0 0 0 0 0 0 0 0 0 0 0 0 0 0 0 0 0 0 0 0 0 0 0 0 0 0 0 0 0 0 0 0 0 0 0 0 0 0 0 0 0 0 0 0 0 51 231 255 255 247 132 77 97 134 140 139 125 126 137 123 117 182 255 255 255 201 26 0 0 0 0 0 0 0 0 0 0 0 0 0 0 0 0 0 0 0 0 0 0 0 0 0 0 0 0 0 0 0 0 0 1 1 1 0 4 15 30 48 64 75 82 89 96 112 141 175 179 137 74 30 15 9 5 2 2 
0 0 0 0 0 0 0 0 0 0 0 0 0 0 0 0 0 0 0 0 0 0 0 0 0 0 0 0 0 0 0 0 0 0 0 0 0 0 0 0 0 0 0 0 0 0 0 0 125 255 255 255 216 26 0 0 0 0 0 0 0 0 0 0 60 240 255 255 253 96 0 0 0 0 0 0 0 0 0 0 0 0 0 0 0 0 0 0 0 0 0 0 0 0 0 0 0 0 0 0 0 0 0 0 0 1 1 1 0 0 3 11 26 44 64 77 85 93 105 129 163 181 154 94 39 14 7 5 
0 0 0 0 0 0 0 0 0 0 0 0 0 0 0 0 0 0 0 0 0 0 0 0 0 0 0 0 0 0 0 0 0 0 0 0 0 0 0 0 0 0 0 0 0 0 0 0 151 255 255 255 164 3 0 0 0 0 0 0 0 0 0 0 10 183 255 255 255 144 0 0 0 0 0 0 0 0 0 0 0 0 0 0 0 0 0 0 0 0 0 0 0 0 0 0 0 0 0 0 0 0 0 0 0 0 0 0 0 1 1 0 0 2 9 21 34 46 59 72 86 107 142 173 160 98 43 15 
0 0 0 0 0 0 0 0 0 0 0 0 0 0 0 0 0 0 0 0 0 0 0 0 0 0 0 0 0 0 0 0 0 0 0 0 0 0 0 0 0 0 0 0 0 0 0 0 152 255 255 252 95 0 0 0 0 0 0 0 0 0 0 0 0 98 252 255 255 155 0 0 0 0 0 0 0 0 0 0 0 0 0 0 0 0 0 0 0 0 0 0 0 0 0 0 0 0 0 0 0 0 0 0 0 0 0 0 0 0 0 1 1 1 0 0 0 2 5 9 15 24 37 53 79 109 112 61 
0 0 0 0 0 0 0 0 0 0 0 0 0 0 0 0 0 0 0 0 0 0 0 0 0 0 0 0 0 0 0 0 0 0 0 0 0 0 0 0 0 0 0 0 0 0 0 0 155 255 255 219 33 0 0 0 0 0 0 0 0 0 0 0 0 25 208 255 255 168 2 0 0 0 0 0 0 0 0 0 0 0 0 0 0 0 0 0 0 0 0 0 0 0 0 0 0 0 0 0 0 0 0 0 0 0 0 0 0 0 0 0 0 0 0 0 0 0 0 0 1 1 2 3 5 8 17 25 
0 0 0 0 0 0 0 0 0 0 0 0 0 0 0 0 0 0 0 0 0 0 0 0 0 0 0 0 0 0 0 0 0 0 0 0 0 0 0 0 0 0 0 0 0 0 0 12 182 255 255 149 1 0 0 0 0 0 0 0 0 0 0 0 0 0 119 255 255 200 23 0 0 0 0 0 0 0 0 0 0 0 0 0 0 0 0 0 0 0 0 0 0 0 0 0 0 0 0 0 0 0 0 0 0 0 0 0 0 0 0 0 0 0 0 0 0 0 0 0 0 0 0 1 1 1 1 1 
0 0 0 0 0 0 0 0 0 0 0 0 0 0 0 0 0 0 0 0 0 0 0 0 0 0 0 0 0 0 0 0 0 0 0 0 0 0 0 0 0 0 0 0 0 0 0 79 229 240 243 150 3 0 0 0 0 0 0 0 0 0 0 0 0 0 103 240 240 237 113 0 0 0 0 0 0 0 0 0 0 0 0 0 0 0 0 0 0 0 0 0 0 0 0 0 0 0 0 0 0 0 0 0 0 0 0 0 0 0 0 0 0 0 0 0 0 0 0 0 0 0 0 0 0 0 0 0 
